<?xml version="1.0" encoding="utf-8"?>
<!-- Generator: Adobe Illustrator 21.0.2, SVG Export Plug-In . SVG Version: 6.00 Build 0)  -->
<svg version="1.1" id="Bloog" xmlns="http://www.w3.org/2000/svg" xmlns:xlink="http://www.w3.org/1999/xlink" x="0px" y="0px"
	 viewBox="0 0 1920 1080" style="enable-background:new 0 0 1920 1080;" xml:space="preserve">
<style type="text/css">
	.st0{fill:#2D2D2D;}
	.st1{opacity:0.5;fill:none;stroke:#FFFFFF;stroke-miterlimit:10;enable-background:new    ;}
	.st2{clip-path:url(#SVGID_2_);fill:#FDF6CA;}
	.st3{clip-path:url(#SVGID_4_);}
	.st4{fill:#FCD990;}
	.st5{fill:#DDD7A9;}
	.st6{fill:#B8B38E;}
	.st7{opacity:0.64;clip-path:url(#SVGID_6_);fill:#9090AD;enable-background:new    ;}
	.st8{opacity:0.61;fill:#B8B38E;enable-background:new    ;}
	.st9{fill:#FFFFFF;}
	.st10{fill:#0A1823;}
	.st11{fill:#C54C31;}
	.st12{fill:#B5B5B5;}
	.st13{fill:#ECEAEA;}
	.st14{fill:#DBDBDB;}
	.st15{opacity:0.66;fill:#ECEAEA;enable-background:new    ;}
	.st16{fill:#D8D6D7;}
	.st17{fill:#FFFFFF;stroke:#0A1823;stroke-linecap:round;stroke-linejoin:round;stroke-miterlimit:10;}
	.st18{fill:#F2F2F2;}
	.st19{fill:none;}
	.st20{fill:#1F1F1F;}
	.st21{font-family:'ComicSansMS';}
	.st22{font-size:20.7795px;}
	.st23{font-family:'Lato-Light';}
	.st24{font-size:100px;}
	.st25{font-size:20px;}
</style>
<g id="Layer_2">
	<rect x="-40.2" y="-11.6" class="st0" width="2069.2" height="1262.5"/>
</g>
<circle id="blCircle" class="st1" cx="1964.6" cy="540" r="665.2"/>
<g id="blGroung">
	<g>
		<g>
			<g>
				<defs>
					<path id="SVGID_1_" d="M2170.2,1116.9c-61.5-48.5-139.9-91.1-233.8-124.8c-375.8-134.9-864.8-77.9-1121.9,124.8H2170.2z"/>
				</defs>
				<clipPath id="SVGID_2_">
					<use xlink:href="#SVGID_1_"  style="overflow:visible;"/>
				</clipPath>
				<path class="st2" d="M2147.2,1099.6c-57.7-41.4-128.1-77.9-210.7-107.5c-364.9-130.9-836.5-81-1098.9,107.5H2147.2z"/>
			</g>
		</g>
		<g>
			<g>
				<defs>
					<path id="SVGID_3_" d="M2170.2,1116.9c-61.5-48.5-139.9-91.1-233.8-124.8c-375.8-134.9-864.8-77.9-1121.9,124.8H2170.2z"/>
				</defs>
				<clipPath id="SVGID_4_">
					<use xlink:href="#SVGID_3_"  style="overflow:visible;"/>
				</clipPath>
				<g class="st3">
					<g>
						<path class="st4" d="M1362.7,991c-6.2,5.4-21.5,8.5-34.1,7.1s-17.8-6.9-11.6-12.3s21.5-8.5,34.1-7.1
							C1363.8,980.1,1369,985.6,1362.7,991z"/>
						<path class="st5" d="M1362.7,991c-6.2,5.4-21.5,8.5-34.1,7.1s-17.8-6.9-11.6-12.3s21.5-8.5,34.1-7.1
							C1363.8,980.1,1369,985.6,1362.7,991z"/>
						<path class="st6" d="M1318.8,988.2c6.2-5.4,21.5-8.5,34.1-7.1c5.9,0.7,10,2.3,12.3,4.2c-0.9-3.3-5.9-5.9-14-6.8
							c-12.6-1.4-27.9,1.7-34.1,7.1c-3.3,2.9-3.5,5.9-0.7,8.1C1315.8,992,1316.7,990.1,1318.8,988.2z"/>
					</g>
					<g>
						<path class="st4" d="M1121.5,991.7c-2.9,2.4-9.9,4-15.8,3.3s-8.1-3.3-5.4-5.7c2.9-2.4,9.9-4,15.8-3.3
							S1124.5,989.3,1121.5,991.7z"/>
						<path class="st5" d="M1121.5,991.7c-2.9,2.4-9.9,4-15.8,3.3s-8.1-3.3-5.4-5.7c2.9-2.4,9.9-4,15.8-3.3
							S1124.5,989.3,1121.5,991.7z"/>
						<path class="st6" d="M1101.3,990.5c2.9-2.4,9.9-4,15.8-3.3c2.8,0.3,4.7,1,5.7,1.9c-0.3-1.6-2.8-2.8-6.4-3.1
							c-5.9-0.7-12.8,0.7-15.8,3.3c-1.6,1.4-1.6,2.8-0.3,3.8C1099.9,992.2,1100.2,991.4,1101.3,990.5z"/>
					</g>
					<g>
						<path class="st4" d="M1164.1,1014.2c-4.3,3.8-15.2,6.1-24.1,5c-8.8-1-12.5-4.8-8.1-8.7c4.3-3.8,15.2-6.1,24.1-5
							C1164.8,1006.4,1168.5,1010.4,1164.1,1014.2z"/>
						<path class="st5" d="M1164.1,1014.2c-4.3,3.8-15.2,6.1-24.1,5c-8.8-1-12.5-4.8-8.1-8.7c4.3-3.8,15.2-6.1,24.1-5
							C1164.8,1006.4,1168.5,1010.4,1164.1,1014.2z"/>
						<path class="st6" d="M1133.1,1012.3c4.3-3.8,15.2-6.1,24.1-5c4.2,0.5,7.1,1.6,8.7,2.9c-0.5-2.3-4.2-4.2-9.9-4.8
							c-8.8-1-19.7,1.2-24.1,5c-2.4,2.1-2.4,4.2-0.5,5.7C1131,1014.9,1131.6,1013.5,1133.1,1012.3z"/>
					</g>
					<g>
						<path class="st4" d="M1359.8,1083.1c-1.6,1.4-5.5,2.3-8.8,1.7c-3.3-0.3-4.5-1.7-2.9-3.1s5.5-2.3,8.8-1.7
							C1360.1,1080.2,1361.4,1081.7,1359.8,1083.1z"/>
						<path class="st5" d="M1359.8,1083.1c-1.6,1.4-5.5,2.3-8.8,1.7c-3.3-0.3-4.5-1.7-2.9-3.1s5.5-2.3,8.8-1.7
							C1360.1,1080.2,1361.4,1081.7,1359.8,1083.1z"/>
						<path class="st6" d="M1348.5,1082.4c1.6-1.4,5.5-2.3,8.8-1.7c1.6,0.2,2.6,0.5,3.1,1c-0.2-0.9-1.6-1.6-3.6-1.7
							c-3.3-0.3-7.1,0.5-8.8,1.7c-0.9,0.7-0.9,1.6-0.2,2.1C1347.8,1083.3,1348,1082.8,1348.5,1082.4z"/>
					</g>
					<g>
						<path class="st4" d="M1493.1,944.6c-4.5,3.1-14.7,4.3-22.7,2.9c-8-1.4-10.9-5.2-6.4-8.3s14.7-4.3,22.7-2.9
							C1494.7,937.7,1497.6,941.5,1493.1,944.6z"/>
						<path class="st5" d="M1493.1,944.6c-4.5,3.1-14.7,4.3-22.7,2.9c-8-1.4-10.9-5.2-6.4-8.3s14.7-4.3,22.7-2.9
							C1494.7,937.7,1497.6,941.5,1493.1,944.6z"/>
						<path class="st6" d="M1464.9,941c4.5-3.1,14.7-4.3,22.7-2.9c3.6,0.7,6.2,1.9,7.6,3.3c-0.3-2.1-3.3-4-8.5-5
							c-8-1.6-18.2-0.2-22.7,2.9c-2.4,1.7-2.6,3.5-1.2,5.2C1462.7,943.2,1463.3,942,1464.9,941z"/>
					</g>
					<g>
						<path class="st4" d="M1176.8,1024.6c-1.7,1.4-5.7,2.3-9,1.9c-3.3-0.3-4.7-1.9-3.1-3.3c1.7-1.4,5.7-2.3,9-1.9
							C1176.9,1021.7,1178.3,1023,1176.8,1024.6z"/>
						<path class="st5" d="M1176.8,1024.6c-1.7,1.4-5.7,2.3-9,1.9c-3.3-0.3-4.7-1.9-3.1-3.3c1.7-1.4,5.7-2.3,9-1.9
							C1176.9,1021.7,1178.3,1023,1176.8,1024.6z"/>
						<path class="st6" d="M1165,1023.9c1.7-1.4,5.7-2.3,9-1.9c1.6,0.2,2.6,0.5,3.3,1c-0.2-0.9-1.6-1.6-3.8-1.7
							c-3.3-0.3-7.4,0.5-9,1.9c-0.9,0.7-0.9,1.6-0.2,2.3C1164.3,1024.8,1164.5,1024.3,1165,1023.9z"/>
					</g>
					<g>
						<path class="st4" d="M1164.3,976.3c-1.2,1-4.2,1.6-6.6,1.4c-2.4-0.3-3.5-1.4-2.3-2.4s4.2-1.6,6.6-1.4
							C1164.5,974,1165.5,975.2,1164.3,976.3z"/>
						<path class="st5" d="M1164.3,976.3c-1.2,1-4.2,1.6-6.6,1.4c-2.4-0.3-3.5-1.4-2.3-2.4s4.2-1.6,6.6-1.4
							C1164.5,974,1165.5,975.2,1164.3,976.3z"/>
						<path class="st6" d="M1155.8,975.8c1.2-1,4.2-1.6,6.6-1.4c1,0.2,1.9,0.3,2.4,0.9c-0.2-0.7-1.2-1.2-2.8-1.4
							c-2.4-0.3-5.4,0.3-6.6,1.4c-0.7,0.5-0.7,1-0.2,1.6C1155.3,976.5,1155.5,976.1,1155.8,975.8z"/>
					</g>
					<g>
						<path class="st4" d="M1477.4,1016.6c-7.3,4.8-23,6.8-35.2,4.2c-12.3-2.4-16.3-8.3-9.2-13.2c7.1-4.8,23-6.8,35.2-4.2
							C1480.5,1005.9,1484.6,1011.8,1477.4,1016.6z"/>
						<path class="st5" d="M1477.4,1016.6c-7.3,4.8-23,6.8-35.2,4.2c-12.3-2.4-16.3-8.3-9.2-13.2c7.1-4.8,23-6.8,35.2-4.2
							C1480.5,1005.9,1484.6,1011.8,1477.4,1016.6z"/>
						<path class="st6" d="M1434.4,1010.4c7.3-4.8,23-6.8,35.2-4.2c5.7,1.2,9.5,2.9,11.4,5.2c-0.2-3.3-4.7-6.2-12.6-8
							c-12.3-2.4-28.1-0.5-35.2,4.2c-3.8,2.6-4.5,5.5-2.3,8C1430.8,1013.9,1431.8,1012.1,1434.4,1010.4z"/>
					</g>
					<g>
						<path class="st4" d="M1321.9,959.8c-6.2,5.4-21.5,8.5-34.1,7.1s-17.8-6.9-11.6-12.3s21.5-8.5,34.1-7.1
							C1323.1,948.9,1328.1,954.5,1321.9,959.8z"/>
						<path class="st5" d="M1321.9,959.8c-6.2,5.4-21.5,8.5-34.1,7.1s-17.8-6.9-11.6-12.3s21.5-8.5,34.1-7.1
							C1323.1,948.9,1328.1,954.5,1321.9,959.8z"/>
						<path class="st6" d="M1278.1,957.1c6.2-5.4,21.5-8.5,34.1-7.1c5.9,0.7,10,2.3,12.3,4.2c-0.9-3.3-5.9-5.9-14-6.8
							c-12.6-1.4-27.9,1.7-34.1,7.1c-3.3,2.9-3.3,5.9-0.7,8.1C1275.1,960.9,1275.8,959,1278.1,957.1z"/>
					</g>
					<g>
						<path class="st4" d="M1298,1102c-6.2,5.4-21.5,8.5-34.1,7.1s-17.8-6.9-11.6-12.3c6.2-5.4,21.5-8.5,34.1-7.1
							C1299.2,1091.1,1304.2,1096.6,1298,1102z"/>
						<path class="st5" d="M1298,1102c-6.2,5.4-21.5,8.5-34.1,7.1s-17.8-6.9-11.6-12.3c6.2-5.4,21.5-8.5,34.1-7.1
							C1299.2,1091.1,1304.2,1096.6,1298,1102z"/>
						<path class="st6" d="M1254.2,1099.2c6.2-5.4,21.5-8.5,34.1-7.1c5.9,0.7,10,2.3,12.3,4.2c-0.9-3.3-5.9-5.9-14-6.8
							c-12.6-1.4-27.9,1.7-34.1,7.1c-3.3,2.9-3.5,5.9-0.7,8.1C1251.2,1103,1251.9,1101.1,1254.2,1099.2z"/>
					</g>
					<g>
						<path class="st4" d="M1244.5,1049.9c-6.9,2.1-15.8,1.9-19.7-0.5c-4-2.4-1.7-5.9,5-8c6.9-2.1,15.8-1.9,19.7,0.5
							C1253.5,1044.3,1251.4,1047.8,1244.5,1049.9z"/>
						<path class="st5" d="M1244.5,1049.9c-6.9,2.1-15.8,1.9-19.7-0.5c-4-2.4-1.7-5.9,5-8c6.9-2.1,15.8-1.9,19.7,0.5
							C1253.5,1044.3,1251.4,1047.8,1244.5,1049.9z"/>
						<path class="st6" d="M1228.4,1043.1c6.9-2.1,15.8-1.9,19.7,0.5c1.9,1,2.4,2.4,1.7,3.8c2.3-1.7,2.3-3.8-0.3-5.4
							c-4-2.4-13-2.6-19.7-0.5c-3.6,1-6.1,2.8-6.8,4.3C1224.2,1044.7,1226.1,1043.8,1228.4,1043.1z"/>
					</g>
					<g>
						<path class="st4" d="M1437.9,1085.6c-6.9,2.1-15.8,1.9-19.7-0.5c-4-2.4-1.7-5.9,5-8c6.9-2.1,15.8-1.9,19.7,0.5
							C1447.1,1079.8,1444.8,1083.5,1437.9,1085.6z"/>
						<path class="st5" d="M1437.9,1085.6c-6.9,2.1-15.8,1.9-19.7-0.5c-4-2.4-1.7-5.9,5-8c6.9-2.1,15.8-1.9,19.7,0.5
							C1447.1,1079.8,1444.8,1083.5,1437.9,1085.6z"/>
						<path class="st6" d="M1421.8,1078.6c6.9-2.1,15.8-1.9,19.7,0.5c1.9,1,2.4,2.4,1.7,3.8c2.3-1.7,2.3-3.8-0.3-5.4
							c-4-2.4-13-2.6-19.7-0.5c-3.6,1-6.1,2.8-6.8,4.3C1417.6,1080.4,1419.5,1079.5,1421.8,1078.6z"/>
					</g>
					<g>
						<path class="st4" d="M1100.2,1053.2c-5.2,1.6-11.9,1.4-15.1-0.3c-3.1-1.7-1.4-4.5,3.8-6.1c5.2-1.6,11.9-1.4,15.1,0.3
							C1107.3,1048.8,1105.6,1051.6,1100.2,1053.2z"/>
						<path class="st5" d="M1100.2,1053.2c-5.2,1.6-11.9,1.4-15.1-0.3c-3.1-1.7-1.4-4.5,3.8-6.1c5.2-1.6,11.9-1.4,15.1,0.3
							C1107.3,1048.8,1105.6,1051.6,1100.2,1053.2z"/>
						<path class="st6" d="M1088.1,1048c5.2-1.6,11.9-1.4,15.1,0.3c1.4,0.9,1.9,1.9,1.4,2.9c1.7-1.4,1.7-2.9-0.3-4.2
							c-3.1-1.7-9.9-1.9-15.1-0.3c-2.8,0.9-4.7,2.1-5.2,3.3C1084.8,1049.2,1086.2,1048.5,1088.1,1048z"/>
					</g>
					<g>
						<path class="st4" d="M1175,1081.7c-6.9,2.1-15.8,1.9-19.7-0.5s-1.7-5.9,5-8c6.8-2.1,15.8-1.9,19.7,0.5
							C1184.2,1076,1181.8,1079.7,1175,1081.7z"/>
						<path class="st5" d="M1175,1081.7c-6.9,2.1-15.8,1.9-19.7-0.5s-1.7-5.9,5-8c6.8-2.1,15.8-1.9,19.7,0.5
							C1184.2,1076,1181.8,1079.7,1175,1081.7z"/>
						<path class="st6" d="M1158.9,1074.8c6.9-2.1,15.8-1.9,19.7,0.5c1.9,1,2.4,2.4,1.7,3.8c2.3-1.7,2.3-3.8-0.3-5.4
							c-4-2.4-13-2.6-19.7-0.5c-3.6,1-6.1,2.8-6.8,4.3C1154.8,1076.4,1156.5,1075.5,1158.9,1074.8z"/>
					</g>
					<g>
						<path class="st4" d="M1217.8,964.3c-2.9,1.7-8.7,2.4-12.5,1.6c-4-0.9-4.7-2.9-1.7-4.7c2.9-1.7,8.7-2.4,12.5-1.6
							C1219.9,960.5,1220.7,962.6,1217.8,964.3z"/>
						<path class="st5" d="M1217.8,964.3c-2.9,1.7-8.7,2.4-12.5,1.6c-4-0.9-4.7-2.9-1.7-4.7c2.9-1.7,8.7-2.4,12.5-1.6
							C1219.9,960.5,1220.7,962.6,1217.8,964.3z"/>
						<path class="st6" d="M1203.6,962.3c2.9-1.7,8.7-2.4,12.5-1.6c1.9,0.3,2.9,1,3.5,1.9c0.2-1.2-1-2.3-3.5-2.8
							c-4-0.9-9.5-0.2-12.5,1.6c-1.6,0.9-2.1,2.1-1.6,2.9C1202,963.6,1202.6,963,1203.6,962.3z"/>
					</g>
					<g>
						<path class="st4" d="M1423.2,1039.7c-2.8,1.7-8.1,2.4-11.9,1.6s-4.5-2.8-1.7-4.5s8.1-2.4,11.9-1.6
							S1425.9,1038.1,1423.2,1039.7z"/>
						<path class="st5" d="M1423.2,1039.7c-2.8,1.7-8.1,2.4-11.9,1.6s-4.5-2.8-1.7-4.5s8.1-2.4,11.9-1.6
							S1425.9,1038.1,1423.2,1039.7z"/>
						<path class="st6" d="M1409.7,1037.8c2.8-1.7,8.1-2.4,11.9-1.6c1.7,0.3,2.8,1,3.3,1.7c0.2-1-0.9-2.1-3.3-2.6
							c-3.8-0.9-9.2-0.2-11.9,1.6c-1.6,0.9-2.1,1.9-1.6,2.8C1408.1,1039,1408.6,1038.3,1409.7,1037.8z"/>
					</g>
					<g>
						<path class="st4" d="M1425.9,940.3c-1.4,0.9-3.8,1-5.7,0.7c-1.7-0.3-2.1-1.4-0.9-2.1c1.4-0.9,3.8-1,5.7-0.7
							C1427,938.5,1427.3,939.4,1425.9,940.3z"/>
						<path class="st5" d="M1425.9,940.3c-1.4,0.9-3.8,1-5.7,0.7c-1.7-0.3-2.1-1.4-0.9-2.1c1.4-0.9,3.8-1,5.7-0.7
							C1427,938.5,1427.3,939.4,1425.9,940.3z"/>
						<path class="st6" d="M1419.5,939.2c1.4-0.9,3.8-1,5.7-0.7c0.9,0.2,1.4,0.5,1.6,0.9c0.2-0.5-0.5-1-1.6-1.2
							c-1.7-0.3-4.3,0-5.7,0.7c-0.7,0.3-0.9,0.9-0.7,1.4C1418.8,939.9,1419.2,939.6,1419.5,939.2z"/>
					</g>
					<g>
						<path class="st4" d="M1255.2,948.2c-1,0.7-3.1,0.9-4.5,0.5c-1.4-0.3-1.7-1-0.7-1.7s3.1-0.9,4.5-0.5
							C1256.1,946.8,1256.2,947.7,1255.2,948.2z"/>
						<path class="st5" d="M1255.2,948.2c-1,0.7-3.1,0.9-4.5,0.5c-1.4-0.3-1.7-1-0.7-1.7s3.1-0.9,4.5-0.5
							C1256.1,946.8,1256.2,947.7,1255.2,948.2z"/>
						<path class="st6" d="M1250.2,947.5c1-0.7,3.1-0.9,4.5-0.5c0.7,0.2,1,0.3,1.2,0.7c0.2-0.3-0.3-0.9-1.2-1
							c-1.4-0.3-3.5,0-4.5,0.5c-0.5,0.3-0.7,0.7-0.5,1C1249.7,948.1,1249.8,947.7,1250.2,947.5z"/>
					</g>
					<g>
						<path class="st4" d="M1423.9,971.3c-5,2.9-14.7,4.3-21.5,2.8c-6.8-1.4-8.1-5-3.1-8.1c5-2.9,14.7-4.3,21.5-2.8
							C1427.7,964.7,1428.9,968.3,1423.9,971.3z"/>
						<path class="st5" d="M1423.9,971.3c-5,2.9-14.7,4.3-21.5,2.8c-6.8-1.4-8.1-5-3.1-8.1c5-2.9,14.7-4.3,21.5-2.8
							C1427.7,964.7,1428.9,968.3,1423.9,971.3z"/>
						<path class="st6" d="M1399.6,967.8c5-2.9,14.7-4.3,21.5-2.8c3.1,0.7,5,1.7,5.7,3.1c0.5-2.1-1.7-3.8-6.1-4.8
							c-6.8-1.4-16.5-0.2-21.5,2.8c-2.8,1.6-3.6,3.5-2.8,5C1396.9,969.9,1397.9,968.8,1399.6,967.8z"/>
					</g>
					<g>
						<path class="st4" d="M1529.3,964.7c-3.5,1.2-9.2,1-12.6-0.3c-3.5-1.4-3.6-3.6-0.2-4.8c3.5-1.2,9.2-1,12.6,0.3
							C1532.8,961.2,1532.8,963.3,1529.3,964.7z"/>
						<path class="st5" d="M1529.3,964.7c-3.5,1.2-9.2,1-12.6-0.3c-3.5-1.4-3.6-3.6-0.2-4.8c3.5-1.2,9.2-1,12.6,0.3
							C1532.8,961.2,1532.8,963.3,1529.3,964.7z"/>
						<path class="st6" d="M1516.3,960.5c3.5-1.2,9.2-1,12.6,0.3c1.6,0.7,2.4,1.4,2.6,2.3c0.7-1-0.2-2.3-2.4-3.3
							c-3.5-1.4-9.2-1.6-12.6-0.3c-1.9,0.7-2.8,1.6-2.6,2.6C1514.4,961.4,1515.1,960.9,1516.3,960.5z"/>
					</g>
					<g>
						<path class="st4" d="M1522.4,930.1c-2.6,1-7.1,0.9-9.7-0.2c-2.8-1-2.8-2.8,0-3.6c2.6-1,7.1-0.9,9.7,0.2
							C1525,927.5,1525,929.2,1522.4,930.1z"/>
						<path class="st5" d="M1522.4,930.1c-2.6,1-7.1,0.9-9.7-0.2c-2.8-1-2.8-2.8,0-3.6c2.6-1,7.1-0.9,9.7,0.2
							C1525,927.5,1525,929.2,1522.4,930.1z"/>
						<path class="st6" d="M1512.4,926.9c2.6-1,7.1-0.9,9.7,0.2c1.2,0.5,1.9,1,2.1,1.7c0.5-0.9-0.2-1.7-1.9-2.4
							c-2.8-1-7.1-1.2-9.7-0.2c-1.4,0.5-2.1,1.2-1.9,1.9C1511,927.6,1511.5,927.3,1512.4,926.9z"/>
					</g>
					<g>
						<path class="st4" d="M1383.9,953.3c-2.8,1.7-8.1,2.4-11.9,1.6c-3.8-0.9-4.5-2.8-1.7-4.5s8.1-2.4,11.9-1.6
							C1385.9,949.4,1386.6,951.5,1383.9,953.3z"/>
						<path class="st5" d="M1383.9,953.3c-2.8,1.7-8.1,2.4-11.9,1.6c-3.8-0.9-4.5-2.8-1.7-4.5s8.1-2.4,11.9-1.6
							C1385.9,949.4,1386.6,951.5,1383.9,953.3z"/>
						<path class="st6" d="M1370.4,951.2c2.8-1.7,8.1-2.4,11.9-1.6c1.7,0.3,2.8,1,3.3,1.7c0.2-1-0.9-2.1-3.3-2.6
							c-3.8-0.9-9.2-0.2-11.9,1.6c-1.6,0.9-2.1,1.9-1.6,2.8C1368.8,952.4,1369.3,951.7,1370.4,951.2z"/>
					</g>
					<g>
						<path class="st4" d="M1350.6,937.8c-2.8,1.7-8.1,2.4-11.9,1.6c-3.8-0.9-4.5-2.8-1.7-4.5s8.1-2.4,11.9-1.6
							C1352.7,934.2,1353.6,936.3,1350.6,937.8z"/>
						<path class="st5" d="M1350.6,937.8c-2.8,1.7-8.1,2.4-11.9,1.6c-3.8-0.9-4.5-2.8-1.7-4.5s8.1-2.4,11.9-1.6
							C1352.7,934.2,1353.6,936.3,1350.6,937.8z"/>
						<path class="st6" d="M1337.1,935.9c2.8-1.7,8.1-2.4,11.9-1.6c1.7,0.3,2.8,1,3.3,1.7c0.2-1-0.9-2.1-3.3-2.6
							c-3.8-0.9-9.2-0.2-11.9,1.6c-1.6,0.9-2.1,1.9-1.6,2.8C1335.6,937.2,1336.1,936.5,1337.1,935.9z"/>
					</g>
					<g>
						<path class="st4" d="M1503,1048.7c-2.8,1.7-8.1,2.4-11.9,1.6c-3.8-0.9-4.5-2.8-1.7-4.5s8.1-2.4,11.9-1.6
							C1505.1,1044.9,1505.8,1046.9,1503,1048.7z"/>
						<path class="st5" d="M1503,1048.7c-2.8,1.7-8.1,2.4-11.9,1.6c-3.8-0.9-4.5-2.8-1.7-4.5s8.1-2.4,11.9-1.6
							C1505.1,1044.9,1505.8,1046.9,1503,1048.7z"/>
						<path class="st6" d="M1489.3,1046.6c2.8-1.7,8.1-2.4,11.9-1.6c1.7,0.3,2.8,1,3.3,1.7c0.2-1-0.9-2.1-3.3-2.6
							c-3.8-0.9-9.2-0.2-11.9,1.6c-1.6,0.9-2.1,1.9-1.6,2.8C1487.9,1047.8,1488.5,1047.3,1489.3,1046.6z"/>
					</g>
					<g>
						<path class="st4" d="M1547.9,1012.1c-6.2,3.6-18.2,5.2-26.5,3.5s-10-6.2-3.8-9.9c6.2-3.6,18.2-5.2,26.5-3.5
							C1552.4,1004,1554.1,1008.5,1547.9,1012.1z"/>
						<path class="st5" d="M1547.9,1012.1c-6.2,3.6-18.2,5.2-26.5,3.5s-10-6.2-3.8-9.9c6.2-3.6,18.2-5.2,26.5-3.5
							C1552.4,1004,1554.1,1008.5,1547.9,1012.1z"/>
						<path class="st6" d="M1517.9,1007.8c6.2-3.6,18.2-5.2,26.5-3.5c3.8,0.9,6.2,2.3,7.1,3.8c0.5-2.4-2.1-4.7-7.4-5.9
							c-8.3-1.7-20.1-0.3-26.5,3.5c-3.5,2.1-4.5,4.2-3.5,6.1C1514.6,1010.4,1515.8,1009,1517.9,1007.8z"/>
					</g>
					<g>
						<path class="st4" d="M1146.1,971.8c-3.8,2.3-10.7,3.3-15.6,2.3c-4.8-1-5.7-3.6-2.1-5.9c3.8-2.3,10.7-3.3,15.6-2.3
							C1148.9,966.9,1149.8,969.5,1146.1,971.8z"/>
						<path class="st5" d="M1146.1,971.8c-3.8,2.3-10.7,3.3-15.6,2.3c-4.8-1-5.7-3.6-2.1-5.9c3.8-2.3,10.7-3.3,15.6-2.3
							C1148.9,966.9,1149.8,969.5,1146.1,971.8z"/>
						<path class="st6" d="M1128.6,969.4c3.8-2.3,10.7-3.3,15.6-2.3c2.3,0.5,3.6,1.2,4.2,2.3c0.3-1.6-1-2.8-4.3-3.5
							c-4.8-1-11.8,0-15.6,2.3c-2.1,1.2-2.6,2.6-2.1,3.6C1126.5,970.9,1127.4,970.2,1128.6,969.4z"/>
					</g>
					<g>
						<path class="st4" d="M1211.4,986c-4.8,2.8-13.9,4-20.3,2.6s-7.6-4.8-2.9-7.6c4.8-2.8,13.9-4,20.3-2.6
							C1214.9,979.8,1216.2,983.2,1211.4,986z"/>
						<path class="st5" d="M1211.4,986c-4.8,2.8-13.9,4-20.3,2.6s-7.6-4.8-2.9-7.6c4.8-2.8,13.9-4,20.3-2.6
							C1214.9,979.8,1216.2,983.2,1211.4,986z"/>
						<path class="st6" d="M1188.5,982.5c4.8-2.8,13.9-4,20.3-2.6c2.9,0.7,4.8,1.7,5.4,2.9c0.3-1.9-1.6-3.6-5.7-4.5
							c-6.4-1.4-15.4-0.2-20.3,2.6c-2.6,1.6-3.5,3.3-2.6,4.7C1185.9,984.6,1186.8,983.6,1188.5,982.5z"/>
					</g>
					<g>
						<path class="st4" d="M1266.1,991c-3.6,2.1-10.2,2.9-15.1,1.9c-4.7-1-5.7-3.6-2.1-5.7c3.6-2.1,10.2-2.9,15.1-1.9
							C1268.7,986.3,1269.6,988.9,1266.1,991z"/>
						<path class="st5" d="M1266.1,991c-3.6,2.1-10.2,2.9-15.1,1.9c-4.7-1-5.7-3.6-2.1-5.7c3.6-2.1,10.2-2.9,15.1-1.9
							C1268.7,986.3,1269.6,988.9,1266.1,991z"/>
						<path class="st6" d="M1249.1,988.6c3.6-2.1,10.2-2.9,15.1-1.9c2.3,0.5,3.6,1.2,4,2.3c0.3-1.4-1.2-2.8-4.2-3.3
							c-4.7-1-11.4-0.2-15.1,1.9c-1.9,1.2-2.6,2.4-1.9,3.5C1247.1,990,1247.8,989.3,1249.1,988.6z"/>
					</g>
					<g>
						<path class="st4" d="M1743,998.5c6.8,5,22.5,7.4,34.8,5.4c12.5-2.1,17-7.8,10-12.8c-6.8-5-22.5-7.4-34.8-5.4
							C1740.8,987.5,1736.3,993.4,1743,998.5z"/>
						<path class="st5" d="M1743,998.5c6.8,5,22.5,7.4,34.8,5.4c12.5-2.1,17-7.8,10-12.8c-6.8-5-22.5-7.4-34.8-5.4
							C1740.8,987.5,1736.3,993.4,1743,998.5z"/>
						<path class="st6" d="M1786.6,993.4c-6.8-5-22.5-7.4-34.8-5.4c-5.7,1-9.7,2.8-11.8,4.8c0.5-3.3,5.2-6.1,13.2-7.4
							c12.5-2.1,28.1,0.3,34.8,5.4c3.6,2.8,4,5.5,1.7,8.1C1789.9,997.1,1789.1,995.3,1786.6,993.4z"/>
					</g>
					<g>
						<path class="st4" d="M1983.7,987c3.1,2.3,10.4,3.5,16.1,2.4c5.7-1,7.8-3.6,4.7-5.9c-3.1-2.3-10.4-3.5-16.1-2.4
							C1982.7,982,1980.6,984.6,1983.7,987z"/>
						<path class="st5" d="M1983.7,987c3.1,2.3,10.4,3.5,16.1,2.4c5.7-1,7.8-3.6,4.7-5.9c-3.1-2.3-10.4-3.5-16.1-2.4
							C1982.7,982,1980.6,984.6,1983.7,987z"/>
						<path class="st6" d="M2003.8,984.8c-3.1-2.3-10.4-3.5-16.1-2.4c-2.6,0.5-4.5,1.2-5.4,2.3c0.2-1.6,2.4-2.8,6.1-3.5
							c5.7-1,13,0.2,16.1,2.4c1.7,1.2,1.9,2.6,0.7,3.8C2005.3,986.3,2004.8,985.5,2003.8,984.8z"/>
					</g>
					<g>
						<path class="st4" d="M1943.9,1011.4c4.8,3.5,15.8,5.2,24.6,3.8c8.8-1.6,11.9-5.5,7.1-9s-15.8-5.2-24.6-3.8
							C1942.1,1003.8,1939,1008,1943.9,1011.4z"/>
						<path class="st5" d="M1943.9,1011.4c4.8,3.5,15.8,5.2,24.6,3.8c8.8-1.6,11.9-5.5,7.1-9s-15.8-5.2-24.6-3.8
							C1942.1,1003.8,1939,1008,1943.9,1011.4z"/>
						<path class="st6" d="M1974.5,1008c-4.8-3.5-15.8-5.2-24.6-3.8c-4,0.7-6.9,1.9-8.3,3.5c0.3-2.3,3.6-4.3,9.4-5.4
							c8.8-1.6,19.7,0.2,24.6,3.8c2.6,1.9,2.8,4,1.2,5.7C1976.9,1010.6,1976.3,1009.4,1974.5,1008z"/>
					</g>
					<g>
						<path class="st4" d="M1756.9,1090.1c1.7,1.2,5.7,1.9,9,1.4c3.1-0.5,4.3-2.1,2.6-3.3c-1.7-1.2-5.7-1.9-9-1.4
							C1756.2,1087.3,1755,1088.8,1756.9,1090.1z"/>
						<path class="st5" d="M1756.9,1090.1c1.7,1.2,5.7,1.9,9,1.4c3.1-0.5,4.3-2.1,2.6-3.3c-1.7-1.2-5.7-1.9-9-1.4
							C1756.2,1087.3,1755,1088.8,1756.9,1090.1z"/>
						<path class="st6" d="M1767.9,1088.8c-1.7-1.2-5.7-1.9-9-1.4c-1.4,0.2-2.4,0.7-2.9,1.2c0.2-0.9,1.4-1.6,3.5-1.9
							c3.1-0.5,7.3,0,9,1.4c0.9,0.7,1,1.4,0.3,2.1C1768.8,1089.7,1768.6,1089.4,1767.9,1088.8z"/>
					</g>
					<g>
						<path class="st4" d="M1611.1,944.8c5.2,3.8,17,5.5,26.3,4c9.4-1.6,12.8-5.9,7.6-9.7c-5.2-3.8-17-5.5-26.3-4
							C1609.1,936.6,1605.9,941,1611.1,944.8z"/>
						<path class="st5" d="M1611.1,944.8c5.2,3.8,17,5.5,26.3,4c9.4-1.6,12.8-5.9,7.6-9.7c-5.2-3.8-17-5.5-26.3-4
							C1609.1,936.6,1605.9,941,1611.1,944.8z"/>
						<path class="st6" d="M1644,941.1c-5.2-3.8-17-5.5-26.3-4c-4.3,0.7-7.4,2.1-8.8,3.6c0.3-2.4,4-4.7,10-5.7
							c9.4-1.6,21.3,0.2,26.3,4c2.8,2.1,3.1,4.3,1.2,6.1C1646.6,943.7,1645.7,942.3,1644,941.1z"/>
					</g>
					<g>
						<path class="st4" d="M1932.6,1022.5c1.9,1.4,5.9,1.9,9.4,1.4c3.3-0.5,4.5-2.1,2.8-3.5c-1.9-1.4-5.9-1.9-9.4-1.4
							S1930.7,1021.1,1932.6,1022.5z"/>
						<path class="st5" d="M1932.6,1022.5c1.9,1.4,5.9,1.9,9.4,1.4c3.3-0.5,4.5-2.1,2.8-3.5c-1.9-1.4-5.9-1.9-9.4-1.4
							S1930.7,1021.1,1932.6,1022.5z"/>
						<path class="st6" d="M1944,1021.1c-1.9-1.4-5.9-1.9-9.4-1.4c-1.6,0.2-2.6,0.7-3.1,1.2c0.2-0.9,1.4-1.6,3.5-2.1
							c3.3-0.5,7.4,0,9.4,1.4c1,0.7,1,1.6,0.5,2.1C1945.1,1022.2,1944.7,1021.7,1944,1021.1z"/>
					</g>
					<g>
						<path class="st4" d="M1939.2,973.7c1.4,1,4.3,1.4,6.8,1c2.4-0.3,3.3-1.6,1.9-2.4c-1.4-1-4.3-1.4-6.8-1
							C1938.9,971.6,1938,972.8,1939.2,973.7z"/>
						<path class="st5" d="M1939.2,973.7c1.4,1,4.3,1.4,6.8,1c2.4-0.3,3.3-1.6,1.9-2.4c-1.4-1-4.3-1.4-6.8-1
							C1938.9,971.6,1938,972.8,1939.2,973.7z"/>
						<path class="st6" d="M1947.7,972.8c-1.4-1-4.3-1.4-6.8-1c-1,0.2-1.9,0.5-2.3,0.9c0.2-0.7,1-1.2,2.6-1.4c2.4-0.3,5.4,0,6.8,1
							c0.7,0.5,0.9,1,0.3,1.6C1948.4,973.5,1948.2,973.2,1947.7,972.8z"/>
					</g>
					<g>
						<path class="st4" d="M1630.8,1028.1c6.8,5,22.5,7.4,34.8,5.4c12.5-2.1,17-7.8,10-12.8c-6.8-5-22.5-7.4-34.8-5.4
							S1624,1023,1630.8,1028.1z"/>
						<path class="st5" d="M1630.8,1028.1c6.8,5,22.5,7.4,34.8,5.4c12.5-2.1,17-7.8,10-12.8c-6.8-5-22.5-7.4-34.8-5.4
							S1624,1023,1630.8,1028.1z"/>
						<path class="st6" d="M1674.4,1023.2c-6.8-5-22.5-7.4-34.8-5.4c-5.7,1-9.7,2.8-11.8,4.8c0.5-3.3,5.2-6.1,13.2-7.4
							c12.5-2.1,28.1,0.3,34.8,5.4c3.6,2.8,4,5.5,1.7,8.1C1677.7,1026.9,1676.9,1024.9,1674.4,1023.2z"/>
					</g>
					<g>
						<path class="st4" d="M1780.1,965.2c6.8,5,22.5,7.4,34.8,5.4c12.5-2.1,17-7.8,10-12.8c-6.8-5-22.5-7.4-34.8-5.4
							C1777.8,954.5,1773.3,960.2,1780.1,965.2z"/>
						<path class="st5" d="M1780.1,965.2c6.8,5,22.5,7.4,34.8,5.4c12.5-2.1,17-7.8,10-12.8c-6.8-5-22.5-7.4-34.8-5.4
							C1777.8,954.5,1773.3,960.2,1780.1,965.2z"/>
						<path class="st6" d="M1823.7,960.4c-6.8-5-22.5-7.4-34.8-5.4c-5.7,1-9.7,2.8-11.8,4.8c0.5-3.3,5.2-6.1,13.2-7.4
							c12.5-2.1,28.1,0.3,34.8,5.4c3.6,2.8,4,5.5,1.7,8.1C1827,964,1826.1,962.1,1823.7,960.4z"/>
					</g>
					<g>
						<path class="st4" d="M1820.6,1105.8c6.8,5,22.5,7.4,34.8,5.4c12.5-2.1,17-7.8,10-12.8c-6.8-5-22.5-7.4-34.8-5.4
							C1818.3,1095.1,1813.7,1100.8,1820.6,1105.8z"/>
						<path class="st5" d="M1820.6,1105.8c6.8,5,22.5,7.4,34.8,5.4c12.5-2.1,17-7.8,10-12.8c-6.8-5-22.5-7.4-34.8-5.4
							C1818.3,1095.1,1813.7,1100.8,1820.6,1105.8z"/>
						<path class="st6" d="M1864,1101c-6.8-5-22.5-7.4-34.8-5.4c-5.7,1-9.7,2.8-11.8,4.8c0.5-3.3,5.2-6.1,13.2-7.4
							c12.5-2.1,28.1,0.3,34.8,5.4c3.6,2.8,4,5.5,1.7,8.1C1867.5,1104.6,1866.5,1102.7,1864,1101z"/>
					</g>
					<g>
						<path class="st4" d="M1867.9,1051.3c7.1,1.7,15.9,1,19.6-1.6c3.8-2.6,1-6.1-6.1-7.8c-7.1-1.7-15.9-1-19.6,1.6
							S1860.8,1049.5,1867.9,1051.3z"/>
						<path class="st5" d="M1867.9,1051.3c7.1,1.7,15.9,1,19.6-1.6c3.8-2.6,1-6.1-6.1-7.8c-7.1-1.7-15.9-1-19.6,1.6
							S1860.8,1049.5,1867.9,1051.3z"/>
						<path class="st6" d="M1883.1,1043.6c-7.1-1.7-15.9-1-19.6,1.6c-1.7,1.2-2.1,2.6-1.2,3.8c-2.4-1.7-2.8-3.8-0.2-5.4
							c3.8-2.6,12.6-3.3,19.6-1.6c3.8,0.9,6.4,2.4,7.3,4C1887.6,1045,1885.5,1044.2,1883.1,1043.6z"/>
					</g>
					<g>
						<path class="st4" d="M1679.3,1096.6c7.1,1.7,15.9,1,19.6-1.6c3.8-2.6,1-6.1-6.1-7.8c-7.1-1.7-15.9-1-19.6,1.6
							C1669.4,1091.4,1672.2,1094.9,1679.3,1096.6z"/>
						<path class="st5" d="M1679.3,1096.6c7.1,1.7,15.9,1,19.6-1.6c3.8-2.6,1-6.1-6.1-7.8c-7.1-1.7-15.9-1-19.6,1.6
							C1669.4,1091.4,1672.2,1094.9,1679.3,1096.6z"/>
						<path class="st6" d="M1694.3,1088.8c-7.1-1.7-15.9-1-19.6,1.6c-1.7,1.2-2.1,2.6-1.2,3.8c-2.4-1.7-2.8-3.8-0.2-5.4
							c3.8-2.6,12.6-3.3,19.6-1.6c3.8,0.9,6.4,2.4,7.3,4C1698.8,1090.4,1696.9,1089.5,1694.3,1088.8z"/>
					</g>
					<g>
						<path class="st4" d="M2012.1,1047.3c5.4,1.4,12.1,0.9,15.1-1.2c2.9-1.9,0.9-4.7-4.5-5.9c-5.4-1.4-12.1-0.9-15.1,1.2
							C2004.7,1043.5,2006.6,1045.9,2012.1,1047.3z"/>
						<path class="st5" d="M2012.1,1047.3c5.4,1.4,12.1,0.9,15.1-1.2c2.9-1.9,0.9-4.7-4.5-5.9c-5.4-1.4-12.1-0.9-15.1,1.2
							C2004.7,1043.5,2006.6,1045.9,2012.1,1047.3z"/>
						<path class="st6" d="M2023.7,1041.4c-5.4-1.4-12.1-0.9-15.1,1.2c-1.4,0.9-1.6,1.9-1,2.9c-1.9-1.4-2.1-2.8-0.2-4.2
							c2.9-1.9,9.5-2.4,15.1-1.2c2.9,0.7,4.8,1.7,5.5,2.9C2027,1042.4,2025.6,1041.7,2023.7,1041.4z"/>
					</g>
					<g>
						<path class="st4" d="M1940.9,1079.3c7.1,1.7,15.9,1,19.6-1.6c3.8-2.6,1-6.1-6.1-7.8s-15.9-1-19.6,1.6
							C1931.1,1074.1,1933.8,1077.6,1940.9,1079.3z"/>
						<path class="st5" d="M1940.9,1079.3c7.1,1.7,15.9,1,19.6-1.6c3.8-2.6,1-6.1-6.1-7.8s-15.9-1-19.6,1.6
							C1931.1,1074.1,1933.8,1077.6,1940.9,1079.3z"/>
						<path class="st6" d="M1956.2,1071.7c-7.1-1.7-15.9-1-19.6,1.6c-1.7,1.2-2.1,2.6-1.2,3.8c-2.4-1.7-2.8-3.8-0.2-5.4
							c3.8-2.6,12.6-3.3,19.6-1.6c3.8,0.9,6.4,2.4,7.3,4C1960.5,1073.1,1958.6,1072.4,1956.2,1071.7z"/>
					</g>
					<g>
						<path class="st4" d="M1884.5,964.7c3.1,1.6,8.8,2.1,12.6,1c3.8-1,4.3-3.1,1.2-4.8c-3.1-1.6-8.8-2.1-12.6-1
							C1881.9,960.9,1881.4,963,1884.5,964.7z"/>
						<path class="st5" d="M1884.5,964.7c3.1,1.6,8.8,2.1,12.6,1c3.8-1,4.3-3.1,1.2-4.8c-3.1-1.6-8.8-2.1-12.6-1
							C1881.9,960.9,1881.4,963,1884.5,964.7z"/>
						<path class="st6" d="M1898.5,961.7c-3.1-1.6-8.8-2.1-12.6-1c-1.7,0.5-2.8,1.2-3.1,1.9c-0.3-1.2,0.7-2.3,3.1-2.9
							c3.8-1,9.5-0.7,12.6,1c1.7,0.9,2.3,1.9,1.9,2.8C1900.2,963,1899.5,962.3,1898.5,961.7z"/>
					</g>
					<g>
						<path class="st4" d="M1688.6,1050.1c2.9,1.6,8.5,1.9,12.1,0.9s4.2-3.1,1.2-4.5c-2.9-1.6-8.5-1.9-12.1-0.9
							S1685.5,1048.5,1688.6,1050.1z"/>
						<path class="st5" d="M1688.6,1050.1c2.9,1.6,8.5,1.9,12.1,0.9s4.2-3.1,1.2-4.5c-2.9-1.6-8.5-1.9-12.1-0.9
							S1685.5,1048.5,1688.6,1050.1z"/>
						<path class="st6" d="M1701.8,1047.5c-2.9-1.6-8.5-1.9-12.1-0.9c-1.7,0.5-2.8,1.2-2.9,1.9c-0.3-1,0.7-2.3,3.1-2.8
							c3.6-1,9.2-0.5,12.1,0.9c1.6,0.9,2.3,1.7,1.9,2.6C1703.5,1048.5,1703,1048,1701.8,1047.5z"/>
					</g>
					<g>
						<path class="st4" d="M1699.7,952.6c1.4,0.7,4,0.9,5.7,0.5c1.7-0.5,1.9-1.4,0.5-2.3c-1.4-0.7-4-0.9-5.7-0.5
							C1698.5,950.8,1698.3,951.9,1699.7,952.6z"/>
						<path class="st5" d="M1699.7,952.6c1.4,0.7,4,0.9,5.7,0.5c1.7-0.5,1.9-1.4,0.5-2.3c-1.4-0.7-4-0.9-5.7-0.5
							C1698.5,950.8,1698.3,951.9,1699.7,952.6z"/>
						<path class="st6" d="M1705.9,951.2c-1.4-0.7-4-0.9-5.7-0.5c-0.9,0.2-1.2,0.5-1.4,0.9c-0.2-0.5,0.3-1,1.4-1.4
							c1.7-0.5,4.3-0.3,5.7,0.5c0.7,0.3,1,0.9,0.9,1.2C1706.8,951.9,1706.5,951.5,1705.9,951.2z"/>
					</g>
					<g>
						<path class="st4" d="M1845.3,950.5c1.2,0.5,3.1,0.7,4.5,0.3c1.4-0.3,1.6-1.2,0.5-1.7c-1.2-0.5-3.1-0.7-4.5-0.3
							C1844.3,949.1,1844.1,949.8,1845.3,950.5z"/>
						<path class="st5" d="M1845.3,950.5c1.2,0.5,3.1,0.7,4.5,0.3c1.4-0.3,1.6-1.2,0.5-1.7c-1.2-0.5-3.1-0.7-4.5-0.3
							C1844.3,949.1,1844.1,949.8,1845.3,950.5z"/>
						<path class="st6" d="M1850.4,949.4c-1.2-0.5-3.1-0.7-4.5-0.3c-0.7,0.2-1,0.3-1.2,0.7c-0.2-0.3,0.2-0.9,1.2-1
							c1.4-0.3,3.5-0.2,4.5,0.3c0.7,0.3,0.9,0.7,0.7,1C1850.9,949.8,1850.7,949.6,1850.4,949.4z"/>
					</g>
					<g>
						<path class="st4" d="M1679.8,982c5.4,2.8,15.2,3.5,21.8,1.7c6.6-1.7,7.4-5.5,2.1-8.1c-5.4-2.6-15.2-3.5-21.8-1.7
							C1675.5,975.6,1674.4,979.2,1679.8,982z"/>
						<path class="st5" d="M1679.8,982c5.4,2.8,15.2,3.5,21.8,1.7c6.6-1.7,7.4-5.5,2.1-8.1c-5.4-2.6-15.2-3.5-21.8-1.7
							C1675.5,975.6,1674.4,979.2,1679.8,982z"/>
						<path class="st6" d="M1703.7,977.2c-5.4-2.8-15.2-3.5-21.8-1.7c-2.9,0.9-4.8,2.1-5.4,3.5c-0.7-1.9,1.2-4,5.5-5
							c6.6-1.7,16.3-1,21.8,1.7c2.9,1.6,4,3.3,3.3,4.8C1706.6,979.2,1705.6,978,1703.7,977.2z"/>
					</g>
					<g>
						<path class="st4" d="M1569.7,978.4c3.1,1.6,8.7,2.1,12.5,1c3.8-1,4.3-3.1,1.2-4.7c-3.1-1.6-8.7-2.1-12.5-1
							C1567.1,974.7,1566.6,976.8,1569.7,978.4z"/>
						<path class="st5" d="M1569.7,978.4c3.1,1.6,8.7,2.1,12.5,1c3.8-1,4.3-3.1,1.2-4.7c-3.1-1.6-8.7-2.1-12.5-1
							C1567.1,974.7,1566.6,976.8,1569.7,978.4z"/>
						<path class="st6" d="M1583.3,975.6c-3.1-1.6-8.7-2.1-12.5-1c-1.7,0.5-2.8,1.2-3.1,1.9c-0.3-1.2,0.7-2.3,3.1-2.9
							c3.8-1,9.4-0.5,12.5,1c1.7,0.9,2.3,1.9,1.9,2.8C1585.1,976.8,1584.4,976.1,1583.3,975.6z"/>
					</g>
					<g>
						<path class="st4" d="M1484.6,980.3c2.4,1.2,6.8,1.6,9.7,0.7c2.9-0.9,3.3-2.4,0.9-3.6c-2.4-1.2-6.8-1.6-9.7-0.7
							C1482.6,977.5,1482.4,979.1,1484.6,980.3z"/>
						<path class="st5" d="M1484.6,980.3c2.4,1.2,6.8,1.6,9.7,0.7c2.9-0.9,3.3-2.4,0.9-3.6c-2.4-1.2-6.8-1.6-9.7-0.7
							C1482.6,977.5,1482.4,979.1,1484.6,980.3z"/>
						<path class="st6" d="M1495.2,978c-2.4-1.2-6.8-1.6-9.7-0.7c-1.4,0.3-2.1,0.9-2.4,1.6c-0.3-0.9,0.5-1.7,2.4-2.3
							c2.9-0.9,7.3-0.5,9.7,0.7c1.4,0.7,1.7,1.4,1.6,2.1C1496.6,978.9,1496.1,978.5,1495.2,978z"/>
					</g>
					<g>
						<path class="st4" d="M1626.8,980.6c2.9,1.6,8.5,1.9,12.1,0.9s4.2-3.1,1.2-4.5c-2.9-1.6-8.5-1.9-12.1-0.9
							S1623.9,979.1,1626.8,980.6z"/>
						<path class="st5" d="M1626.8,980.6c2.9,1.6,8.5,1.9,12.1,0.9s4.2-3.1,1.2-4.5c-2.9-1.6-8.5-1.9-12.1-0.9
							S1623.9,979.1,1626.8,980.6z"/>
						<path class="st6" d="M1640.1,977.8c-2.9-1.6-8.5-1.9-12.1-0.9c-1.7,0.5-2.8,1.2-2.9,1.9c-0.3-1,0.7-2.3,3.1-2.8
							c3.6-1,9.2-0.5,12.1,0.9c1.6,0.9,2.3,1.7,1.9,2.6C1641.9,979.1,1641.2,978.4,1640.1,977.8z"/>
					</g>
					<g>
						<path class="st4" d="M1749.1,944.9c2.9,1.6,8.5,1.9,12.1,0.9s4.2-3.1,1.2-4.5c-2.9-1.6-8.5-1.9-12.1-0.9
							C1746.5,941.3,1745.9,943.4,1749.1,944.9z"/>
						<path class="st5" d="M1749.1,944.9c2.9,1.6,8.5,1.9,12.1,0.9s4.2-3.1,1.2-4.5c-2.9-1.6-8.5-1.9-12.1-0.9
							C1746.5,941.3,1745.9,943.4,1749.1,944.9z"/>
						<path class="st6" d="M1762.2,942.2c-2.9-1.6-8.5-1.9-12.1-0.9c-1.7,0.5-2.8,1.2-2.9,1.9c-0.3-1,0.7-2.3,3.1-2.8
							c3.6-1,9.2-0.5,12.1,0.9c1.6,0.9,2.3,1.7,1.9,2.6C1764,943.4,1763.3,942.7,1762.2,942.2z"/>
					</g>
					<g>
						<path class="st4" d="M1610,1063c2.9,1.6,8.5,1.9,12.1,0.9s4.2-3.1,1.2-4.5c-2.9-1.6-8.5-1.9-12.1-0.9
							C1607.6,1059.4,1607.1,1061.5,1610,1063z"/>
						<path class="st5" d="M1610,1063c2.9,1.6,8.5,1.9,12.1,0.9s4.2-3.1,1.2-4.5c-2.9-1.6-8.5-1.9-12.1-0.9
							C1607.6,1059.4,1607.1,1061.5,1610,1063z"/>
						<path class="st6" d="M1623.3,1060.3c-2.9-1.6-8.5-1.9-12.1-0.9c-1.7,0.5-2.8,1.2-2.9,1.9c-0.3-1,0.7-2.3,3.1-2.8
							c3.6-1,9.2-0.5,12.1,0.9c1.6,0.9,2.3,1.7,1.9,2.6C1625.1,1061.5,1624.4,1060.8,1623.3,1060.3z"/>
					</g>
					<g>
						<path class="st4" d="M1754.4,1041.4c6.8,3.3,18.7,4.3,26.8,2.1c8.1-2.3,9.2-6.8,2.6-10c-6.8-3.3-18.7-4.3-26.8-2.1
							C1748.9,1033.4,1747.9,1037.9,1754.4,1041.4z"/>
						<path class="st5" d="M1754.4,1041.4c6.8,3.3,18.7,4.3,26.8,2.1c8.1-2.3,9.2-6.8,2.6-10c-6.8-3.3-18.7-4.3-26.8-2.1
							C1748.9,1033.4,1747.9,1037.9,1754.4,1041.4z"/>
						<path class="st6" d="M1783.7,1035.3c-6.8-3.3-18.7-4.3-26.8-2.1c-3.8,1-5.9,2.6-6.6,4.2c-0.9-2.4,1.6-4.8,6.8-6.2
							c8.1-2.3,20.1-1.2,26.8,2.1c3.6,1.7,4.8,4,4.2,5.9C1787.5,1037.9,1786.1,1036.5,1783.7,1035.3z"/>
					</g>
					<g>
						<path class="st4" d="M1956.9,968.3c4,2.1,11.1,2.8,15.8,1.4c4.7-1.2,5.4-4,1.4-6.1s-11.1-2.8-15.8-1.4
							S1952.9,966.2,1956.9,968.3z"/>
						<path class="st5" d="M1956.9,968.3c4,2.1,11.1,2.8,15.8,1.4c4.7-1.2,5.4-4,1.4-6.1s-11.1-2.8-15.8-1.4
							S1952.9,966.2,1956.9,968.3z"/>
						<path class="st6" d="M1974,965c-4-2.1-11.1-2.8-15.8-1.4c-2.3,0.5-3.5,1.4-3.8,2.4c-0.5-1.4,0.9-2.9,3.8-3.6
							c4.7-1.2,11.8-0.7,15.8,1.4c2.1,1,2.9,2.4,2.4,3.5C1976.3,966.6,1975.4,965.7,1974,965z"/>
					</g>
					<g>
						<path class="st4" d="M1893.5,985.8c5,2.6,14.2,3.3,20.4,1.6c6.2-1.7,7.1-5.2,1.9-7.8c-5-2.6-14.2-3.3-20.4-1.6
							C1889.2,979.8,1888.3,983.2,1893.5,985.8z"/>
						<path class="st5" d="M1893.5,985.8c5,2.6,14.2,3.3,20.4,1.6c6.2-1.7,7.1-5.2,1.9-7.8c-5-2.6-14.2-3.3-20.4-1.6
							C1889.2,979.8,1888.3,983.2,1893.5,985.8z"/>
						<path class="st6" d="M1915.8,981.3c-5-2.6-14.2-3.3-20.4-1.6c-2.8,0.9-4.5,1.9-5,3.1c-0.7-1.9,1.2-3.6,5.2-4.8
							c6.2-1.7,15.4-1,20.4,1.6c2.8,1.4,3.8,2.9,3.1,4.5C1918.6,983.2,1917.6,982.2,1915.8,981.3z"/>
					</g>
					<g>
						<path class="st4" d="M1839.5,993.6c3.8,1.9,10.6,2.4,15.2,1.2c4.7-1.2,5.2-3.8,1.4-5.7c-3.8-1.9-10.6-2.4-15.2-1.2
							S1835.6,991.7,1839.5,993.6z"/>
						<path class="st5" d="M1839.5,993.6c3.8,1.9,10.6,2.4,15.2,1.2c4.7-1.2,5.2-3.8,1.4-5.7c-3.8-1.9-10.6-2.4-15.2-1.2
							S1835.6,991.7,1839.5,993.6z"/>
						<path class="st6" d="M1856.1,990.3c-3.8-1.9-10.6-2.4-15.2-1.2c-2.1,0.5-3.5,1.4-3.8,2.4c-0.5-1.4,0.9-2.8,3.8-3.6
							c4.7-1.2,11.4-0.7,15.2,1.2c2.1,1,2.8,2.3,2.3,3.3C1858.3,991.7,1857.5,990.8,1856.1,990.3z"/>
					</g>
				</g>
			</g>
		</g>
		<g>
			<g>
				<defs>
					<path id="SVGID_5_" d="M2170.2,1116.9c-61.5-48.5-139.9-91.1-233.8-124.8c-375.8-134.9-864.8-77.9-1121.9,124.8H2170.2z"/>
				</defs>
				<clipPath id="SVGID_6_">
					<use xlink:href="#SVGID_5_"  style="overflow:visible;"/>
				</clipPath>
				<path class="st7" d="M2139.4,1099.6h7.8c-7.6-5.5-15.6-10.9-23.7-16.3C2129.3,1088.7,2134.7,1094,2139.4,1099.6z"/>
			</g>
		</g>
	</g>
</g>
<g id="blAstronaut">
	<ellipse class="st8" cx="1530.4" cy="951" rx="130" ry="11.1"/>
	<path class="st9" d="M1600.3,651.4c0,0,3.3-8.8,2.1-10.7c0,0,6.4-3.1,7.3-4.2c0.9-1,5.2-1,7.8-1.4c2.6-0.3,2.8,1,1.9,2.8
		c-0.9,1.7-6.2,4.8-6.2,4.8s-1.7,2.4-2.8,2.9l12.8,13c0,0-11.4,6.1-13,5.5C1608.1,663.6,1600,651.3,1600.3,651.4z"/>
	<g id="XMLID_4_">
		<g>
			<path class="st10" d="M1552.9,941.5l0.2,7.1c-30,5.7-43.5-5-43.5-5l0.2-11.8l10.6,2.1L1552.9,941.5z"/>
		</g>
	</g>
	<g id="XMLID_1_">
		<g>
			<path class="st11" d="M1463.9,752l50.6-7.1c0,0-11.9,18.9-24.4,21.6C1477.5,769.4,1466.3,758.4,1463.9,752z"/>
		</g>
	</g>
	<g id="XMLID_3_">
		<g>
			<path class="st11" d="M1531.6,725.5V751c0,0-14,9-24.4,3.6c-5.7-2.9-11.8-4-16.1-4.3c-4.5,0.3-10.6,1.4-16.1,4.3
				c-10.4,5.4-24.4-3.6-24.4-3.6v-25.5h33.9h12.8H1531.6z"/>
		</g>
	</g>
	<g>
		<path class="st9" d="M1534.5,624.2H1454c-5.5,0-10,4.5-10,10v49.5c0,5.5,4.5,10,10,10h80.5c5.5,0,10-4.5,10-10v-49.5
			C1544.4,628.8,1540.1,624.2,1534.5,624.2z"/>
		<path class="st12" d="M1530,632.9h-71.5c-2.4,0-4.5,2.1-4.5,4.5v46.8c0,2.4,2.1,4.5,4.5,4.5h71.5c2.4,0,4.5-2.1,4.5-4.5v-46.8
			C1534.5,635,1532.4,632.9,1530,632.9z"/>
	</g>
	<g>
		<path class="st13" d="M1535.9,655.6l0.7-5.9l28.2,25.1c0,0,7.3,4.2-2.3,28.4l-24.1-12.8L1535.9,655.6z"/>
		<path class="st11" d="M1528.5,646.6c0,0,4.5-1.7,8.1,3.1c0,0,6.9,17,1.9,40.7c0,0-3.1,4.5-6.1,5
			C1532.4,695.4,1537.3,664.2,1528.5,646.6z"/>
		<path class="st9" d="M1568.3,680.7l0.3-6.6c0,0,22.5-10.4,30.3-21.1l7.1,3.8l1.6,9.7c0,0-30.8,31.9-39.3,38.4V680.7z"/>
		<path class="st11" d="M1568.6,674.1c0,0,10.6,4.8-0.3,30.8c0,0-1.7,5.9-5.7-1.7c0,0,7.3-11.6,2.3-28.4c0,0,0.2-1.2,1.4-1.2
			S1568.6,674.1,1568.6,674.1z"/>
		<path class="st11" d="M1598.9,653c0,0,5.5,2.4,8.7,13.5c0,0,0.7,0.9,3.1,0.9s-0.9-9.2-4.5-13
			C1602.7,650.7,1599.3,647.1,1598.9,653z"/>
	</g>
	<g>
		<path class="st13" d="M1456.1,661.1l1.6,23.2l-26.8,19.7c0,0-0.7,2.6-24.9-7.6l42.8-47.6L1456.1,661.1z"/>
		<path class="st11" d="M1457.6,646.2c0,0-4.8-2.1-9,2.8c0,0-8.3,16.6-4.2,40.5c0,0,3.3,4.7,6.4,5.4
			C1450.9,694.7,1447.1,663.4,1457.6,646.2z"/>
	</g>
	<path class="st9" d="M1536.2,668.8c-1.9-21.1-8.1-22.7-8.1-22.7h-71.7c0,0-6.2,1.6-8.1,22.7c-0.7,7.6,0.5,56.6,3.1,60.3
		c2.8,3.6,7.3,8.1,19,12.3c9.9,3.5,19,3.6,21.8,3.6s11.9-0.2,21.8-3.6c11.8-4.2,16.3-8.7,19-12.3
		C1535.7,725.2,1536.9,676.4,1536.2,668.8z"/>
	<path class="st11" d="M1470.8,644l-6.9,0.5l-7.1,1.6c0,0,30.1,25.1,69.3,0l-5.5-1.6l-23-0.5H1470.8z"/>
	<path class="st14" d="M1466.8,632l-2.8,3.3v9.4c0,0,25.5,13.5,56.5,0v-13.9L1466.8,632z"/>
	<path class="st9" d="M1524.8,632.7c4-6.2,6.1-13.9,5.7-21.8c-0.9-19.6-16.6-35.5-36-36.7c-22.3-1.4-40.9,16.3-40.9,38.4
		c0,7.4,2.1,14.4,5.7,20.3c1.6,2.6,4,4.3,6.9,5.2l2.8,0.7c15.1,3.8,30.8,3.8,45.9,0l2.8-0.7C1520.8,637.1,1523.3,635.2,1524.8,632.7
		z"/>
	<g id="XMLID_2_">
		<g>
			<path class="st11" d="M1492.1,579.2c17.7,0.2,32,14.4,32,32s-14.4,23.9-32,23.9c-17.7,0-32-6.2-32-23.9
				S1474.4,579.2,1492.1,579.2z"/>
		</g>
	</g>
	<path class="st10" d="M1520.3,612.6c0,15.6-12.6,21.1-28.2,21.1s-28.2-5.5-28.2-21.1s12.6-28.2,28.2-28.2
		S1520.3,597.1,1520.3,612.6z"/>
	
		<ellipse transform="matrix(0.4643 -0.8857 0.8857 0.4643 261.9779 1632.1792)" class="st15" cx="1480.2" cy="599.5" rx="5.5" ry="4.8"/>
	
		<ellipse transform="matrix(0.4644 -0.8856 0.8856 0.4644 252.7028 1631.1979)" class="st15" cx="1475" cy="606.7" rx="1.6" ry="1.4"/>
	<g>
		<path class="st9" d="M1459.4,610.4c0,6.4-1.2,11.3-2.6,10.7c-1.2-0.5-2.3-5.2-2.3-10.7s0.9-10.2,2.3-10.7S1459.4,604,1459.4,610.4
			z"/>
		<polygon class="st9" points="1452.4,601.9 1456.8,599.7 1456.8,621.3 1452.4,618.9 		"/>
		<path class="st10" d="M1454.7,610.4c0,5-1.2,8.8-2.6,8.5c-1.2-0.3-2.3-4.2-2.3-8.5s1-8.1,2.3-8.5
			C1453.7,601.7,1454.7,605.4,1454.7,610.4z"/>
		<path class="st9" d="M1450.5,610.4c0,2.8-0.2,5-2.1,4.8c-1.7-0.2-2.9-2.3-2.9-4.8c0-2.4,1.2-4.7,2.9-4.8
			C1450.2,605.5,1450.5,607.6,1450.5,610.4z"/>
	</g>
	<path class="st9" d="M1450.5,750.7c0,0-5.5,44.8,1.4,83.3c0,0,22.3,4.2,29.6-2.8c0,0,8.5-41.9,10.9-61.5
		C1492.4,769.7,1465.9,743.9,1450.5,750.7z"/>
	<g>
		<path class="st9" d="M1526,610.4c0,6.4,1.2,11.3,2.6,10.7c1.2-0.5,2.3-5.2,2.3-10.7s-0.9-10.2-2.3-10.7
			C1527.2,599.1,1526,604,1526,610.4z"/>
		<polygon class="st9" points="1533,601.9 1528.6,599.7 1528.6,621.3 1533,618.9 		"/>
		<path class="st10" d="M1530.7,610.4c0,5,1.2,8.8,2.6,8.5c1.2-0.3,2.3-4.2,2.3-8.5s-1-8.1-2.3-8.5
			C1531.7,601.7,1530.7,605.4,1530.7,610.4z"/>
		<path class="st9" d="M1533.3,610.4c0,2.8,0.5,5,2.3,4.8c1.7-0.2,2.9-2.3,2.9-4.8c0-2.4-1.2-4.7-2.9-4.8
			C1533.8,605.5,1533.3,607.6,1533.3,610.4z"/>
	</g>
	<path class="st16" d="M1515.6,696.8H1476c-4,0-7.1-3.1-7.1-7.1v-12.3c0-4,3.1-7.1,7.1-7.1h39.7c4,0,7.1,3.1,7.1,7.1v12.3
		C1522.7,693.5,1519.5,696.8,1515.6,696.8z"/>
	<path class="st10" d="M1516,698.7h-41c-2.4,0-4.3-1.9-4.3-4.3v-15.8c0-2.4,1.9-4.3,4.3-4.3h41c2.4,0,4.3,1.9,4.3,4.3v15.8
		C1520.3,696.8,1518.4,698.7,1516,698.7z"/>
	<path class="st13" d="M1495.6,694h-17.3c-1,0-1.9-0.9-1.9-1.9v-6.6c0-1,0.9-1.9,1.9-1.9h17.3c1,0,1.9,0.9,1.9,1.9v6.6
		C1497.3,693.2,1496.6,694,1495.6,694z"/>
	<path class="st11" d="M1515.1,686.4h-5.5c-0.9,0-1.6-0.7-1.6-1.6l0,0c0-0.9,0.7-1.6,1.6-1.6h5.5c0.9,0,1.6,0.7,1.6,1.6l0,0
		C1516.5,685.9,1515.8,686.4,1515.1,686.4z"/>
	<path class="st11" d="M1515.1,691.6h-5.5c-0.9,0-1.6-0.7-1.6-1.6l0,0c0-0.9,0.7-1.6,1.6-1.6h5.5c0.9,0,1.6,0.7,1.6,1.6l0,0
		C1516.5,690.9,1515.8,691.6,1515.1,691.6z"/>
	<circle class="st11" cx="1476.3" cy="677.9" r="0.9"/>
	<circle class="st11" cx="1480.5" cy="677.9" r="0.9"/>
	<circle class="st11" cx="1484.5" cy="677.9" r="0.9"/>
	<path class="st9" d="M1534.3,750.7c0,0,5.5,44.8-1.4,83.3c0,0-22.3,4.2-29.6-2.8c0,0-8.5-41.9-10.9-61.5
		C1492.6,769.7,1519.1,743.9,1534.3,750.7z"/>
	<path class="st11" d="M1492.6,769.7c1,0,27.9-19.2,41.7-19.2c0,0,5.2-7.4-1.4-7.4c0,0-31.3,5.2-42.9,23.2
		C1490.2,766.4,1487.6,769.4,1492.6,769.7z"/>
	<path class="st11" d="M1491.7,769.7c-1,0-27.9-19.2-41.7-19.2c0,0-5.2-7.4,1.4-7.4c0,0,31.3,5.2,42.9,23.2
		C1494.2,766.4,1496.8,769.4,1491.7,769.7z"/>
	<path class="st11" d="M1503.5,831.2c0,0,21.5,3.6,30.8-2.4c0,0,2.6,1.6-1.4,5.2c0,0-18,7.1-29.6,0.7v-3.5H1503.5z"/>
	<path class="st11" d="M1503.5,834.6c0,0,11.1,2.8,29.6-0.7c0,0,4,1.7,0,5.4c0,0-18,4.8-29.6-1.6V834.6z"/>
	<path class="st9" d="M1543.9,928.1c-10.9-4.2-11.6-6.4-11.6-6.4l-1.2-12.3c0.7-15.6,1.9-48.8,0.3-68.2h-28.1
		c0,37.2,0.9,23.5,2.8,41c1.7,16.6,3.5,25.3,3.6,39.3l0,0c-0.2,2.9-0.3,6.6,0,10.2c0.9,10.2,12.3,13,23.7,13.9
		c11.4,0.9,19.4-1.2,19.4-1.2S1554.8,932.3,1543.9,928.1z"/>
	<path class="st11" d="M1503.5,836.2c0,0,11.1,6.4,29.6,2.9c0,0,4,1.7,0,5.4c0,0-18,3.1-29.6-3.3V836.2z"/>
	<path class="st11" d="M1503.5,870.5c0,0,18.5,1.2,28.7,0c0,0,2.8,3.3-0.2,6.4c0,0-24.9,1.6-28.6-2.6
		C1503.5,874.3,1501.1,872.9,1503.5,870.5z"/>
	<path class="st11" d="M1533.5,923.1c0,0,3.5-1.9,4.7,2.4c0,0-19.6,1.6-18.9,16.1c0,0-4.7,0.2-5.7-2.9
		C1513.6,938.9,1514.4,924.9,1533.5,923.1z"/>
	<path class="st11" d="M1513.4,939.9c0,0,1.2-11.1,20.1-16.6c0,0,1-0.9,0.5-3.1c-0.5-1.9-3.3-1.9-3.3-1.9s-19.9,3.8-19.7,17.3
		L1513.4,939.9z"/>
	<g id="XMLID_5_">
		<g>
			<path class="st10" d="M1475.1,931.8l0.2,11.8c0,0-13.5,13.3-43.5,7.4l0.2-4.5l32.6-12.6L1475.1,931.8z"/>
		</g>
	</g>
	<path class="st9" d="M1478.8,882.3c1.9-17.7,2.8-4,2.8-41h-28.1c-1.6,19.6-0.3,52.6,0.3,68.2l-1.2,12.3c0,0-0.9,2.1-11.6,6.4
		c-10.9,4.2-9,18.4-9,18.4s8.1,0.9,19.4,0c11.4-0.9,22.7-4.5,23.7-14.7c0.3-3.8,0.2-7.3,0-10.2l0,0
		C1475.5,907.5,1477,898.9,1478.8,882.3z"/>
	<path class="st11" d="M1481.5,831.2c0,0-21.5,3.6-30.8-2.4c0,0-2.6,1.6,1.4,5.2c0,0,18,7.1,29.6,0.7v-3.5H1481.5z"/>
	<path class="st11" d="M1481.5,834.6c0,0-11.1,2.8-29.6-0.7c0,0-4,1.7,0,5.4c0,0,18,4.8,29.6-1.6V834.6z"/>
	<path class="st11" d="M1481.5,836.2c0,0-11.1,6.4-29.6,2.9c0,0-4,1.7,0,5.4c0,0,18,3.1,29.6-3.3V836.2z"/>
	<path class="st11" d="M1481.5,870.5c0,0-18.5,1.2-28.7,0c0,0-2.8,3.3,0.2,6.4c0,0,24.9,1.6,28.6-2.6
		C1481.5,874.3,1484,872.9,1481.5,870.5z"/>
	<path class="st11" d="M1451.6,923.1c0,0-3.5-1.9-4.7,2.4c0,0,19.6,1.6,18.9,16.1c0,0,4.7,0.2,5.7-2.9
		C1471.5,938.9,1470.6,924.9,1451.6,923.1z"/>
	<path class="st11" d="M1471.7,939.9c0,0-1.2-11.1-20.1-16.6c0,0-1-0.9-0.5-3.1c0.5-1.9,3.3-1.9,3.3-1.9s19.9,3.8,19.7,17.3
		L1471.7,939.9z"/>
	<path class="st9" d="M1410.7,691.6c14.5,3.1,19.4,15.6,19.4,15.6s7.4,21.6,15.2,32.9l-5.9,6.2l-9.7-1.2c0,0-21.5-38.8-25.1-49.5
		C1404.8,695.8,1407.2,690.7,1410.7,691.6z"/>
	<path class="st17" d="M1459.9,751c-6.1-4.5-9.9-11.4-9.9-11.4s-0.7-3.8,0.2-5.9c-4-0.3-7.1,3.1-7.1,3.1l-12.8,8.3
		c0,0,3.6,8.7,9.2,15.4c5.5,6.8,10.2,5,8.7,3.3c-1.6-1.7-4.7-7.3-4.7-7.3s5.9,7.1,8.8,8.3s4.2,0.7,2.9-2.4c-0.2-0.7-5.4-7.1-5.9-7.8
		c2.3,2.3,8.7,9.2,10.6,8.5c5-1.6-2.8-8.1-7.1-12.5c1.9,1.7,6.6,6.2,8.5,6.6C1464.2,757.9,1465.9,755.5,1459.9,751z"/>
	<path class="st11" d="M1430.6,706.8c0,0-5.5-9.5-25.8-11.1c0,0-4.5-4.3,4.3-4.7c0,0,11.4-1.7,22.9,11.8c0,0,0.9,0.7,0.5,1.9
		C1431.8,705.8,1430.6,706.8,1430.6,706.8z"/>
	<path class="st11" d="M1442.4,732.6c0,0-2.4,6.1-13.5,9.5c0,0-0.9,0.7-0.9,3.5s9.2-1,13-4.8
		C1444.6,736.8,1448.3,733.2,1442.4,732.6z"/>
	<g id="Flag">
		<g id="FlagTop">
			<path class="st11" d="M1613,494.9c0,0,71.2-28.1,87.4-8.8c16.3,19.2,76.4,3.6,76.4,3.6v94c0,0-92.8,20.6-92.3,0
				c0.3-17-69.4,2.9-69.4,2.9L1613,494.9z"/>
			<path class="st9" d="M1708,583.2c-8.5,0-12.5-0.9-14.2-1.6c-0.3-3.1-1.7-6.1-4-8.3c-4.2-4.2-10.6-6.1-20.3-6.1
				c-13.9,0-33.1,4-45.4,7.1l-1.6-72.9c11.8-4.2,37.9-12.5,56.6-12.5c10,0,13,2.6,13.7,3.3c7.4,8.7,20.3,12.8,39.3,13
				c11.9,0.2,24.8-1.7,34.8-3.6v74.3C1754.1,578.4,1727.2,583.2,1708,583.2z"/>
		</g>
		<rect x="1613" y="489.2" class="st12" width="4.8" height="461"/>
		<rect x="1611.7" y="494.2" class="st9" width="9.2" height="3.5"/>
		<rect x="1611.7" y="582.7" class="st9" width="9.2" height="3.5"/>
	</g>
	<g>
		<path class="st17" d="M1610.7,649c-0.2,0,2.9-3.1,2.9-3.1s4.2-2.9,5-3.1c0.9-0.2,3.3-0.5,3.5-0.5s2.8,1.6,2.9,2.1
			c0.2,0.5-1.2,2.9-1.2,2.9s-5.4,1-7.4,1.9c-2.1,1-3.5,1.9-4.2,1.6C1611.2,650.6,1610.7,649,1610.7,649z"/>
		<path class="st17" d="M1613.5,653c0,0-1-1.2-0.2-2.3c0.9-1,3.1-2.1,5.9-2.8c2.6-0.7,4-1.2,5.2-0.5s1.9,2.9,1.2,3.8
			c-0.7,0.9-2.4,1-6.4,1.7C1615.4,653.5,1614.2,654,1613.5,653z"/>
		<path class="st17" d="M1615.4,654.7c0-1,0.2-0.9,2.8-1.6c2.6-0.7,5.7-2.3,6.9-1.4c1.2,0.9,1.7,3.1,0.7,3.6
			c-0.9,0.5-4.5,0.9-6.4,1.4c-2.1,0.5-3.3,0.7-3.8,0C1615.2,655.9,1615.6,655.4,1615.4,654.7z"/>
		<path class="st17" d="M1616.6,657.5c0.2-0.9,0.3-0.9,2.8-0.9s5.5-0.9,6.4,0.2s0.9,3.1-0.2,3.3c-0.9,0.2-4.2-0.2-6.1-0.2
			s-3.1-0.2-3.3-0.9C1616.2,658.5,1616.6,658.2,1616.6,657.5z"/>
	</g>
</g>
<g id="blComment">
	<g>
		<path class="st18" d="M1410.7,621.1h-201.3c-6.9,0-12.6-5.7-12.6-12.6v-49.3c0-6.9,5.7-12.6,12.6-12.6h201.3
			c6.9,0,12.6,5.7,12.6,12.6v49.3C1423.2,615.4,1417.6,621.1,1410.7,621.1z"/>
		<rect x="1219" y="564.9" class="st19" width="175.9" height="76.3"/>
		<text transform="matrix(0.8385 0 0 1 1218.9678 581.0723)" class="st20 st21 st22">Press on me to learn </text>
		<text transform="matrix(0.8385 0 0 1 1218.9678 605.9727)" class="st20 st21 st22">more!</text>
		<polygon class="st18" points="1423.6,579 1440.4,608.3 1409.9,598.3 		"/>
	</g>
</g>
<text id="blTitle" transform="matrix(1 0 0 1 1193.5479 205.467)" class="st9 st23 st24">Blog</text>
<rect x="1205.8" y="259.3" class="st19" width="368.2" height="145.1"/>
<text id="blDescription" transform="matrix(1 0 0 1 1205.8204 273.8681)"><tspan x="0" y="0" class="st9 st23 st25">Lorem ipsum dolor sit amet, consectetuer </tspan><tspan x="0" y="24" class="st9 st23 st25">adipiscing elit, sed diam nonummy nibh </tspan><tspan x="0" y="48" class="st9 st23 st25">euismod tincidunt ut laoreet dolore magna </tspan><tspan x="0" y="72" class="st9 st23 st25">aliquam erat volutpat. Ut wisi enim ad </tspan><tspan x="0" y="96" class="st9 st23 st25">minim veniam, quis nostrud exerci tation </tspan><tspan x="0" y="120" class="st9 st23 st25">ullamcorper suscipit lobortis nisl ut aliquip </tspan></text>
<text transform="matrix(1 0 0 1 2114.1016 1320.6973)" style="font-family:'MyriadPro-Regular'; font-size:12px;">Lorem ipsum</text>
</svg>
