<?xml version="1.0" encoding="utf-8"?>
<!-- Generator: Adobe Illustrator 21.0.2, SVG Export Plug-In . SVG Version: 6.00 Build 0)  -->
<svg version="1.1" xmlns="http://www.w3.org/2000/svg" xmlns:xlink="http://www.w3.org/1999/xlink" x="0px" y="0px"
	 viewBox="0 0 1920 1080" style="enable-background:new 0 0 1920 1080;" xml:space="preserve">
<style type="text/css">
	.st0{fill:#383836;}
	.st1{opacity:0.5;fill:none;stroke:#FFFFFF;stroke-miterlimit:10;enable-background:new    ;}
	.st2{clip-path:url(#SVGID_2_);fill:#FDF6CA;}
	.st3{clip-path:url(#SVGID_4_);}
	.st4{fill:#FCD990;}
	.st5{fill:#DDD7A9;}
	.st6{fill:#B8B38E;}
	.st7{opacity:0.61;fill:#B8B38E;enable-background:new    ;}
	.st8{fill:#3B576D;}
	.st9{display:none;}
	.st10{display:inline;fill:#48677C;}
	.st11{display:inline;}
	.st12{fill:#FFFFFF;}
	.st13{fill:none;stroke:#C9C9C9;stroke-width:1.1657;stroke-miterlimit:10;}
	.st14{fill:#055586;}
	.st15{fill:#F7962B;}
	.st16{fill:#DF2938;}
	.st17{fill:#64D0DA;}
	.st18{fill:#C9C9C9;}
	.st19{fill:#E2604A;}
	.st20{fill:#A6DAE9;}
	.st21{fill:#F99B1C;}
	.st22{fill:#15B0BF;}
	.st23{fill:#2C5871;}
	.st24{fill:#064F86;}
	.st25{fill:none;}
	.st26{fill:#969696;}
	.st27{font-family:'OpenSans-Extrabold';}
	.st28{font-size:8.5193px;}
	.st29{fill:#F2F2F2;}
	.st30{fill:#1F1F1F;}
	.st31{font-family:'ComicSansMS';}
	.st32{font-size:24.0483px;}
	.st33{fill:#0A1823;}
	.st34{fill:#C54C31;}
	.st35{fill:#B5B5B5;}
	.st36{fill:#ECEAEA;}
	.st37{fill:#DBDBDB;}
	.st38{opacity:0.66;fill:#ECEAEA;enable-background:new    ;}
	.st39{fill:#D8D6D7;}
	.st40{fill:#FFFFFF;stroke:#0A1823;stroke-linecap:round;stroke-linejoin:round;stroke-miterlimit:10;}
	.st41{font-family:'Lato-Light';}
	.st42{font-size:100px;}
	.st43{font-size:20px;}
</style>
<g id="Layer_2">
	<rect x="-90.9" y="-57.6" class="st0" width="2206.4" height="1296.2"/>
</g>
<g id="Courses">
	<circle id="crCircle" class="st1" cx="1972.9" cy="544.1" r="665.2"/>
	<g id="crGround">
		<g>
			<g>
				<defs>
					<path id="SVGID_1_" d="M2437.7,1107.4c-67.7-53.4-154-100.3-257.3-137.4c-413.6-148.5-951.9-85.8-1235,137.4H2437.7z"/>
				</defs>
				<clipPath id="SVGID_2_">
					<use xlink:href="#SVGID_1_"  style="overflow:visible;"/>
				</clipPath>
				<path class="st2" d="M2412.3,1088.4c-63.5-45.6-141.1-85.8-232-118.4c-401.6-144.1-920.8-89.2-1209.6,118.4H2412.3z"/>
			</g>
		</g>
		<g>
			<g>
				<defs>
					<path id="SVGID_3_" d="M2437.7,1107.4c-67.7-53.4-154-100.3-257.3-137.4c-413.6-148.5-951.9-85.8-1235,137.4H2437.7z"/>
				</defs>
				<clipPath id="SVGID_4_">
					<use xlink:href="#SVGID_3_"  style="overflow:visible;"/>
				</clipPath>
				<g class="st3">
					<g>
						<path class="st4" d="M1548.9,968.9c-6.9,5.9-23.6,9.3-37.6,7.8c-13.9-1.5-19.6-7.6-12.8-13.5c6.9-5.9,23.6-9.3,37.6-7.8
							C1550,956.8,1555.7,962.9,1548.9,968.9z"/>
						<path class="st5" d="M1548.9,968.9c-6.9,5.9-23.6,9.3-37.6,7.8c-13.9-1.5-19.6-7.6-12.8-13.5c6.9-5.9,23.6-9.3,37.6-7.8
							C1550,956.8,1555.7,962.9,1548.9,968.9z"/>
						<path class="st6" d="M1500.4,965.8c6.9-5.9,23.6-9.3,37.6-7.8c6.5,0.8,11.1,2.5,13.5,4.6c-1-3.6-6.5-6.5-15.4-7.4
							c-13.9-1.5-30.7,1.9-37.6,7.8c-3.6,3.2-3.8,6.5-0.8,9C1497.2,970,1498.2,967.9,1500.4,965.8z"/>
					</g>
					<g>
						<path class="st4" d="M1283.3,969.6c-3.2,2.7-10.9,4.4-17.3,3.6c-6.5-0.8-9-3.6-5.9-6.3c3.2-2.7,10.9-4.4,17.3-3.6
							S1286.6,966.9,1283.3,969.6z"/>
						<path class="st5" d="M1283.3,969.6c-3.2,2.7-10.9,4.4-17.3,3.6c-6.5-0.8-9-3.6-5.9-6.3c3.2-2.7,10.9-4.4,17.3-3.6
							S1286.6,966.9,1283.3,969.6z"/>
						<path class="st6" d="M1261,968.3c3.2-2.7,10.9-4.4,17.3-3.6c3,0.4,5.1,1.1,6.3,2.1c-0.4-1.7-3-3-7.1-3.4
							c-6.5-0.8-14.1,0.8-17.3,3.6c-1.7,1.5-1.7,3-0.4,4.2C1259.5,970.2,1259.9,969.2,1261,968.3z"/>
					</g>
					<g>
						<path class="st4" d="M1330.2,994.4c-4.8,4.2-16.8,6.7-26.5,5.5s-13.7-5.3-9-9.5c4.8-4.2,16.8-6.7,26.5-5.5
							C1331,985.8,1335,990.2,1330.2,994.4z"/>
						<path class="st5" d="M1330.2,994.4c-4.8,4.2-16.8,6.7-26.5,5.5s-13.7-5.3-9-9.5c4.8-4.2,16.8-6.7,26.5-5.5
							C1331,985.8,1335,990.2,1330.2,994.4z"/>
						<path class="st6" d="M1296.1,992.3c4.8-4.2,16.8-6.7,26.5-5.5c4.6,0.6,7.8,1.7,9.5,3.2c-0.6-2.5-4.6-4.6-10.9-5.3
							c-9.7-1.1-21.7,1.3-26.5,5.5c-2.7,2.3-2.7,4.6-0.6,6.3C1293.8,995.2,1294.4,993.6,1296.1,992.3z"/>
					</g>
					<g>
						<path class="st4" d="M1545.6,1070.3c-1.7,1.5-6.1,2.5-9.7,1.9c-3.6-0.4-5-1.9-3.2-3.4c1.7-1.5,6.1-2.5,9.7-1.9
							C1546,1067,1547.3,1068.7,1545.6,1070.3z"/>
						<path class="st5" d="M1545.6,1070.3c-1.7,1.5-6.1,2.5-9.7,1.9c-3.6-0.4-5-1.9-3.2-3.4c1.7-1.5,6.1-2.5,9.7-1.9
							C1546,1067,1547.3,1068.7,1545.6,1070.3z"/>
						<path class="st6" d="M1533.2,1069.5c1.7-1.5,6.1-2.5,9.7-1.9c1.7,0.2,2.9,0.6,3.4,1.1c-0.2-1-1.7-1.7-4-1.9
							c-3.6-0.4-7.8,0.6-9.7,1.9c-1,0.8-1,1.7-0.2,2.3C1532.5,1070.5,1532.7,1069.9,1533.2,1069.5z"/>
					</g>
					<g>
						<path class="st4" d="M1692.4,917.8c-5,3.4-16.2,4.8-25,3.2c-8.8-1.5-12-5.7-7.1-9.1c5-3.4,16.2-4.8,25-3.2
							C1694.1,910.1,1697.3,914.3,1692.4,917.8z"/>
						<path class="st5" d="M1692.4,917.8c-5,3.4-16.2,4.8-25,3.2c-8.8-1.5-12-5.7-7.1-9.1c5-3.4,16.2-4.8,25-3.2
							C1694.1,910.1,1697.3,914.3,1692.4,917.8z"/>
						<path class="st6" d="M1661.3,913.8c5-3.4,16.2-4.8,25-3.2c4,0.8,6.9,2.1,8.4,3.6c-0.4-2.3-3.6-4.4-9.3-5.5
							c-8.8-1.7-20-0.2-25,3.2c-2.7,1.9-2.9,3.8-1.3,5.7C1658.8,916.2,1659.6,914.9,1661.3,913.8z"/>
					</g>
					<g>
						<path class="st4" d="M1344.1,1005.8c-1.9,1.5-6.3,2.5-9.9,2.1s-5.1-2.1-3.4-3.6c1.9-1.5,6.3-2.5,9.9-2.1
							C1344.3,1002.6,1345.9,1004.1,1344.1,1005.8z"/>
						<path class="st5" d="M1344.1,1005.8c-1.9,1.5-6.3,2.5-9.9,2.1s-5.1-2.1-3.4-3.6c1.9-1.5,6.3-2.5,9.9-2.1
							C1344.3,1002.6,1345.9,1004.1,1344.1,1005.8z"/>
						<path class="st6" d="M1331.2,1005.1c1.9-1.5,6.3-2.5,9.9-2.1c1.7,0.2,2.9,0.6,3.6,1.1c-0.2-1-1.7-1.7-4.2-1.9
							c-3.6-0.4-8.2,0.6-9.9,2.1c-1,0.8-1,1.7-0.2,2.5C1330.4,1006,1330.6,1005.5,1331.2,1005.1z"/>
					</g>
					<g>
						<path class="st4" d="M1330.4,952.7c-1.3,1.1-4.6,1.7-7.2,1.5c-2.7-0.4-3.8-1.5-2.5-2.7c1.3-1.1,4.6-1.7,7.2-1.5
							S1331.7,951.5,1330.4,952.7z"/>
						<path class="st5" d="M1330.4,952.7c-1.3,1.1-4.6,1.7-7.2,1.5c-2.7-0.4-3.8-1.5-2.5-2.7c1.3-1.1,4.6-1.7,7.2-1.5
							S1331.7,951.5,1330.4,952.7z"/>
						<path class="st6" d="M1321.1,952.1c1.3-1.1,4.6-1.7,7.2-1.5c1.1,0.2,2.1,0.4,2.7,1c-0.2-0.8-1.3-1.3-3-1.5
							c-2.7-0.4-5.9,0.4-7.2,1.5c-0.8,0.6-0.8,1.1-0.2,1.7C1320.5,952.8,1320.7,952.5,1321.1,952.1z"/>
					</g>
					<g>
						<path class="st4" d="M1675,997.1c-8,5.3-25.4,7.4-38.7,4.6c-13.5-2.7-17.9-9.1-10.1-14.5c7.8-5.3,25.4-7.4,38.7-4.6
							C1678.5,985.2,1683,991.7,1675,997.1z"/>
						<path class="st5" d="M1675,997.1c-8,5.3-25.4,7.4-38.7,4.6c-13.5-2.7-17.9-9.1-10.1-14.5c7.8-5.3,25.4-7.4,38.7-4.6
							C1678.5,985.2,1683,991.7,1675,997.1z"/>
						<path class="st6" d="M1627.8,990.2c8-5.3,25.4-7.4,38.7-4.6c6.3,1.3,10.5,3.2,12.6,5.7c-0.2-3.6-5.1-6.9-13.9-8.8
							c-13.5-2.7-30.9-0.6-38.7,4.6c-4.2,2.9-5,6.1-2.5,8.8C1623.8,994,1624.9,992.1,1627.8,990.2z"/>
					</g>
					<g>
						<path class="st4" d="M1503.9,934.5c-6.9,5.9-23.6,9.3-37.6,7.8c-13.9-1.5-19.6-7.6-12.8-13.5c6.9-5.9,23.6-9.3,37.6-7.8
							C1505.2,922.5,1510.7,928.6,1503.9,934.5z"/>
						<path class="st5" d="M1503.9,934.5c-6.9,5.9-23.6,9.3-37.6,7.8c-13.9-1.5-19.6-7.6-12.8-13.5c6.9-5.9,23.6-9.3,37.6-7.8
							C1505.2,922.5,1510.7,928.6,1503.9,934.5z"/>
						<path class="st6" d="M1455.6,931.5c6.9-5.9,23.6-9.3,37.6-7.8c6.5,0.8,11.1,2.5,13.5,4.6c-1-3.6-6.5-6.5-15.4-7.4
							c-13.9-1.5-30.7,1.9-37.6,7.8c-3.6,3.2-3.6,6.5-0.8,9C1452.4,935.7,1453.2,933.6,1455.6,931.5z"/>
					</g>
					<g>
						<path class="st4" d="M1477.6,1091c-6.9,5.9-23.6,9.3-37.6,7.8s-19.6-7.6-12.8-13.5c6.9-5.9,23.6-9.3,37.6-7.8
							C1478.9,1079,1484.4,1085.1,1477.6,1091z"/>
						<path class="st5" d="M1477.6,1091c-6.9,5.9-23.6,9.3-37.6,7.8s-19.6-7.6-12.8-13.5c6.9-5.9,23.6-9.3,37.6-7.8
							C1478.9,1079,1484.4,1085.1,1477.6,1091z"/>
						<path class="st6" d="M1429.3,1088c6.9-5.9,23.6-9.3,37.6-7.8c6.5,0.8,11.1,2.5,13.5,4.6c-1-3.6-6.5-6.5-15.4-7.4
							c-13.9-1.5-30.7,1.9-37.6,7.8c-3.6,3.2-3.8,6.5-0.8,9C1426.1,1092.2,1426.9,1090.1,1429.3,1088z"/>
					</g>
					<g>
						<path class="st4" d="M1418.7,1033.7c-7.6,2.3-17.3,2.1-21.7-0.6c-4.4-2.7-1.9-6.5,5.5-8.8c7.6-2.3,17.3-2.1,21.7,0.6
							C1428.6,1027.6,1426.3,1031.4,1418.7,1033.7z"/>
						<path class="st5" d="M1418.7,1033.7c-7.6,2.3-17.3,2.1-21.7-0.6c-4.4-2.7-1.9-6.5,5.5-8.8c7.6-2.3,17.3-2.1,21.7,0.6
							C1428.6,1027.6,1426.3,1031.4,1418.7,1033.7z"/>
						<path class="st6" d="M1400.9,1026.2c7.6-2.3,17.3-2.1,21.7,0.6c2.1,1.1,2.7,2.7,1.9,4.2c2.5-1.9,2.5-4.2-0.4-5.9
							c-4.4-2.7-14.3-2.9-21.7-0.6c-4,1.1-6.7,3-7.4,4.8C1396.4,1027.9,1398.5,1027,1400.9,1026.2z"/>
					</g>
					<g>
						<path class="st4" d="M1631.6,1072.9c-7.6,2.3-17.3,2.1-21.7-0.6c-4.4-2.7-1.9-6.5,5.5-8.8c7.6-2.3,17.3-2.1,21.7,0.6
							C1641.7,1066.6,1639.2,1070.6,1631.6,1072.9z"/>
						<path class="st5" d="M1631.6,1072.9c-7.6,2.3-17.3,2.1-21.7-0.6c-4.4-2.7-1.9-6.5,5.5-8.8c7.6-2.3,17.3-2.1,21.7,0.6
							C1641.7,1066.6,1639.2,1070.6,1631.6,1072.9z"/>
						<path class="st6" d="M1613.9,1065.3c7.6-2.3,17.3-2.1,21.7,0.6c2.1,1.1,2.7,2.7,1.9,4.2c2.5-1.9,2.5-4.2-0.4-5.9
							c-4.4-2.7-14.3-2.9-21.7-0.6c-4,1.1-6.7,3-7.4,4.8C1609.3,1067.2,1611.4,1066.3,1613.9,1065.3z"/>
					</g>
					<g>
						<path class="st4" d="M1259.9,1037.3c-5.7,1.7-13.2,1.5-16.6-0.4s-1.5-5,4.2-6.7s13.2-1.5,16.6,0.4
							C1267.7,1032.5,1265.8,1035.6,1259.9,1037.3z"/>
						<path class="st5" d="M1259.9,1037.3c-5.7,1.7-13.2,1.5-16.6-0.4s-1.5-5,4.2-6.7s13.2-1.5,16.6,0.4
							C1267.7,1032.5,1265.8,1035.6,1259.9,1037.3z"/>
						<path class="st6" d="M1246.5,1031.6c5.7-1.7,13.2-1.5,16.6,0.4c1.5,1,2.1,2.1,1.5,3.2c1.9-1.5,1.9-3.2-0.4-4.6
							c-3.4-1.9-10.9-2.1-16.6-0.4c-3,1-5.1,2.3-5.7,3.6C1242.9,1032.9,1244.4,1032.1,1246.5,1031.6z"/>
					</g>
					<g>
						<path class="st4" d="M1342.2,1068.7c-7.6,2.3-17.3,2.1-21.7-0.6c-4.4-2.7-1.9-6.5,5.5-8.8s17.3-2.1,21.7,0.6
							C1352.3,1062.4,1349.7,1066.4,1342.2,1068.7z"/>
						<path class="st5" d="M1342.2,1068.7c-7.6,2.3-17.3,2.1-21.7-0.6c-4.4-2.7-1.9-6.5,5.5-8.8s17.3-2.1,21.7,0.6
							C1352.3,1062.4,1349.7,1066.4,1342.2,1068.7z"/>
						<path class="st6" d="M1324.5,1061.1c7.6-2.3,17.3-2.1,21.7,0.6c2.1,1.1,2.7,2.7,1.9,4.2c2.5-1.9,2.5-4.2-0.4-5.9
							c-4.4-2.7-14.3-2.9-21.7-0.6c-4,1.1-6.7,3-7.4,4.8C1319.9,1062.8,1321.8,1061.9,1324.5,1061.1z"/>
					</g>
					<g>
						<path class="st4" d="M1389.3,939.5c-3.2,1.9-9.5,2.7-13.7,1.7c-4.4-1-5.1-3.2-1.9-5.1c3.2-1.9,9.5-2.7,13.7-1.7
							C1391.6,935.3,1392.6,937.6,1389.3,939.5z"/>
						<path class="st5" d="M1389.3,939.5c-3.2,1.9-9.5,2.7-13.7,1.7c-4.4-1-5.1-3.2-1.9-5.1c3.2-1.9,9.5-2.7,13.7-1.7
							C1391.6,935.3,1392.6,937.6,1389.3,939.5z"/>
						<path class="st6" d="M1373.7,937.2c3.2-1.9,9.5-2.7,13.7-1.7c2.1,0.4,3.2,1.1,3.8,2.1c0.2-1.3-1.1-2.5-3.8-3
							c-4.4-1-10.5-0.2-13.7,1.7c-1.7,1-2.3,2.3-1.7,3.2C1372,938.7,1372.5,938,1373.7,937.2z"/>
					</g>
					<g>
						<path class="st4" d="M1615.4,1022.4c-3,1.9-9,2.7-13.2,1.7s-5-3-1.9-5c3-1.9,9-2.7,13.2-1.7S1618.4,1020.7,1615.4,1022.4z"/>
						<path class="st5" d="M1615.4,1022.4c-3,1.9-9,2.7-13.2,1.7s-5-3-1.9-5c3-1.9,9-2.7,13.2-1.7S1618.4,1020.7,1615.4,1022.4z"/>
						<path class="st6" d="M1600.5,1020.3c3-1.9,9-2.7,13.2-1.7c1.9,0.4,3,1.1,3.6,1.9c0.2-1.1-1-2.3-3.6-2.9
							c-4.2-1-10.1-0.2-13.2,1.7c-1.7,1-2.3,2.1-1.7,3C1598.8,1021.7,1599.4,1020.9,1600.5,1020.3z"/>
					</g>
					<g>
						<path class="st4" d="M1618.4,913c-1.5,1-4.2,1.1-6.3,0.8c-1.9-0.4-2.3-1.5-1-2.3c1.5-1,4.2-1.1,6.3-0.8
							C1619.6,911.1,1620,912.1,1618.4,913z"/>
						<path class="st5" d="M1618.4,913c-1.5,1-4.2,1.1-6.3,0.8c-1.9-0.4-2.3-1.5-1-2.3c1.5-1,4.2-1.1,6.3-0.8
							C1619.6,911.1,1620,912.1,1618.4,913z"/>
						<path class="st6" d="M1611.4,911.9c1.5-1,4.2-1.1,6.3-0.8c1,0.2,1.5,0.6,1.7,1c0.2-0.6-0.6-1.1-1.7-1.3
							c-1.9-0.4-4.8,0-6.3,0.8c-0.8,0.4-1,1-0.8,1.5C1610.6,912.6,1611,912.2,1611.4,911.9z"/>
					</g>
					<g>
						<path class="st4" d="M1430.5,921.8c-1.1,0.8-3.4,1-5,0.6c-1.5-0.4-1.9-1.1-0.8-1.9c1.1-0.8,3.4-1,5-0.6
							C1431.4,920.2,1431.6,921.2,1430.5,921.8z"/>
						<path class="st5" d="M1430.5,921.8c-1.1,0.8-3.4,1-5,0.6c-1.5-0.4-1.9-1.1-0.8-1.9c1.1-0.8,3.4-1,5-0.6
							C1431.4,920.2,1431.6,921.2,1430.5,921.8z"/>
						<path class="st6" d="M1425,921c1.1-0.8,3.4-1,5-0.6c0.8,0.2,1.1,0.4,1.3,0.8c0.2-0.4-0.4-1-1.3-1.1c-1.5-0.4-3.8,0-5,0.6
							c-0.6,0.4-0.8,0.8-0.6,1.1C1424.4,921.6,1424.6,921.2,1425,921z"/>
					</g>
					<g>
						<path class="st4" d="M1616.1,947.1c-5.5,3.2-16.2,4.8-23.6,3c-7.4-1.5-9-5.5-3.4-9c5.5-3.2,16.2-4.8,23.6-3
							C1620.3,939.9,1621.7,943.9,1616.1,947.1z"/>
						<path class="st5" d="M1616.1,947.1c-5.5,3.2-16.2,4.8-23.6,3c-7.4-1.5-9-5.5-3.4-9c5.5-3.2,16.2-4.8,23.6-3
							C1620.3,939.9,1621.7,943.9,1616.1,947.1z"/>
						<path class="st6" d="M1589.5,943.3c5.5-3.2,16.2-4.8,23.6-3c3.4,0.8,5.5,1.9,6.3,3.4c0.6-2.3-1.9-4.2-6.7-5.3
							c-7.4-1.5-18.1-0.2-23.6,3c-3,1.7-4,3.8-3,5.5C1586.4,945.6,1587.5,944.5,1589.5,943.3z"/>
					</g>
					<g>
						<path class="st4" d="M1732.2,939.9c-3.8,1.3-10.1,1.1-13.9-0.4s-4-4-0.2-5.3s10.1-1.1,13.9,0.4
							C1736,936.1,1736,938.4,1732.2,939.9z"/>
						<path class="st5" d="M1732.2,939.9c-3.8,1.3-10.1,1.1-13.9-0.4s-4-4-0.2-5.3s10.1-1.1,13.9,0.4
							C1736,936.1,1736,938.4,1732.2,939.9z"/>
						<path class="st6" d="M1717.9,935.3c3.8-1.3,10.1-1.1,13.9,0.4c1.7,0.8,2.7,1.5,2.9,2.5c0.8-1.1-0.2-2.5-2.7-3.6
							c-3.8-1.5-10.1-1.7-13.9-0.4c-2.1,0.8-3,1.7-2.9,2.9C1715.8,936.3,1716.6,935.7,1717.9,935.3z"/>
					</g>
					<g>
						<path class="st4" d="M1724.6,901.8c-2.9,1.1-7.8,1-10.7-0.2c-3-1.1-3-3,0-4c2.9-1.1,7.8-1,10.7,0.2
							C1727.5,898.9,1727.5,900.8,1724.6,901.8z"/>
						<path class="st5" d="M1724.6,901.8c-2.9,1.1-7.8,1-10.7-0.2c-3-1.1-3-3,0-4c2.9-1.1,7.8-1,10.7,0.2
							C1727.5,898.9,1727.5,900.8,1724.6,901.8z"/>
						<path class="st6" d="M1713.5,898.3c2.9-1.1,7.8-1,10.7,0.2c1.3,0.6,2.1,1.1,2.3,1.9c0.6-1-0.2-1.9-2.1-2.7
							c-3-1.1-7.8-1.3-10.7-0.2c-1.5,0.6-2.3,1.3-2.1,2.1C1712,899.1,1712.6,898.7,1713.5,898.3z"/>
					</g>
					<g>
						<path class="st4" d="M1572.1,927.3c-3,1.9-9,2.7-13.2,1.7s-5-3-1.9-5s9-2.7,13.2-1.7C1574.4,923.1,1575.2,925.4,1572.1,927.3z
							"/>
						<path class="st5" d="M1572.1,927.3c-3,1.9-9,2.7-13.2,1.7s-5-3-1.9-5s9-2.7,13.2-1.7C1574.4,923.1,1575.2,925.4,1572.1,927.3z
							"/>
						<path class="st6" d="M1557.2,925c3-1.9,9-2.7,13.2-1.7c1.9,0.4,3,1.1,3.6,1.9c0.2-1.1-1-2.3-3.6-2.9c-4.2-1-10.1-0.2-13.2,1.7
							c-1.7,1-2.3,2.1-1.7,3C1555.5,926.3,1556.1,925.6,1557.2,925z"/>
					</g>
					<g>
						<path class="st4" d="M1535.5,910.3c-3,1.9-9,2.7-13.2,1.7s-5-3-1.9-5c3-1.9,9-2.7,13.2-1.7
							C1537.8,906.3,1538.8,908.6,1535.5,910.3z"/>
						<path class="st5" d="M1535.5,910.3c-3,1.9-9,2.7-13.2,1.7s-5-3-1.9-5c3-1.9,9-2.7,13.2-1.7
							C1537.8,906.3,1538.8,908.6,1535.5,910.3z"/>
						<path class="st6" d="M1520.6,908.2c3-1.9,9-2.7,13.2-1.7c1.9,0.4,3,1.1,3.6,1.9c0.2-1.1-1-2.3-3.6-2.9
							c-4.2-1-10.1-0.2-13.2,1.7c-1.7,1-2.3,2.1-1.7,3C1518.9,909.6,1519.5,908.8,1520.6,908.2z"/>
					</g>
					<g>
						<path class="st4" d="M1703.3,1032.3c-3,1.9-9,2.7-13.2,1.7s-5-3-1.9-5c3-1.9,9-2.7,13.2-1.7
							C1705.5,1028.1,1706.3,1030.4,1703.3,1032.3z"/>
						<path class="st5" d="M1703.3,1032.3c-3,1.9-9,2.7-13.2,1.7s-5-3-1.9-5c3-1.9,9-2.7,13.2-1.7
							C1705.5,1028.1,1706.3,1030.4,1703.3,1032.3z"/>
						<path class="st6" d="M1688.2,1030c3-1.9,9-2.7,13.2-1.7c1.9,0.4,3,1.1,3.6,1.9c0.2-1.1-1-2.3-3.6-2.9
							c-4.2-1-10.1-0.2-13.2,1.7c-1.7,1-2.3,2.1-1.7,3C1686.7,1031.4,1687.2,1030.8,1688.2,1030z"/>
					</g>
					<g>
						<path class="st4" d="M1752.6,992.1c-6.9,4-20,5.7-29.2,3.8c-9.1-1.9-11.1-6.9-4.2-10.9s20-5.7,29.2-3.8
							S1759.5,988.1,1752.6,992.1z"/>
						<path class="st5" d="M1752.6,992.1c-6.9,4-20,5.7-29.2,3.8c-9.1-1.9-11.1-6.9-4.2-10.9s20-5.7,29.2-3.8
							S1759.5,988.1,1752.6,992.1z"/>
						<path class="st6" d="M1719.6,987.3c6.9-4,20-5.7,29.2-3.8c4.2,1,6.9,2.5,7.8,4.2c0.6-2.7-2.3-5.1-8.2-6.5
							c-9.1-1.9-22.1-0.4-29.2,3.8c-3.8,2.3-5,4.6-3.8,6.7C1716,990.2,1717.4,988.7,1719.6,987.3z"/>
					</g>
					<g>
						<path class="st4" d="M1310.4,947.7c-4.2,2.5-11.8,3.6-17.2,2.5c-5.3-1.1-6.3-4-2.3-6.5c4.2-2.5,11.8-3.6,17.2-2.5
							C1313.5,942.4,1314.4,945.2,1310.4,947.7z"/>
						<path class="st5" d="M1310.4,947.7c-4.2,2.5-11.8,3.6-17.2,2.5c-5.3-1.1-6.3-4-2.3-6.5c4.2-2.5,11.8-3.6,17.2-2.5
							C1313.5,942.4,1314.4,945.2,1310.4,947.7z"/>
						<path class="st6" d="M1291.1,945c4.2-2.5,11.8-3.6,17.2-2.5c2.5,0.6,4,1.3,4.6,2.5c0.4-1.7-1.1-3-4.8-3.8
							c-5.3-1.1-13,0-17.2,2.5c-2.3,1.3-2.9,2.9-2.3,4C1288.9,946.7,1289.8,946,1291.1,945z"/>
					</g>
					<g>
						<path class="st4" d="M1382.3,963.3c-5.3,3-15.2,4.4-22.3,2.9c-7.1-1.5-8.4-5.3-3.2-8.4c5.3-3,15.2-4.4,22.3-2.9
							C1386.1,956.5,1387.6,960.3,1382.3,963.3z"/>
						<path class="st5" d="M1382.3,963.3c-5.3,3-15.2,4.4-22.3,2.9c-7.1-1.5-8.4-5.3-3.2-8.4c5.3-3,15.2-4.4,22.3-2.9
							C1386.1,956.5,1387.6,960.3,1382.3,963.3z"/>
						<path class="st6" d="M1357.1,959.5c5.3-3,15.2-4.4,22.3-2.9c3.2,0.8,5.3,1.9,5.9,3.2c0.4-2.1-1.7-4-6.3-5
							c-7.1-1.5-17-0.2-22.3,2.9c-2.9,1.7-3.8,3.6-2.9,5.1C1354.2,961.8,1355.2,960.7,1357.1,959.5z"/>
					</g>
					<g>
						<path class="st4" d="M1442.5,968.9c-4,2.3-11.2,3.2-16.6,2.1c-5.1-1.1-6.3-4-2.3-6.3s11.2-3.2,16.6-2.1
							C1445.4,963.7,1446.3,966.6,1442.5,968.9z"/>
						<path class="st5" d="M1442.5,968.9c-4,2.3-11.2,3.2-16.6,2.1c-5.1-1.1-6.3-4-2.3-6.3s11.2-3.2,16.6-2.1
							C1445.4,963.7,1446.3,966.6,1442.5,968.9z"/>
						<path class="st6" d="M1423.8,966.2c4-2.3,11.2-3.2,16.6-2.1c2.5,0.6,4,1.3,4.4,2.5c0.4-1.5-1.3-3-4.6-3.6
							c-5.1-1.1-12.6-0.2-16.6,2.1c-2.1,1.3-2.9,2.7-2.1,3.8C1421.5,967.7,1422.3,966.9,1423.8,966.2z"/>
					</g>
					<g>
						<path class="st4" d="M1967.4,977.1c7.4,5.5,24.8,8.2,38.3,5.9c13.7-2.3,18.7-8.6,11.1-14.1c-7.4-5.5-24.8-8.2-38.3-5.9
							C1965,965,1960,971.5,1967.4,977.1z"/>
						<path class="st5" d="M1967.4,977.1c7.4,5.5,24.8,8.2,38.3,5.9c13.7-2.3,18.7-8.6,11.1-14.1c-7.4-5.5-24.8-8.2-38.3-5.9
							C1965,965,1960,971.5,1967.4,977.1z"/>
						<path class="st6" d="M2015.5,971.5c-7.4-5.5-24.8-8.2-38.3-5.9c-6.3,1.1-10.7,3-13,5.3c0.6-3.6,5.7-6.7,14.5-8.2
							c13.7-2.3,30.9,0.4,38.3,5.9c4,3,4.4,6.1,1.9,9C2019.1,975.5,2018.1,973.6,2015.5,971.5z"/>
					</g>
					<g>
						<path class="st4" d="M2232.4,964.5c3.4,2.5,11.4,3.8,17.7,2.7s8.6-4,5.1-6.5c-3.4-2.5-11.4-3.8-17.7-2.7
							C2231.2,958.9,2229,961.8,2232.4,964.5z"/>
						<path class="st5" d="M2232.4,964.5c3.4,2.5,11.4,3.8,17.7,2.7s8.6-4,5.1-6.5c-3.4-2.5-11.4-3.8-17.7-2.7
							C2231.2,958.9,2229,961.8,2232.4,964.5z"/>
						<path class="st6" d="M2254.5,962c-3.4-2.5-11.4-3.8-17.7-2.7c-2.9,0.6-5,1.3-5.9,2.5c0.2-1.7,2.7-3,6.7-3.8
							c6.3-1.1,14.3,0.2,17.7,2.7c1.9,1.3,2.1,2.9,0.8,4.2C2256.2,963.7,2255.6,962.8,2254.5,962z"/>
					</g>
					<g>
						<path class="st4" d="M2188.5,991.3c5.3,3.8,17.3,5.7,27.1,4.2c9.7-1.7,13.2-6.1,7.8-9.9c-5.3-3.8-17.3-5.7-27.1-4.2
							C2186.6,983,2183.2,987.5,2188.5,991.3z"/>
						<path class="st5" d="M2188.5,991.3c5.3,3.8,17.3,5.7,27.1,4.2c9.7-1.7,13.2-6.1,7.8-9.9c-5.3-3.8-17.3-5.7-27.1-4.2
							C2186.6,983,2183.2,987.5,2188.5,991.3z"/>
						<path class="st6" d="M2222.3,987.5c-5.3-3.8-17.3-5.7-27.1-4.2c-4.4,0.8-7.6,2.1-9.1,3.8c0.4-2.5,4-4.8,10.3-5.9
							c9.7-1.7,21.7,0.2,27.1,4.2c2.9,2.1,3,4.4,1.3,6.3C2225,990.4,2224.2,989.1,2222.3,987.5z"/>
					</g>
					<g>
						<path class="st4" d="M1982.7,1077.9c1.9,1.3,6.3,2.1,9.9,1.5c3.4-0.6,4.8-2.3,2.9-3.6c-1.9-1.3-6.3-2.1-9.9-1.5
							C1981.9,1074.8,1980.6,1076.6,1982.7,1077.9z"/>
						<path class="st5" d="M1982.7,1077.9c1.9,1.3,6.3,2.1,9.9,1.5c3.4-0.6,4.8-2.3,2.9-3.6c-1.9-1.3-6.3-2.1-9.9-1.5
							C1981.9,1074.8,1980.6,1076.6,1982.7,1077.9z"/>
						<path class="st6" d="M1994.9,1076.6c-1.9-1.3-6.3-2.1-9.9-1.5c-1.5,0.2-2.7,0.8-3.2,1.3c0.2-1,1.5-1.7,3.8-2.1
							c3.4-0.6,8,0,9.9,1.5c1,0.8,1.1,1.5,0.4,2.3C1995.8,1077.5,1995.6,1077.1,1994.9,1076.6z"/>
					</g>
					<g>
						<path class="st4" d="M1822.2,918c5.7,4.2,18.7,6.1,29,4.4c10.3-1.7,14.1-6.5,8.4-10.7s-18.7-6.1-29-4.4
							C1820.1,909,1816.5,913.8,1822.2,918z"/>
						<path class="st5" d="M1822.2,918c5.7,4.2,18.7,6.1,29,4.4c10.3-1.7,14.1-6.5,8.4-10.7s-18.7-6.1-29-4.4
							C1820.1,909,1816.5,913.8,1822.2,918z"/>
						<path class="st6" d="M1858.4,914c-5.7-4.2-18.7-6.1-29-4.4c-4.8,0.8-8.2,2.3-9.7,4c0.4-2.7,4.4-5.1,11.1-6.3
							c10.3-1.7,23.4,0.2,29,4.4c3,2.3,3.4,4.8,1.3,6.7C1861.3,916.8,1860.3,915.3,1858.4,914z"/>
					</g>
					<g>
						<path class="st4" d="M2176.2,1003.5c2.1,1.5,6.5,2.1,10.3,1.5c3.6-0.6,5-2.3,3-3.8c-2.1-1.5-6.5-2.1-10.3-1.5
							S2174.1,1002,2176.2,1003.5z"/>
						<path class="st5" d="M2176.2,1003.5c2.1,1.5,6.5,2.1,10.3,1.5c3.6-0.6,5-2.3,3-3.8c-2.1-1.5-6.5-2.1-10.3-1.5
							S2174.1,1002,2176.2,1003.5z"/>
						<path class="st6" d="M2188.7,1002c-2.1-1.5-6.5-2.1-10.3-1.5c-1.7,0.2-2.9,0.8-3.4,1.3c0.2-1,1.5-1.7,3.8-2.3
							c3.6-0.6,8.2,0,10.3,1.5c1.1,0.8,1.1,1.7,0.6,2.3C2189.9,1003.2,2189.5,1002.6,2188.7,1002z"/>
					</g>
					<g>
						<path class="st4" d="M2183.4,949.8c1.5,1.1,4.8,1.5,7.4,1.1c2.7-0.4,3.6-1.7,2.1-2.7c-1.5-1.1-4.8-1.5-7.4-1.1
							C2183,947.5,2182.1,948.8,2183.4,949.8z"/>
						<path class="st5" d="M2183.4,949.8c1.5,1.1,4.8,1.5,7.4,1.1c2.7-0.4,3.6-1.7,2.1-2.7c-1.5-1.1-4.8-1.5-7.4-1.1
							C2183,947.5,2182.1,948.8,2183.4,949.8z"/>
						<path class="st6" d="M2192.7,948.8c-1.5-1.1-4.8-1.5-7.4-1.1c-1.1,0.2-2.1,0.6-2.5,1c0.2-0.8,1.1-1.3,2.9-1.5
							c2.7-0.4,5.9,0,7.4,1.1c0.8,0.6,1,1.1,0.4,1.7C2193.5,949.6,2193.3,949.2,2192.7,948.8z"/>
					</g>
					<g>
						<path class="st4" d="M1843.9,1009.6c7.4,5.5,24.8,8.2,38.3,5.9c13.7-2.3,18.7-8.6,11.1-14.1c-7.4-5.5-24.8-8.2-38.3-5.9
							C1841.4,997.8,1836.5,1004.1,1843.9,1009.6z"/>
						<path class="st5" d="M1843.9,1009.6c7.4,5.5,24.8,8.2,38.3,5.9c13.7-2.3,18.7-8.6,11.1-14.1c-7.4-5.5-24.8-8.2-38.3-5.9
							C1841.4,997.8,1836.5,1004.1,1843.9,1009.6z"/>
						<path class="st6" d="M1892,1004.3c-7.4-5.5-24.8-8.2-38.3-5.9c-6.3,1.1-10.7,3-13,5.3c0.6-3.6,5.7-6.7,14.5-8.2
							c13.7-2.3,30.9,0.4,38.3,5.9c4,3,4.4,6.1,1.9,9C1895.6,1008.3,1894.6,1006.2,1892,1004.3z"/>
					</g>
					<g>
						<path class="st4" d="M2008.2,940.5c7.4,5.5,24.8,8.2,38.3,5.9c13.7-2.3,18.7-8.6,11.1-14.1c-7.4-5.5-24.8-8.2-38.3-5.9
							C2005.8,928.6,2000.8,934.9,2008.2,940.5z"/>
						<path class="st5" d="M2008.2,940.5c7.4,5.5,24.8,8.2,38.3,5.9c13.7-2.3,18.7-8.6,11.1-14.1c-7.4-5.5-24.8-8.2-38.3-5.9
							C2005.8,928.6,2000.8,934.9,2008.2,940.5z"/>
						<path class="st6" d="M2056.3,935.1c-7.4-5.5-24.8-8.2-38.3-5.9c-6.3,1.1-10.7,3-13,5.3c0.6-3.6,5.7-6.7,14.5-8.2
							c13.7-2.3,30.9,0.4,38.3,5.9c4,3,4.4,6.1,1.9,9C2059.9,939.1,2058.9,937,2056.3,935.1z"/>
					</g>
					<g>
						<path class="st4" d="M2052.8,1095.2c7.4,5.5,24.8,8.2,38.3,5.9c13.7-2.3,18.7-8.6,11.1-14.1c-7.4-5.5-24.8-8.2-38.3-5.9
							C2050.4,1083.4,2045.2,1089.7,2052.8,1095.2z"/>
						<path class="st5" d="M2052.8,1095.2c7.4,5.5,24.8,8.2,38.3,5.9c13.7-2.3,18.7-8.6,11.1-14.1c-7.4-5.5-24.8-8.2-38.3-5.9
							C2050.4,1083.4,2045.2,1089.7,2052.8,1095.2z"/>
						<path class="st6" d="M2100.7,1089.9c-7.4-5.5-24.8-8.2-38.3-5.9c-6.3,1.1-10.7,3-13,5.3c0.6-3.6,5.7-6.7,14.5-8.2
							c13.7-2.3,30.9,0.4,38.3,5.9c4,3,4.4,6.1,1.9,9C2104.5,1093.9,2103.3,1091.8,2100.7,1089.9z"/>
					</g>
					<g>
						<path class="st4" d="M2104.9,1035.2c7.8,1.9,17.5,1.1,21.5-1.7c4.2-2.9,1.1-6.7-6.7-8.6s-17.5-1.1-21.5,1.7
							C2094.2,1029.5,2097.1,1033.3,2104.9,1035.2z"/>
						<path class="st5" d="M2104.9,1035.2c7.8,1.9,17.5,1.1,21.5-1.7c4.2-2.9,1.1-6.7-6.7-8.6s-17.5-1.1-21.5,1.7
							C2094.2,1029.5,2097.1,1033.3,2104.9,1035.2z"/>
						<path class="st6" d="M2121.6,1026.8c-7.8-1.9-17.5-1.1-21.5,1.7c-1.9,1.3-2.3,2.9-1.3,4.2c-2.7-1.9-3-4.2-0.2-5.9
							c4.2-2.9,13.9-3.6,21.5-1.7c4.2,1,7.1,2.7,8,4.4C2126.6,1028.3,2124.3,1027.4,2121.6,1026.8z"/>
					</g>
					<g>
						<path class="st4" d="M1897.3,1085.1c7.8,1.9,17.5,1.1,21.5-1.7c4.2-2.9,1.1-6.7-6.7-8.6c-7.8-1.9-17.5-1.1-21.5,1.7
							C1886.4,1079.4,1889.5,1083.2,1897.3,1085.1z"/>
						<path class="st5" d="M1897.3,1085.1c7.8,1.9,17.5,1.1,21.5-1.7c4.2-2.9,1.1-6.7-6.7-8.6c-7.8-1.9-17.5-1.1-21.5,1.7
							C1886.4,1079.4,1889.5,1083.2,1897.3,1085.1z"/>
						<path class="st6" d="M1913.9,1076.6c-7.8-1.9-17.5-1.1-21.5,1.7c-1.9,1.3-2.3,2.9-1.3,4.2c-2.7-1.9-3-4.2-0.2-5.9
							c4.2-2.9,13.9-3.6,21.5-1.7c4.2,1,7.1,2.7,8,4.4C1918.8,1078.3,1916.7,1077.3,1913.9,1076.6z"/>
					</g>
					<g>
						<path class="st4" d="M2263.6,1030.8c5.9,1.5,13.3,1,16.6-1.3c3.2-2.1,1-5.1-5-6.5c-5.9-1.5-13.3-1-16.6,1.3
							C2255.5,1026.6,2257.5,1029.3,2263.6,1030.8z"/>
						<path class="st5" d="M2263.6,1030.8c5.9,1.5,13.3,1,16.6-1.3c3.2-2.1,1-5.1-5-6.5c-5.9-1.5-13.3-1-16.6,1.3
							C2255.5,1026.6,2257.5,1029.3,2263.6,1030.8z"/>
						<path class="st6" d="M2276.4,1024.3c-5.9-1.5-13.3-1-16.6,1.3c-1.5,1-1.7,2.1-1.1,3.2c-2.1-1.5-2.3-3-0.2-4.6
							c3.2-2.1,10.5-2.7,16.6-1.3c3.2,0.8,5.3,1.9,6.1,3.2C2280,1025.5,2278.5,1024.7,2276.4,1024.3z"/>
					</g>
					<g>
						<path class="st4" d="M2185.3,1066.1c7.8,1.9,17.5,1.1,21.5-1.7c4.2-2.9,1.1-6.7-6.7-8.6s-17.5-1.1-21.5,1.7
							C2174.4,1060.3,2177.5,1064.2,2185.3,1066.1z"/>
						<path class="st5" d="M2185.3,1066.1c7.8,1.9,17.5,1.1,21.5-1.7c4.2-2.9,1.1-6.7-6.7-8.6s-17.5-1.1-21.5,1.7
							C2174.4,1060.3,2177.5,1064.2,2185.3,1066.1z"/>
						<path class="st6" d="M2202.1,1057.7c-7.8-1.9-17.5-1.1-21.5,1.7c-1.9,1.3-2.3,2.9-1.3,4.2c-2.7-1.9-3-4.2-0.2-5.9
							c4.2-2.9,13.9-3.6,21.5-1.7c4.2,1,7.1,2.7,8,4.4C2206.8,1059.2,2204.7,1058.4,2202.1,1057.7z"/>
					</g>
					<g>
						<path class="st4" d="M2123.2,939.9c3.4,1.7,9.7,2.3,13.9,1.1c4.2-1.1,4.8-3.4,1.3-5.3c-3.4-1.7-9.7-2.3-13.9-1.1
							C2120.3,935.7,2119.7,938,2123.2,939.9z"/>
						<path class="st5" d="M2123.2,939.9c3.4,1.7,9.7,2.3,13.9,1.1c4.2-1.1,4.8-3.4,1.3-5.3c-3.4-1.7-9.7-2.3-13.9-1.1
							C2120.3,935.7,2119.7,938,2123.2,939.9z"/>
						<path class="st6" d="M2138.6,936.6c-3.4-1.7-9.7-2.3-13.9-1.1c-1.9,0.6-3,1.3-3.4,2.1c-0.4-1.3,0.8-2.5,3.4-3.2
							c4.2-1.1,10.5-0.8,13.9,1.1c1.9,1,2.5,2.1,2.1,3C2140.5,938,2139.8,937.2,2138.6,936.6z"/>
					</g>
					<g>
						<path class="st4" d="M1907.6,1033.9c3.2,1.7,9.3,2.1,13.3,1s4.6-3.4,1.3-5c-3.2-1.7-9.3-2.1-13.3-1
							S1904.2,1032.1,1907.6,1033.9z"/>
						<path class="st5" d="M1907.6,1033.9c3.2,1.7,9.3,2.1,13.3,1s4.6-3.4,1.3-5c-3.2-1.7-9.3-2.1-13.3-1
							S1904.2,1032.1,1907.6,1033.9z"/>
						<path class="st6" d="M1922.1,1031c-3.2-1.7-9.3-2.1-13.3-1c-1.9,0.6-3,1.3-3.2,2.1c-0.4-1.1,0.8-2.5,3.4-3
							c4-1.1,10.1-0.6,13.3,1c1.7,1,2.5,1.9,2.1,2.9C1924,1032.1,1923.4,1031.6,1922.1,1031z"/>
					</g>
					<g>
						<path class="st4" d="M1919.8,926.5c1.5,0.8,4.4,1,6.3,0.6c1.9-0.6,2.1-1.5,0.6-2.5c-1.5-0.8-4.4-1-6.3-0.6
							C1918.5,924.6,1918.3,925.8,1919.8,926.5z"/>
						<path class="st5" d="M1919.8,926.5c1.5,0.8,4.4,1,6.3,0.6c1.9-0.6,2.1-1.5,0.6-2.5c-1.5-0.8-4.4-1-6.3-0.6
							C1918.5,924.6,1918.3,925.8,1919.8,926.5z"/>
						<path class="st6" d="M1926.6,925c-1.5-0.8-4.4-1-6.3-0.6c-1,0.2-1.3,0.6-1.5,1c-0.2-0.6,0.4-1.1,1.5-1.5
							c1.9-0.6,4.8-0.4,6.3,0.6c0.8,0.4,1.1,1,1,1.3C1927.6,925.8,1927.2,925.4,1926.6,925z"/>
					</g>
					<g>
						<path class="st4" d="M2080.1,924.3c1.3,0.6,3.4,0.8,5,0.4c1.5-0.4,1.7-1.3,0.6-1.9c-1.3-0.6-3.4-0.8-5-0.4
							C2078.9,922.7,2078.8,923.5,2080.1,924.3z"/>
						<path class="st5" d="M2080.1,924.3c1.3,0.6,3.4,0.8,5,0.4c1.5-0.4,1.7-1.3,0.6-1.9c-1.3-0.6-3.4-0.8-5-0.4
							C2078.9,922.7,2078.8,923.5,2080.1,924.3z"/>
						<path class="st6" d="M2085.6,923.1c-1.3-0.6-3.4-0.8-5-0.4c-0.8,0.2-1.1,0.4-1.3,0.8c-0.2-0.4,0.2-1,1.3-1.1
							c1.5-0.4,3.8-0.2,5,0.4c0.8,0.4,1,0.8,0.8,1.1C2086.2,923.5,2086,923.3,2085.6,923.1z"/>
					</g>
					<g>
						<path class="st4" d="M1897.9,958.9c5.9,3,16.8,3.8,24,1.9c7.2-1.9,8.2-6.1,2.3-9c-5.9-2.9-16.8-3.8-24-1.9
							C1893.1,951.9,1892,955.9,1897.9,958.9z"/>
						<path class="st5" d="M1897.9,958.9c5.9,3,16.8,3.8,24,1.9c7.2-1.9,8.2-6.1,2.3-9c-5.9-2.9-16.8-3.8-24-1.9
							C1893.1,951.9,1892,955.9,1897.9,958.9z"/>
						<path class="st6" d="M1924.2,953.6c-5.9-3-16.8-3.8-24-1.9c-3.2,1-5.3,2.3-5.9,3.8c-0.8-2.1,1.3-4.4,6.1-5.5
							c7.2-1.9,17.9-1.1,24,1.9c3.2,1.7,4.4,3.6,3.6,5.3C1927.4,955.9,1926.3,954.6,1924.2,953.6z"/>
					</g>
					<g>
						<path class="st4" d="M1776.6,954.9c3.4,1.7,9.5,2.3,13.7,1.1c4.2-1.1,4.8-3.4,1.3-5.1c-3.4-1.7-9.5-2.3-13.7-1.1
							C1773.8,950.9,1773.2,953.2,1776.6,954.9z"/>
						<path class="st5" d="M1776.6,954.9c3.4,1.7,9.5,2.3,13.7,1.1c4.2-1.1,4.8-3.4,1.3-5.1c-3.4-1.7-9.5-2.3-13.7-1.1
							C1773.8,950.9,1773.2,953.2,1776.6,954.9z"/>
						<path class="st6" d="M1791.7,951.9c-3.4-1.7-9.5-2.3-13.7-1.1c-1.9,0.6-3,1.3-3.4,2.1c-0.4-1.3,0.8-2.5,3.4-3.2
							c4.2-1.1,10.3-0.6,13.7,1.1c1.9,1,2.5,2.1,2.1,3C1793.6,953.2,1792.8,952.5,1791.7,951.9z"/>
					</g>
					<g>
						<path class="st4" d="M1683,957c2.7,1.3,7.4,1.7,10.7,0.8c3.2-1,3.6-2.7,1-4c-2.7-1.3-7.4-1.7-10.7-0.8
							C1680.8,954,1680.6,955.7,1683,957z"/>
						<path class="st5" d="M1683,957c2.7,1.3,7.4,1.7,10.7,0.8c3.2-1,3.6-2.7,1-4c-2.7-1.3-7.4-1.7-10.7-0.8
							C1680.8,954,1680.6,955.7,1683,957z"/>
						<path class="st6" d="M1694.7,954.6c-2.7-1.3-7.4-1.7-10.7-0.8c-1.5,0.4-2.3,1-2.7,1.7c-0.4-1,0.6-1.9,2.7-2.5
							c3.2-1,8-0.6,10.7,0.8c1.5,0.8,1.9,1.5,1.7,2.3C1696.2,955.5,1695.6,955.1,1694.7,954.6z"/>
					</g>
					<g>
						<path class="st4" d="M1839.5,957.4c3.2,1.7,9.3,2.1,13.3,1s4.6-3.4,1.3-5c-3.2-1.7-9.3-2.1-13.3-1S1836.3,955.7,1839.5,957.4z
							"/>
						<path class="st5" d="M1839.5,957.4c3.2,1.7,9.3,2.1,13.3,1s4.6-3.4,1.3-5c-3.2-1.7-9.3-2.1-13.3-1S1836.3,955.7,1839.5,957.4z
							"/>
						<path class="st6" d="M1854.2,954.4c-3.2-1.7-9.3-2.1-13.3-1c-1.9,0.6-3,1.3-3.2,2.1c-0.4-1.1,0.8-2.5,3.4-3
							c4-1.1,10.1-0.6,13.3,1c1.7,1,2.5,1.9,2.1,2.9C1856.1,955.7,1855.4,954.9,1854.2,954.4z"/>
					</g>
					<g>
						<path class="st4" d="M1974.1,918.2c3.2,1.7,9.3,2.1,13.3,1s4.6-3.4,1.3-5c-3.2-1.7-9.3-2.1-13.3-1
							C1971.2,914.1,1970.7,916.4,1974.1,918.2z"/>
						<path class="st5" d="M1974.1,918.2c3.2,1.7,9.3,2.1,13.3,1s4.6-3.4,1.3-5c-3.2-1.7-9.3-2.1-13.3-1
							C1971.2,914.1,1970.7,916.4,1974.1,918.2z"/>
						<path class="st6" d="M1988.6,915.1c-3.2-1.7-9.3-2.1-13.3-1c-1.9,0.6-3,1.3-3.2,2.1c-0.4-1.1,0.8-2.5,3.4-3
							c4-1.1,10.1-0.6,13.3,1c1.7,1,2.5,1.9,2.1,2.9C1990.5,916.4,1989.7,915.7,1988.6,915.1z"/>
					</g>
					<g>
						<path class="st4" d="M1821,1048.1c3.2,1.7,9.3,2.1,13.3,1s4.6-3.4,1.3-5c-3.2-1.7-9.3-2.1-13.3-1
							C1818.4,1044.1,1817.8,1046.4,1821,1048.1z"/>
						<path class="st5" d="M1821,1048.1c3.2,1.7,9.3,2.1,13.3,1s4.6-3.4,1.3-5c-3.2-1.7-9.3-2.1-13.3-1
							C1818.4,1044.1,1817.8,1046.4,1821,1048.1z"/>
						<path class="st6" d="M1835.7,1045.1c-3.2-1.7-9.3-2.1-13.3-1c-1.9,0.6-3,1.3-3.2,2.1c-0.4-1.1,0.8-2.5,3.4-3
							c4-1.1,10.1-0.6,13.3,1c1.7,1,2.5,1.9,2.1,2.9C1837.6,1046.4,1836.9,1045.7,1835.7,1045.1z"/>
					</g>
					<g>
						<path class="st4" d="M1980,1024.3c7.4,3.6,20.6,4.8,29.5,2.3s10.1-7.4,2.9-11.1c-7.4-3.6-20.6-4.8-29.5-2.3
							C1973.9,1015.6,1972.8,1020.5,1980,1024.3z"/>
						<path class="st5" d="M1980,1024.3c7.4,3.6,20.6,4.8,29.5,2.3s10.1-7.4,2.9-11.1c-7.4-3.6-20.6-4.8-29.5-2.3
							C1973.9,1015.6,1972.8,1020.5,1980,1024.3z"/>
						<path class="st6" d="M2012.2,1017.7c-7.4-3.6-20.6-4.8-29.5-2.3c-4.2,1.1-6.5,2.9-7.2,4.6c-1-2.7,1.7-5.3,7.4-6.9
							c9-2.5,22.1-1.3,29.5,2.3c4,1.9,5.3,4.4,4.6,6.5C2016.4,1020.5,2014.9,1019,2012.2,1017.7z"/>
					</g>
					<g>
						<path class="st4" d="M2202.8,943.9c4.4,2.3,12.2,3,17.3,1.5c5.1-1.3,5.9-4.4,1.5-6.7s-12.2-3-17.3-1.5
							S2198.5,941.6,2202.8,943.9z"/>
						<path class="st5" d="M2202.8,943.9c4.4,2.3,12.2,3,17.3,1.5c5.1-1.3,5.9-4.4,1.5-6.7s-12.2-3-17.3-1.5
							S2198.5,941.6,2202.8,943.9z"/>
						<path class="st6" d="M2221.7,940.3c-4.4-2.3-12.2-3-17.3-1.5c-2.5,0.6-3.8,1.5-4.2,2.7c-0.6-1.5,1-3.2,4.2-4
							c5.1-1.3,13-0.8,17.3,1.5c2.3,1.1,3.2,2.7,2.7,3.8C2224.2,942,2223.2,941,2221.7,940.3z"/>
					</g>
					<g>
						<path class="st4" d="M2133.1,963.1c5.5,2.9,15.6,3.6,22.5,1.7c6.9-1.9,7.8-5.7,2.1-8.6c-5.5-2.9-15.6-3.6-22.5-1.7
							C2128.3,956.5,2127.4,960.3,2133.1,963.1z"/>
						<path class="st5" d="M2133.1,963.1c5.5,2.9,15.6,3.6,22.5,1.7c6.9-1.9,7.8-5.7,2.1-8.6c-5.5-2.9-15.6-3.6-22.5-1.7
							C2128.3,956.5,2127.4,960.3,2133.1,963.1z"/>
						<path class="st6" d="M2157.7,958.2c-5.5-2.9-15.6-3.6-22.5-1.7c-3,1-5,2.1-5.5,3.4c-0.8-2.1,1.3-4,5.7-5.3
							c6.9-1.9,17-1.1,22.5,1.7c3,1.5,4.2,3.2,3.4,5C2160.7,960.3,2159.6,959.1,2157.7,958.2z"/>
					</g>
					<g>
						<path class="st4" d="M2073.6,971.7c4.2,2.1,11.6,2.7,16.8,1.3c5.1-1.3,5.7-4.2,1.5-6.3s-11.6-2.7-16.8-1.3
							C2070.2,966.8,2069.4,969.6,2073.6,971.7z"/>
						<path class="st5" d="M2073.6,971.7c4.2,2.1,11.6,2.7,16.8,1.3c5.1-1.3,5.7-4.2,1.5-6.3s-11.6-2.7-16.8-1.3
							C2070.2,966.8,2069.4,969.6,2073.6,971.7z"/>
						<path class="st6" d="M2091.9,968.1c-4.2-2.1-11.6-2.7-16.8-1.3c-2.3,0.6-3.8,1.5-4.2,2.7c-0.6-1.5,1-3,4.2-4
							c5.1-1.3,12.6-0.8,16.8,1.3c2.3,1.1,3,2.5,2.5,3.6C2094.4,969.6,2093.4,968.7,2091.9,968.1z"/>
					</g>
				</g>
			</g>
		</g>
	</g>
	<g id="crBoard">
		<ellipse class="st7" cx="1702.3" cy="928.9" rx="161.8" ry="13.8"/>
		<g id="chart">
			<g>
				<path class="st8" d="M1702.4,934.5c-3,0-5.3-2.4-5.3-5.3V710.8c0-3,2.4-5.3,5.3-5.3l0,0c3,0,5.3,2.4,5.3,5.3v218.4
					C1707.7,932.2,1705.3,934.5,1702.4,934.5L1702.4,934.5z"/>
				<path class="st8" d="M1818.1,929.4c-2.9,0.9-5.9-0.7-6.7-3.5l-64.7-208.6c-0.9-2.9,0.7-5.9,3.5-6.7l0,0c2.9-0.9,5.9,0.7,6.7,3.5
					l64.7,208.6C1822.5,925.5,1820.9,928.5,1818.1,929.4L1818.1,929.4z"/>
				<path class="st8" d="M1588.6,929.4c2.9,0.9,5.9-0.7,6.7-3.5l64.7-208.6c0.9-2.9-0.7-5.9-3.5-6.7l0,0c-2.9-0.9-5.9,0.7-6.7,3.5
					L1585,922.7C1584.2,925.5,1585.8,928.5,1588.6,929.4L1588.6,929.4z"/>
			</g>
			<g class="st9">
				<path class="st10" d="M1702.4,866.4c-5.6,0-10.3-4.9-10.3-13.4v-76.4c0-8.6,4.6-15.5,10.3-15.5l0,0c5.6,0,10.3,7,10.3,15.5V853
					C1712.6,861.6,1708,866.4,1702.4,866.4L1702.4,866.4z"/>
			</g>
			<g class="st9">
				<g class="st11">
					<g>
						<path class="st8" d="M1762,863.6c-5.5,1.5-11.2-2.1-13.4-10.4l-19.3-73.9c-2.2-8.3,0.5-16.3,6-17.7l0,0
							c5.5-1.5,11.7,4.2,14,12.5l19.4,73.9C1770.8,856.2,1767.6,862.1,1762,863.6L1762,863.6z"/>
					</g>
				</g>
			</g>
			<g class="st9">
				<g class="st11">
					<g>
						<path class="st8" d="M1644.4,863.6c5.5,1.5,11.2-2.1,13.4-10.4l19.4-73.9c2.2-8.3-0.5-16.3-6-17.7l0,0
							c-5.5-1.5-11.7,4.2-14,12.5l-19.4,73.9C1635.6,856.2,1638.8,862.1,1644.4,863.6L1644.4,863.6z"/>
					</g>
				</g>
			</g>
			<rect x="1530" y="527.4" class="st12" width="344.7" height="236.3"/>
			<path class="st8" d="M1882.8,522.9c0,5.2-7,9.6-15.5,9.6h-329.7c-8.6,0-15.5-4.3-15.5-9.6l0,0c0-5.2,7-9.6,15.5-9.6h329.7
				C1875.8,513.3,1882.8,517.6,1882.8,522.9L1882.8,522.9z"/>
			<path class="st8" d="M1882.8,768.2c0,6.2-7,11.2-15.5,11.2h-329.7c-8.6,0-15.5-5-15.5-11.2l0,0c0-6.2,7-11.2,15.5-11.2h329.7
				C1875.8,757.1,1882.8,762.1,1882.8,768.2L1882.8,768.2z"/>
			<circle class="st8" cx="1702.4" cy="512.4" r="8.9"/>
			<g>
				<g>
					<g>
						<rect x="1546.9" y="657.9" class="st13" width="141.6" height="82.1"/>
						<line class="st13" x1="1546.9" y1="671.6" x2="1688.5" y2="671.6"/>
						<line class="st13" x1="1546.9" y1="685.3" x2="1688.5" y2="685.3"/>
						<line class="st13" x1="1546.9" y1="698.9" x2="1688.5" y2="698.9"/>
						<line class="st13" x1="1546.9" y1="712.7" x2="1688.5" y2="712.7"/>
						<line class="st13" x1="1546.9" y1="726.4" x2="1688.5" y2="726.4"/>
						<line class="st13" x1="1664.9" y1="740.1" x2="1664.9" y2="657.9"/>
						<line class="st13" x1="1641.4" y1="740.1" x2="1641.4" y2="657.9"/>
						<line class="st13" x1="1617.7" y1="740.1" x2="1617.7" y2="657.9"/>
						<line class="st13" x1="1594.1" y1="740.1" x2="1594.1" y2="657.9"/>
						<line class="st13" x1="1570.6" y1="740.1" x2="1570.6" y2="657.9"/>
					</g>
					<g>
						<polygon class="st14" points="1632.2,740.7 1653.6,679.8 1674.9,740.7 						"/>
						<polygon class="st15" points="1610.9,740.7 1632.2,690.5 1653.5,740.7 						"/>
						<polygon class="st16" points="1581.9,740.7 1603.4,663 1624.7,740.7 						"/>
						<polygon class="st17" points="1547.3,740.7 1568.6,674.3 1590,740.7 						"/>
					</g>
				</g>
				<g>
					<g>
						<rect x="1705.9" y="740.2" class="st18" width="143.8" height="1.5"/>
						<rect x="1705.9" y="728.4" class="st18" width="143.8" height="1.5"/>
						<rect x="1705.9" y="716.8" class="st18" width="143.8" height="1.5"/>
						<rect x="1705.9" y="705.1" class="st18" width="143.8" height="1.5"/>
						<rect x="1705.9" y="693.4" class="st18" width="143.8" height="1.5"/>
						<rect x="1705.9" y="681.7" class="st18" width="143.8" height="1.5"/>
						<polygon class="st18" points="1849.7,670 1705.9,670.1 1705.9,671.6 1849.7,671.6 						"/>
						<rect x="1705.9" y="658.4" class="st18" width="143.8" height="1.5"/>
					</g>
					<g>
						<polygon class="st14" points="1705.9,719.6 1721.8,719.6 1721.8,741.8 1705.9,741.8 						"/>
						<polygon class="st19" points="1724.2,710 1740.1,709.9 1740.1,741.8 1724.2,741.8 						"/>
						
							<rect x="1742.5" y="687.7" transform="matrix(1 -1.342774e-03 1.342774e-03 1 -0.9581 2.3511)" class="st14" width="15.9" height="54"/>
						
							<rect x="1761" y="695.1" transform="matrix(1 -1.114787e-03 1.114787e-03 1 -0.7997 1.9725)" class="st19" width="15.9" height="46.5"/>
						
							<rect x="1779.3" y="718.3" transform="matrix(1 -1.900518e-03 1.900518e-03 1 -1.3841 3.398)" class="st14" width="15.9" height="23.3"/>
						<polygon class="st19" points="1797.2,709.5 1813,709.5 1813,741.5 1797.2,741.5 						"/>
						
							<rect x="1815.5" y="695" transform="matrix(1 -1.141657e-03 1.141657e-03 1 -0.8188 2.0822)" class="st14" width="15.9" height="46.5"/>
						
							<rect x="1833.8" y="664.2" transform="matrix(1 -1.248614e-03 1.248614e-03 1 -0.8762 2.3002)" class="st19" width="15.9" height="77.3"/>
					</g>
				</g>
				<g>
					<g>
						<path class="st20" d="M1738.3,587.1c-0.4,1.4-1.2,2.7-2.1,3.6l7.2,10.2c3.7-3.2,6.3-7.5,7.3-12.5L1738.3,587.1z"/>
						<path class="st21" d="M1730.8,574.2c4.3,0.9,7.5,4.5,7.9,8.8l12.5,1.4c0-0.1,0-0.3,0-0.4c0-11.7-8.9-21.3-20.3-22.3
							L1730.8,574.2L1730.8,574.2z"/>
						<path class="st22" d="M1721.5,577.3c1.4-1.5,3.2-2.7,5.3-3.1v-12.5c-6.6,0.6-12.5,4.2-16.2,9.3L1721.5,577.3z"/>
						<path class="st23" d="M1732.8,593.2c-1.3,0.5-2.6,0.9-4,0.9c-5.5,0-10-4.5-10-10c0-1.2,0.2-2.2,0.5-3.2l-10.8-6.4
							c-1.4,2.9-2.1,6.2-2.1,9.6c0,12.4,10,22.4,22.4,22.4c4.2,0,8-1.2,11.3-3.1L1732.8,593.2z"/>
					</g>
					<g>
						<rect x="1707.3" y="611.6" class="st21" width="36.1" height="3.7"/>
						<rect x="1707.3" y="623.2" class="st22" width="36.1" height="3.7"/>
						<rect x="1707.3" y="634.9" class="st23" width="36.1" height="3.7"/>
					</g>
					<g>
						<g>
							<path class="st24" d="M1838,564.2c-16.7-17.1-43.9-17.4-60.6-0.4c-5,5.1-8.5,11.2-10.5,17.7l0,0c0,0-0.4,1.3-0.7,2.7v0.1
								c-0.3,1.3-0.6,2.8-0.7,3.6c-0.1,0.9-0.2,1.7-0.2,2.2c-0.1,0.5-0.1,1.2-0.1,1.7c-0.1,0.1-0.1,0.3-0.1,0.4s0,0.1,0.1,0.2
								c-0.6,11.9,3.5,24.2,12.5,33.3c16.7,17.1,43.9,17.4,60.6,0.4C1854.7,609.2,1854.7,581.5,1838,564.2z M1770.2,578.6
								c0.1,0.1-0.4,0.6-0.7,1.1c0.2-0.4,0.3-1,0.5-1.4C1770.1,578.5,1770.1,578.6,1770.2,578.6z M1767.9,584.9c0,0.2,0,0.4-0.1,0.6
								c0,0,0,0,0,0.1C1767.8,585.3,1767.8,585.1,1767.9,584.9z M1767.8,595.5c0-0.2-0.6-0.3-1.1-0.4c0-0.3,0-0.5,0-0.9
								c0.4,0.3,1,0.5,1.1,0.5c0.1-0.1,0.4,0.5,0.5,0.7C1768.4,595.9,1767.8,595.9,1767.8,595.5z M1778.7,624.3
								c-1-1.1-1.9-2.1-2.9-3.2c0.2,0,0.5,0.1,0.6,0.2c0.3,0.2,1-0.1,1.2-0.1c0.1,0-0.4-0.6-0.6-0.7c-0.2-0.1-0.1-0.3,0-0.2
								s1.1,0.2,1.4,0.3c0.3,0,1.7,1.2,2,1.3c0.4,0.1,2.2-0.6,2.7-1c0.5-0.3,1.5-0.3,1.7-0.2s0.9-0.4,1-0.4c0.2-0.1,0.9,0.1,1.1,0
								c0.2,0,0.5,0.1,0.6,0.2c0.1,0.1,1.1-0.3,1.5-0.3s0.6-0.3,0.5-0.4c0-0.1,0.6,0.2,0.9,0.3c0.2,0.1,0.7,0.5,0.7,0.6
								s0.6,1.1,0.7,1.3c0,0.3,1,1.7,1.2,1.9c0.3,0.2,1.1,0.3,1.3,0.2c0.2-0.1,0.4,0.2,0.3,0.3s1.1,1.2,1.5,1.1
								c0.4-0.1,1.2,0.2,1.2,0.3s1.2,0.2,1.5,0.2c0.4,0,1.8,0.5,2.1,0.7c0.4,0.2,0.9,0.9,1,1s0.4,0.3,0.6,0.4
								c0.1,0.1,0.9,1.3,1.3,1.6s1.2,2,1.7,2.6c0.6,0.6,1.6,1.1,1.6,1s0.6,0.4,0.5,0.6c-0.1,0.2,0.2,0.9,0.3,0.9
								c0.1-0.1,0.4,0.5,0.6,0.6s1.3,1.1,1.7,1.4C1799.1,637.4,1787.5,633.2,1778.7,624.3z M1836.6,624.7
								c-6.5,6.5-14.6,10.4-22.9,11.6c-0.2-0.1-0.7-0.6-0.9-0.9s0.1-0.9,0-1.1c-0.1-0.2-0.6-0.7-0.9-0.7c-0.2,0-0.7-0.9-1.2-1.2
								c-0.4-0.3-0.1-1.3-0.3-1.6c-0.2-0.3,0.1-1.4,0.2-1.7c0-0.3-0.6-1.3-0.9-1.4c-0.2-0.1,0-0.6,0.1-0.7c0.1-0.1,0.2-0.4,0.2-0.5
								s-0.1-0.6-0.1-0.7c0-0.2-0.6-1.3-0.6-1.6s-0.3-1-0.5-1.2c-0.1-0.1-0.3-0.9-0.4-1.1c0-0.2,0.3-1.2,0.3-1.4
								c0.1-0.2-0.9-1.5-1.3-2c-0.3-0.4-0.7-1.2-0.9-1.4c-0.1-0.1,0-0.4,0-0.5s-0.3-0.7-0.4-1c0-0.2-0.1-1.1-0.2-1.2
								c-0.1-0.1-0.3-0.4-0.5-0.7c0,0,0,0-0.3-0.3c-0.4-0.4-0.4-0.4-0.4-0.4c-0.4-0.2-1.3-0.3-1.3-0.1s-0.7,0.2-1.1,0.3
								s-0.9,0.5-1,0.7c-0.1,0.1-1,0.2-1.3,0.3s-0.9,0.5-1.1,0.5c-0.1,0-1.1-0.7-1.8-0.5c-0.6,0.1-2,0.2-2.3,0.1
								c-0.3-0.2-1.6,0.1-2,0.2c-0.4,0.1-0.7,0.4-0.7,0.5s-0.9-0.1-1.1-0.1c-0.3,0-0.9,0.4-0.7,0.5c0.1,0.1-0.3,0.4-0.4,0.3
								c-0.2,0-0.3,0.3-0.3,0.5c-0.1,0.1,0.2,1.3,0.2,1.6s-0.5,0.2-0.7,0.3s-0.4,0.6-0.5,1c0,0.2-1.1-0.3-1.4-0.7s-1.4-0.9-1.7-0.5
								c-0.3,0.2-1.2-0.4-1.4-0.7c-0.2-0.3-1,0-1.2,0.2c-0.2,0.1-0.1,0.9,0,1.2c0.1,0.2-1.6,1.1-2.2,0.1s-1-2.6-0.9-2.8
								c0-0.2,0.9-1.2,1.1-1.2s0.3-0.3,0.3-0.4s0.7-0.7,1-0.9c0.3-0.1,1.4,0.4,1.7,0.3c0.3-0.1-0.2-0.9-0.4-1.1
								c-0.1-0.2-0.6-0.4-0.9-0.5c-0.1-0.1-0.7-1.5-0.6-2s-0.1-1.4-0.2-1.5s0.1-0.4,0.1-0.5s-0.9-0.9-1-1.2c0-0.3,0.1-1.3,0.2-1.6
								s-0.3-1-0.4-1c-0.2,0-0.1-1.1,0.1-1.5s0.7-0.3,0.6-0.2c0-0.1,0.2-0.7,0.2-1.1s-0.5-0.5-0.7-0.5s-0.6-0.5-0.5-0.7
								s-0.1-0.7-0.2-0.7c-0.1-0.1,0.7-0.5,0.7-1.1c0-0.4,0.5,0.4,0.6,1c0.1,0.4,0.7,0.4,0.7,0.2c0.1-0.2,0.4-0.1,0.5,0
								c0.1,0,0.2-0.4,0.4-0.4c0.2-0.1,0-0.5-0.1-0.7s-0.9-0.1-1.2-0.2c-0.2-0.1-1.4-1.2-1.6-1.4s-0.9-0.3-0.9-0.1
								c0,0.1-0.9-0.3-1.1-0.3c-0.3,0-0.6-0.3-0.7-0.4c-0.1-0.1-1.2-0.2-1.5-0.3s-0.4,0.1-0.4,0.2c0.1,0.1-0.2,0.5-0.3,0.6
								s-0.9-0.3-1.1-0.5s-0.9,0.3-1.2,0.3c-0.3-0.1-0.6,0.4-0.7,0.3c-0.2,0-0.6,0.2-0.6,0.3s1.6,1.7,1.9,2.2s0.4,1.3,0.2,1.4
								c-0.1,0.1,0.2,0.3,0.3,0.2c0.1-0.1,0.2,0.7,0.5,1.1s-0.3,0.3-0.7,0.1c-0.3-0.2-1.1-0.3-1-0.2c0,0.1-0.4,0.1-0.4,0.3
								c0,0.1-1,0.3-1.4,0.4c-0.3,0.1-1.2-0.5-1.4-0.5c-0.2,0.1-0.2-0.1-0.3-0.2s-0.1-1-0.1-1.3s-0.2-1.5-0.2-1.8s-0.2-0.9-0.3-1
								c-0.1,0,0.4-1.2,0.6-1.5c0.1-0.3-0.3-1.3-0.5-1.5s-0.7-0.4-0.9-0.4c-0.1,0.1,0.2-0.4,0.4-0.4c0.2-0.1,0.4-0.7,0.7-0.7
								c0.3-0.1,0.9-0.2,1.3-0.3c0,0,0,0,0.4,0.5c0.7,1,0.7,1,0.7,1c-0.3,1,0,1.7,0.2,1.5s1.8-0.9,2.3-0.9c0.5-0.1,0-0.7,0-1.1
								c-0.1-0.3-0.6-0.9-0.9-0.9s0.3-0.4,0.5-0.4s0.1-0.4,0.2-0.5c0-0.1-0.4-0.6-0.4-0.9c0-0.1-0.4,0-0.5-0.1s-0.9,0.1-1.1,0.2
								c-0.2,0.1-0.6-0.2-0.6-0.4c0-0.1-0.5-0.5-0.9-0.5c-0.2-0.1-0.9,0.3-1.1,0.4c-0.2,0.2-0.7-0.1-1-0.1s-0.9,0.6-1,0.9
								c-0.1,0.2-1-0.1-1.1,0.4c0,0.1-0.1,0.2-0.1,0.2c0.1-1.7,0.3-3.5,0.6-5.2c0.1,0,0.1,0,0.2,0s0.1-0.3,0.3-0.3s0.7-0.5,0.9-0.5
								c0.2-0.1-0.2,0.5-0.4,0.9c-0.2,0.2,0.3,0.7,0.6,0.6s0.9-0.5,0.9-0.7c0-0.1,0.7-0.5,1-0.7s1.2,0.3,1.4,0.3
								c0.2,0.1,0.7,0.6,0.9,0.7c0.1,0.2,0.9,0,0.9-0.2s0.3,0.2,0.1,0.3c-0.2,0.2,0.5,0.6,0.9,0.5c0.3-0.1,0.5,0.4,0.5,0.6
								s0.4,0.5,0.3,0.7c0,0.2,1.7,0.9,2.3,1.4c0.5,0.6,1.4,0.7,1.5,0.6c0.1-0.1,0.7-0.4,0.9-0.4c0.2,0.1,0.2-0.3,0.2-0.5
								s-0.1-0.6-0.2-1.1c-0.1-0.4-1-1.9-1.1-2.1c-0.1-0.2,0.5-0.6,0.5-0.7c0-0.2,0.1-0.9,0.1-1c0-0.2,0.4-1.3,0.4-1.6
								s-0.3-1.4-0.3-1.7s-0.2,0-0.5,0s-0.4-0.2-0.4-0.3s0.7-0.5,1.1-0.6s0.4-0.9,0.1-0.7c-0.3,0-0.2,0-0.1-0.1
								c0.1,0-0.2-0.5-0.4-0.5c-0.1,0,0-1.3-0.6-1.6c-0.6-0.4-0.9-1.3-0.6-1.4c0.2-0.2-0.4-0.7-0.7-0.5c-0.2,0.1-0.1-0.1-0.1-0.2
								c0-0.2-0.4-0.7-0.5-0.9c-0.1,0,0.1-0.5,0.1-0.7s0.2-0.9,0.3-1.1c0.1-0.2-0.2-0.7-0.4-0.5c-0.1,0.2-0.6,0.5-0.9,0.5
								c-0.1,0-0.9,0.5-1,0.9c-0.1,0.3-0.5-0.4-0.3-0.7s-0.4-0.5-0.7-0.2c-0.3,0.3-1.1,0.9-1.2,1.1c-0.1,0.2-0.6,0.3-0.7,0.4
								c-0.1,0.1-0.6,1.2-1.1,1.6c-0.1,0.1-0.3,0.3-0.5,0.5c1.9-4.2,4.6-8,7.9-11.4c5.2-5.2,11.4-8.7,18-10.5c0,0.1,0,0.1,0,0.1
								c0.1,0.1,0.4-0.1,0.7-0.3c1.1-0.2,2.1-0.5,3.1-0.6c0,0.1,0,0.1,0.1,0.1c0.2,0.2-0.3,0.9-0.2,1.1s-0.2,0.5-0.3,0.5
								s-0.4,0.7-0.6,1.1c-0.2,0.3-0.4,1.1-0.5,1.2c-0.1,0.2,0,0.7,0,1c0.1,0.2-0.1,0.7-0.1,0.9c-0.1,0.1,0.5,0.6,0.7,0.6
								c0.2-0.1-0.3,0.2-0.6,0.3c-0.3,0.1-0.1,0.6-0.1,0.7c0,0.2-0.3,0.1-0.4,0c-0.2-0.2-0.7,0.1-0.6,0.3s-0.4,0.3-0.6,0.4
								c-0.2,0-0.1,1.3-0.1,1.7s-0.7,1.6-1.1,1.7c-0.2,0.1,0.1,0.9,0.3,0.7c0.2-0.1-0.4,0.3-0.6,0.7c-0.3,0.3-0.7,1.6-0.9,2
								c0,0.4-0.4,0.3-0.5,0.2s-0.5,0.1-0.7,0.1c-0.1,0.1,0.4,1.1,0.4,1.4s-1-0.2-1.5,0.1s-1.6,0.5-1.8,0.6s-1,0.1-1.3,0
								c-0.2,0-0.9,0.4-1,0.5c-0.2,0.2-0.3,1.1-0.4,1.4c0,0.3-0.2,0.5-0.3,0.6c0,0.1,0,1.4,0,1.8s0.4,1.8,0.5,2.1s-0.1,0.6-0.1,0.6
								c-0.1,0.1,0.1,0.4,0.2,0.4c0.1,0.1-0.2,1.2,0.1,1.6s1.2,1.1,1.5,1.4s1.1,0.6,1.3,0.4s0.5,0.4,0.6,0.5
								c0.1,0.2,0.4,0.1,0.5,0.3c0.1,0.1-0.2,0.7-0.3,1c-0.1,0.2,0,0.9,0.1,1.1c0.1,0.1-0.3,0.7-0.3,1.1c-0.1-0.1-0.2-0.4-0.2-0.5
								c-0.1-0.3-0.5-0.5-0.6-0.5s-1.1-0.9-1.4-1s-1-0.1-1.1-0.1s-0.2-0.3-0.3-0.5c-0.1-0.1-0.5,0.2-0.6,0.4c0,0.2,0.9,1.2,1,1.5
								c0.2,0.3,0.9,0.4,1,0.4c0.1-0.1,0.5,0.4,0.4,0.6c-0.1,0.2,0.4,1,0.6,1.1s0.3,0.5,0.3,0.7c0,0.1,0.6-0.5,1-0.9
								c0.3-0.3,0.6-0.4,0.6-0.3s-0.4,0.7-0.4,1c0,0.2-0.1,1,0,1.1c0,0.2,0.5,0.2,0.6,0.1c0.1-0.2,1,0.3,1.2,0.2
								c0.2,0,0.5,0.3,0.5,0.5c0,0.1-0.9,0.7-1.1,1.2c-0.2,0.3,0.1,1.4,0.3,1.7c0.2,0.3,1.1,1,1.3,1.1c0.2,0.2,1-0.3,1.2-0.3
								s0.7-0.7,0.9-0.7c0.2-0.1-0.1-1.2-0.3-1.6c-0.2-0.4-0.2-1.6-0.3-2c-0.1-0.3,0.6-1,0.6-1.3s0.6,0.5,1.1,0.7
								c0.4,0.3,1.1-0.4,0.6-0.6c-0.4-0.2-0.4-0.5-0.3-0.4s1.1-0.2,1.4-0.2c0.3,0.1,0.6,0.5,0.5,0.6s0.3,0.6,0.5,0.5
								s-0.2-0.9-0.1-1.1c0.1-0.2-0.1-0.7-0.2-0.6c-0.1,0-0.2-0.4,0-0.4s-1-0.4-1.5-0.4s-0.2-0.1,0.6-0.1c0,0,0,0,0.9,0.2
								c0.1,0,0.5,0.2,0.6,0.3c0.2,0.1,0.2,0.1,0.2,0.1c0.2,0.1,0.7,0.5,1,0.7c0.1,0.1,0.6,0.1,0.7,0c0.1-0.2,0.3-0.2,0.3-0.1
								c0,0,0.4,0.2,0.6,0.1s-0.2-0.6-0.4-0.5s-0.7-0.5-1.1-0.7c-0.3-0.3-0.4-0.6-0.3-0.7c0,0,0.5,0.6,0.7,0.7
								c0.1,0.1,0.4,0.3,0.7,0.4c0,0,0,0,0.3,0c0.6-0.1,0.6-0.1,0.6-0.1c0.3-0.7,1.2-1.3,1.3-1.2c0.1,0.1,0.5-0.2,0.3-0.4
								c-0.1-0.2,0.1,0,0.2,0.1s0.3,1,0.4,1.3c0.2,0.3-1.2,1.4-1.7,1.8c-0.5,0.4-1.2,1.5-1.1,1.7s-1.3,0.4-1.8,0.6
								c-0.5,0.2-1.5-0.1-1.6-0.1s-0.2-0.3-0.4-0.4c-0.2-0.1-1.1,0.7-1.2,1.1s-1.3,1.8-1.4,2.2s-0.7,0.7-1,0.9s-0.1,1-0.1,1.2
								c-0.1,0.2,0.3,1.2,1,1.9c0,0,0,0,0.2,0.7c0.2,0.4,0.2,0.4,0.2,0.4c-0.1,0.7,0.6,2.4,0.7,2.9c0.1,0.3,1.7,2.2,2.2,2.8
								s2.2,1.4,2.7,1.6c0.4,0.2,1.9,0.2,2.4,0.1c0.4-0.1,1.3-1,1.6-1.2c0.3-0.3,0.3-0.9,0.1-1.4c0,0,0,0,0.4-0.3
								c0.2-0.2,0.2-0.2,0.2-0.2c0.2,0.2,1.1-0.2,1.3-0.2c0.2-0.1,0.5-0.5,0.6-0.6s1.4,0.9,1.6,1.3c0.2,0.4,1.7,1.4,2.1,1.6
								c0.4,0.3,1.8,0.9,2.1,1.2c0.4,0.3,1.3,1.8,1.6,2.2c0.3,0.4,2,1.1,2.6,1.4c0.5,0.2,1.5,1.1,1.7,1.2c0.2,0.2,1.9,0.9,2.6,1.2
								s2.1-1,2.2-1.5c0.1-0.6-0.2-2.3-0.2-2.8s-0.6-1.4-0.7-1.6c-0.1-0.2-0.1-0.9,0-1s-1.3-2.2-1.3-3c0-0.7-1.5-3-2.1-3.6
								s-1.7-2.1-1.9-2.6c-0.2-0.4-0.3-1.4-0.3-1.6s-0.4-2.3-0.6-3.1c-0.2-0.7-1-2-1.3-2.2s-1,0.2-1,0.4s-0.4,0.9-0.5,1.1
								c-0.2,0.2-1.5-0.4-1.9-0.4s-1.8-0.9-2.1-1c-0.3-0.1-1.3-0.2-1.5-0.2s-0.9-0.6-1.1-0.7s0.3-0.1,0.6,0.1s1.8,0.5,2.3,0.6
								s2,0.6,2.4,0.9c0.4,0.2,1.4-1.1,1.6-1.7c0.2-0.5,0.3-1.4,0.2-1.5c-0.1-0.1,0.2-1.1,0.2-1.3c0-0.3-0.5-1.2-0.5-1.4
								s-0.9-0.7-1.3-0.9c-0.3-0.1-1.1,0.3-1.1,0.5s-0.9-0.1-1.2-0.2c-0.3-0.1-1,0.1-1.2,0s-0.2-0.5-0.2-0.6s1.5-0.3,2-0.2
								s1.4,0.4,1.5,0.4c0.1,0.1,0.9-0.5,0.9-0.9c0-0.2,0.2-0.4,0.4-0.3c0,0,0,0,0.2-0.2c0.5-0.9,0.5-0.9,0.5-0.9
								c0.7,0.1,1.2,0.3,1.3,0.4c0.1,0.1,0.6,0.2,0.7,0.1c0.2-0.1,0.7,0.3,1,0.4c0.2,0.1,1.3,0.4,1.7,0.7c0.4,0.2,1.4,0.5,1.6,0.6
								s0.7,0.5,1,0.6c0.1,0.1,0.6,0.1,0.7,0c0.1-0.2-0.6-1.6-1-2.1s-0.4-1.1-0.3-1.2c0.1-0.1-0.1-0.4-0.2-0.4
								c-0.1-0.1,0.3-0.5,0.2-0.6c-0.1-0.1-0.6-1.1-0.6-1.3s0.2-1.2,0.3-1.4c0.1-0.2,1-0.3,1.3-0.2s1,0.5,1,0.6s0.7,0.3,1.1,0
								c0.2-0.2,0.6,0,0.9,0.1c0.1,0.1,0.9,0.2,1.1,0.2c0.2,0.1,0.6,0.5,0.7,0.7c0.1,0.1,0.6,0.7,0.9,0.9c0.2,0.1,1.8,0.2,2.3,0.2
								s-0.1-1-0.5-1.1s-1.4-0.2-1.7-0.2c-0.3-0.1-1-0.7-1.1-1c-0.1-0.2,0.5-0.3,0.9-0.3s0.9,0.1,1,0.2s0.5-1.6-0.1-2.3
								s-1.1-1.8-1.2-2s-0.5-0.3-0.6-0.2s-0.3-0.6-0.1-1c0.3-0.3,0.1-1.8,0-2.3c-0.2-0.5-0.1-1.1-0.1-1.2c0-0.1-0.5-1.1-0.9-1.5
								c-0.3-0.3-1-0.6-1.2-0.9c-0.2-0.1-0.9-0.3-1-0.3c-0.2-0.1-0.6-0.4-0.7-0.6c0-0.1,0.1-0.4,0.1-0.5s-0.1-0.7-0.2-0.9
								c-0.2-0.1,0.4,0,0.6,0s1.2,0.6,1.5,0.6c0.2-0.1,0-1.7-0.7-2.2c-0.6-0.5-1.2-1.6-1.1-1.8s-0.1-1.2-0.3-1.7
								c1.3,0.6,2.6,1.3,3.7,2.1c0,0.3-0.1,0.7-0.1,1s-0.2,1.4-0.2,1.7c0,0.2,0.2,0.6,0.3,0.6c0,0,0,0-0.1,0.1s0.3,0.6,0.5,0.6
								s0-0.7,0.1-1.1c0-0.2,0.3-0.6,0.3-0.6c0.1,0,0.2-0.3,0.4-0.7c0-0.1,0-0.4-0.2-0.7c2.3,1.6,4.6,3.4,6.6,5.5
								c1.9,2,3.6,4.2,5.1,6.4c0,0.2-0.1,0.4-0.1,0.4c0,0.1-0.4,0.6-0.5,0.6s0,0.3,0,0.4s0.2,0.3,0.3,0.1c0-0.1,0.6-0.3,1.2-0.4
								c0.6,1.1,1.2,2.1,1.7,3.2c-0.3,0.4-0.6,1.1-0.4,1.2c0.1,0.1-0.1,1-0.2,1.2s0.1,1.2,0.3,1.5c0.1,0.3-0.3,0.6-0.4,0.9
								c-0.1,0.2-0.1,0.9,0,1.1c0.2,0.2,0.1,0.2-0.2,0.2c0,0,0,0,0,0.4c0,0.5,0,0.5,0,0.5c0.3,0.6,0.5,1.7,0.4,1.9s0.7,1.1,1.1,1.5
								c0.3,0.3,0.9,0.6,1.2,0.6c0,0,0,0,0.3,0.2c0.6,0.5,0.6,0.5,0.6,0.5c0.3,0.5,1,0.6,1.2,0.6c0,0,0.1,0,0.1-0.1
								C1850,601.6,1846.2,615,1836.6,624.7z"/>
							<path class="st24" d="M1781.6,602.5L1781.6,602.5C1781.6,602.6,1781.6,602.6,1781.6,602.5z"/>
							<path class="st24" d="M1834.8,570.8c0.1,0.2,0.2,0.3,0.2,0.2c0.1-0.1,0.9-0.1,1,0c0.1,0,0.2-0.6,0.3-0.9
								c0.2-0.2-0.3-1-0.5-0.9s-0.9-0.1-1.1-0.1c-0.2,0.1-0.1,0.5,0,0.7C1835,570.2,1834.7,570.6,1834.8,570.8z"/>
							<path class="st24" d="M1839.5,575.8c-0.3-0.1-0.7-0.7-0.6-1c0.1-0.1-0.6-0.6-1-0.5c-0.2,0.2,0,1.6,0.5,2
								c0.6,0.4,0.7,0.2,0.6,0.1c0-0.2,0.5-0.3,0.6-0.4C1840,576.1,1839.9,576,1839.5,575.8z"/>
							<path class="st24" d="M1838.2,577.8C1838.3,577.7,1838.2,577.7,1838.2,577.8c-0.2-0.1-0.2-0.8-0.4-1.2s-0.5-0.7-0.7-1
								c-0.2-0.2-0.9-1-1-1.2s-0.9-0.2-1.1-0.1s0.5,2.1,0.3,2.8c-0.2,0.6,0.5,1.7,0.9,1.8c0.3,0.1,1.3-0.6,1.6-0.7
								C1838.2,578.2,1838.2,577.9,1838.2,577.8z"/>
							<path class="st24" d="M1839.3,579.6c-0.2,0-1.9,0.5-2.3,0.7s-0.6,0.9-0.5,1c0.1,0.2,1.6-1,2.1-1.2
								C1839.2,579.8,1839.5,579.6,1839.3,579.6z"/>
							<path class="st24" d="M1829.5,567.8c0,0.3,0.5,0.6,0.7,0.7s0.3,0,0.2-0.3C1830.4,568,1829.4,567.4,1829.5,567.8z"/>
							<path class="st24" d="M1832.8,569c-0.1-0.3-0.5-0.3-0.9-0.1c-0.3,0.2,0.6,1.1,0.9,1.1C1833.2,570.1,1832.9,569.3,1832.8,569z
								"/>
							<path class="st24" d="M1840,573.4c0.6-0.1,1.3-1,0.7-1.5C1840.2,572,1839.4,572.9,1840,573.4z"/>
							<path class="st24" d="M1830.6,579.8C1830.6,579.8,1830.6,579.7,1830.6,579.8C1830.5,579.8,1830.5,579.8,1830.6,579.8z"/>
							<path class="st24" d="M1834.8,579.8c-0.4-0.2-1.3-0.3-2-0.2c0,0,0,0-0.4-0.1s-0.4-0.1-0.4-0.1c-0.4-0.2-1.1,0-1.2,0
								c-0.1-0.1,0.1,0.4-0.1,0.4c0.1,0,0.4,0,0.7-0.1c0.6-0.1,3.5,1.3,3.8,1.3C1835.5,580.9,1835.2,580,1834.8,579.8z"/>
							<path class="st24" d="M1826.7,582.4c-0.1-0.2-0.7-0.6-1-0.6c-0.2,0-0.3,0.2-0.2,0.6C1825.6,582.8,1826.8,582.7,1826.7,582.4z
								"/>
							<path class="st24" d="M1827.6,599.9c-0.1-0.1-0.3-0.4-0.2-0.5c0-0.1-0.1-0.4-0.4-0.7c-0.2-0.3-1.8-1.4-2.1-1.6
								c-0.2-0.2-0.1,0.3,0,0.6c0.2,0.3,0,1.4,0.1,1.7s0.5,1.2,0.7,1.2c0.2,0.1,0.5,0.6,0.5,0.9c0.1,0.2,1.1,0.9,1.4,1.1
								c0.2,0.2,1,0,1-0.2c0.1-0.2-0.3-1.3-0.4-1.6C1828.2,600.6,1827.7,600,1827.6,599.9z"/>
							<path class="st24" d="M1815.4,633.4c0.1-0.1,0.3-0.2,0.4-0.4C1815.4,632.4,1815,633,1815.4,633.4z"/>
							<path class="st24" d="M1782.9,571.8c0,0.3,0.5,0.4,0.6,0.3c0.2-0.1,0.7,0.1,0.9-0.1c0.1-0.1-0.2-1.1-0.4-1.4s0.5-0.6,0.9-0.7
								c0.3-0.2-0.5-1.2-1-1.1s-0.6,0.5-0.9,0.5s-0.5,0.1-0.6,0.2s-0.9-0.4-1.1-0.2c-0.3,0.1-0.4,0.9-0.2,0.9
								c0.2,0.1-0.5,0.2-0.6,0.6c-0.1,0.4,0.3,1.1,0.5,1s0.7,0.3,0.7,0.3c0.1,0.1,0.5-0.5,0.5-0.7
								C1782.4,570.9,1782.9,571.5,1782.9,571.8z"/>
							<path class="st24" d="M1783.9,567.5c0.4-0.3,0.5-1.2,0.5-1.4s-1.5,0.7-2,1.2c-0.5,0.4-0.7,1-0.6,1.1
								C1781.8,568.5,1783.4,567.9,1783.9,567.5z"/>
							<path class="st24" d="M1789.5,587.1c-0.1-0.1-1.1-0.5-1.2-0.5c-0.1,0.1,0.2,0.7,0.1,0.9c-0.1,0.1,0.2,0.5,0.4,0.7
								c0.2,0.1,0.5-0.2,0.6-0.4C1789.7,587.6,1789.7,587.2,1789.5,587.1z"/>
							<path class="st24" d="M1784.8,583.1c0.1-0.2,0.3-0.9,0.4-1s-0.4-1.1-0.7-1.2c-0.2-0.1-0.9,0.6-1.1,0.7s-0.9,0.4-1.1,0.4
								s0.2,0.6,0.2,0.9c-0.1,0.2,0.2,0.1,0.2,0s0.3,0.3,0.3,0.4c0,0.2,0.6-0.2,0.9-0.1C1784.3,583.4,1784.6,583.4,1784.8,583.1z"/>
							<path class="st24" d="M1794.8,566.6c0.3-0.1,0.5-0.4,0.5-0.5s-0.9-0.7-1.3-1c-0.3-0.2,0-1.5-0.1-2c0-0.4,0.5-1.7,0.4-2
								s-0.5-0.4-0.6-0.3c-0.1,0.1-0.1,0.3-0.1,0.4c0,0.1-0.7,1.4-0.9,1.9c-0.1,0.5-0.2,1.2-0.2,1.4c0,0.3,1,1.7,1,1.9
								C1793.5,566.7,1794.5,566.7,1794.8,566.6z"/>
							<path class="st24" d="M1790.8,560.3c-0.7-0.7-1.4,0.4-0.7,1.1C1790.7,561.4,1790.4,560.7,1790.8,560.3z"/>
							<path class="st24" d="M1770,597c-0.1,0-0.2,0.6-0.2,0.9c0,0.2,0.6,0.6,0.9,0.4c0.2-0.2-0.3-1.3,0.1-1.4
								c0.4-0.1,0.6-0.2,0.5-0.2C1771.2,596.6,1770.1,596.9,1770,597z"/>
							<path class="st24" d="M1789.7,612.4c-0.1,0.1-0.2,0.6-0.1,0.7c0.1,0.1,0.5-0.3,0.4-0.5
								C1789.9,612.3,1789.8,612.3,1789.7,612.4z"/>
							<path class="st24" d="M1787.8,613.1c-0.3,0.3-0.9,0.2-1,0.3c-0.1,0-0.7,0.2-1,0.2s-1.1,0.7-1.4,1.1s-0.3,1-0.2,1.1
								c0.1,0.1,0.6-0.3,0.6-0.5c0.1-0.2,0.9-0.7,1.2-0.6c0.3,0,0.6-0.1,0.9-0.4c0.1-0.2,0.4,0.2,0.6,0.3s0.7-0.3,1-0.3
								s0.2-0.5,0.4-0.6C1789.1,613.3,1788.1,612.8,1787.8,613.1z"/>
							<path class="st24" d="M1787.3,615.1c-0.2,0-0.4,0.5-0.4,0.6C1787,615.8,1787.3,615.3,1787.3,615.1
								C1787.5,615.2,1787.5,615.1,1787.3,615.1z"/>
							<path class="st24" d="M1784.8,613.1c-0.1,0.1-0.1,0.3,0,0.4c0.1,0.1,0.2,0.1,0.3,0C1785.1,613.5,1784.9,613,1784.8,613.1z"/>
							<path class="st24" d="M1785.8,612.3c-0.1-0.1-0.4,0.1-0.4,0.1c-0.1,0.1,0.1,0.2,0.2,0.4
								C1785.8,613,1785.9,612.4,1785.8,612.3z"/>
							<path class="st24" d="M1786.8,612.9c0.1-0.1,0.5,0.1,0.5-0.2c0.1-0.3-0.1-0.5-0.2-0.4s-0.6,0-0.7,0c-0.2,0.1,0,0.4,0.1,0.5
								C1786.7,613,1786.8,613,1786.8,612.9z"/>
						</g>
					</g>
				</g>
				<g>
					<rect x="1547.8" y="553.6" class="st25" width="141" height="74.7"/>
					<text transform="matrix(1 0 0 1 1547.7354 559.6465)" class="st26 st27 st28">Lorem ipsum dolor sit amet, consecte</text>
					<text transform="matrix(1 0 0 1 1680.6348 559.6465)" class="st26 st27 st28">-</text>
					<text transform="matrix(1 0 0 1 1547.7354 569.8701)" class="st26 st27 st28">tur adipiscing elit. Ergo ita: non posse </text>
					<text transform="matrix(1 0 0 1 1547.7354 580.0928)" class="st26 st27 st28">honeste vivi, nisi honeste vivatur? </text>
					<text transform="matrix(1 0 0 1 1547.7354 590.3164)" class="st26 st27 st28">Utinam quidem dicerent alium alio </text>
					<text transform="matrix(1 0 0 1 1547.7354 600.54)" class="st26 st27 st28">beatiorem! Iam ruinas videres. Esse </text>
					<text transform="matrix(1 0 0 1 1547.7354 610.7627)" class="st26 st27 st28">enim, nisi eris, non potes</text>
				</g>
			</g>
		</g>
	</g>
	<g id="crComment">
		<path class="st29" d="M1306.9,683H1070c-6.9,0-12.6-5.7-12.6-12.6v-61c0-6.9,5.7-12.6,12.6-12.6h236.9c6.9,0,12.6,5.7,12.6,12.6
			v61C1319.5,677.3,1313.8,683,1306.9,683z"/>
		<rect x="1083.1" y="618" class="st25" width="203.5" height="88.3"/>
		<text transform="matrix(0.8385 0 0 1 1083.1152 636.708)" class="st30 st31 st32">Press on me to learn </text>
		<text transform="matrix(0.8385 0 0 1 1083.1152 665.6074)" class="st30 st31 st32">more!</text>
		<polygon class="st29" points="1305,617 1343.8,613.3 1318.7,640.6 		"/>
	</g>
	<g id="crAstronautTeacher">
		<ellipse class="st7" cx="1447.1" cy="1047.3" rx="161.8" ry="13.8"/>
		<path class="st12" d="M1534.1,674.6c0,0,4.1-11,2.6-13.4c0,0,8-3.9,9-5.2c1.1-1.3,6.5-1.3,9.7-1.7s3.4,1.3,2.4,3.4
			c-1.1,2.2-7.8,6-7.8,6s-2.2,3-3.4,3.7l15.9,16.2c0,0-14.2,7.5-16.2,6.9C1543.8,689.7,1533.7,674.4,1534.1,674.6z"/>
		<g id="XMLID_4_">
			<g>
				<path class="st33" d="M1475.1,1035.4l0.2,8.8c-37.3,7.1-54.1-6.2-54.1-6.2l0.2-14.6l13.1,2.6L1475.1,1035.4z"/>
			</g>
		</g>
		<g id="XMLID_1_">
			<g>
				<path class="st34" d="M1364.4,799.8l62.9-8.8c0,0-14.9,23.5-30.4,26.9C1381.4,821.3,1367.4,807.7,1364.4,799.8z"/>
			</g>
		</g>
		<g id="XMLID_3_">
			<g>
				<path class="st34" d="M1448.6,766.8v31.7c0,0-17.4,11.2-30.4,4.5c-7.1-3.7-14.6-5-20-5.4c-5.6,0.4-13.1,1.7-20,5.4
					c-12.9,6.7-30.4-4.5-30.4-4.5v-31.7h42.2h15.9H1448.6z"/>
			</g>
		</g>
		<g>
			<path class="st12" d="M1452.3,640.8h-100.2c-6.9,0-12.5,5.6-12.5,12.5v61.6c0,6.9,5.6,12.5,12.5,12.5h100.2
				c6.9,0,12.5-5.6,12.5-12.5v-61.6C1464.5,646.4,1459.2,640.8,1452.3,640.8z"/>
			<path class="st35" d="M1446.7,651.6h-89c-3,0-5.6,2.6-5.6,5.6v58.2c0,3,2.6,5.6,5.6,5.6h89c3,0,5.6-2.6,5.6-5.6v-58.2
				C1452.3,654.1,1449.7,651.6,1446.7,651.6z"/>
		</g>
		<g>
			<path class="st36" d="M1454,679.8l0.9-7.3l35.1,31.2c0,0,9,5.2-2.8,35.3l-29.9-15.9L1454,679.8z"/>
			<path class="st34" d="M1444.7,668.6c0,0,5.6-2.2,10.1,3.9c0,0,8.6,21.1,2.4,50.6c0,0-3.9,5.6-7.5,6.2
				C1449.7,729.3,1455.7,690.5,1444.7,668.6z"/>
			<path class="st12" d="M1494.3,711l0.4-8.2c0,0,28-12.9,37.7-26.3l8.8,4.7l1.9,12.1c0,0-38.3,39.6-48.9,47.8L1494.3,711
				L1494.3,711z"/>
			<path class="st34" d="M1494.7,702.8c0,0,13.1,6-0.4,38.3c0,0-2.2,7.3-7.1-2.2c0,0,9-14.4,2.8-35.3c0,0,0.2-1.5,1.7-1.5
				C1493.2,702.2,1494.7,702.8,1494.7,702.8z"/>
			<path class="st34" d="M1532.4,676.5c0,0,6.9,3,10.8,16.8c0,0,0.9,1.1,3.9,1.1s-1.1-11.4-5.6-16.2
				C1537.1,673.7,1532.8,669.2,1532.4,676.5z"/>
		</g>
		<g>
			<path class="st36" d="M1354.7,686.7l1.9,28.9l-33.4,24.6c0,0-0.9,3.2-31-9.5l53.2-59.2L1354.7,686.7z"/>
			<path class="st34" d="M1356.6,668.1c0,0-6-2.6-11.2,3.4c0,0-10.3,20.7-5.2,50.4c0,0,4.1,5.8,8,6.7
				C1348.2,728.5,1343.5,689.5,1356.6,668.1z"/>
		</g>
		<path class="st12" d="M1454.4,696.1c-2.4-26.3-10.1-28.2-10.1-28.2h-89.2c0,0-7.8,1.9-10.1,28.2c-0.9,9.5,0.6,70.4,3.9,75
			c3.4,4.5,9,10.1,23.7,15.3c12.3,4.3,23.7,4.5,27.1,4.5s14.9-0.2,27.1-4.5c14.6-5.2,20.2-10.8,23.7-15.3
			C1453.8,766.4,1455.3,705.6,1454.4,696.1z"/>
		<path class="st34" d="M1373,665.3l-8.6,0.6l-8.8,1.9c0,0,37.5,31.2,86.2,0l-6.9-1.9l-28.7-0.6H1373z"/>
		<path class="st37" d="M1368,650.5l-3.4,4.1v11.6c0,0,31.7,16.8,70.2,0V649L1368,650.5z"/>
		<path class="st12" d="M1440.2,651.3c5-7.8,7.5-17.2,7.1-27.1c-1.1-24.3-20.7-44.2-44.8-45.7c-27.8-1.7-50.8,20.2-50.8,47.8
			c0,9.3,2.6,17.9,7.1,25.2c1.9,3.2,5,5.4,8.6,6.5l3.4,0.9c18.7,4.7,38.3,4.7,57.1,0l3.4-0.9
			C1435.2,656.7,1438.3,654.4,1440.2,651.3z"/>
		<g id="XMLID_2_">
			<g>
				<path class="st34" d="M1399.5,584.8c22,0.2,39.9,17.9,39.9,39.9s-17.9,29.7-39.9,29.7s-39.9-7.8-39.9-29.7
					C1359.6,602.7,1377.5,584.8,1399.5,584.8z"/>
			</g>
		</g>
		<path class="st33" d="M1434.6,626.4c0,19.4-15.7,26.3-35.1,26.3s-35.1-6.9-35.1-26.3c0-19.4,15.7-35.1,35.1-35.1
			S1434.6,607,1434.6,626.4z"/>
		
			<ellipse transform="matrix(0.4643 -0.8857 0.8857 0.4643 201.5135 1553.2205)" class="st38" cx="1384.7" cy="610" rx="6.9" ry="6"/>
		
			<ellipse transform="matrix(0.4644 -0.8856 0.8856 0.4644 190.0058 1551.9926)" class="st38" cx="1378.1" cy="618.9" rx="1.9" ry="1.7"/>
		<g>
			<path class="st12" d="M1358.8,623.6c0,8-1.5,14-3.2,13.4c-1.5-0.6-2.8-6.5-2.8-13.4s1.1-12.7,2.8-13.4S1358.8,615.6,1358.8,623.6
				z"/>
			<polygon class="st12" points="1350.2,613 1355.5,610.2 1355.5,637.1 1350.2,634.1 			"/>
			<path class="st33" d="M1353,623.6c0,6.2-1.5,11-3.2,10.6c-1.5-0.4-2.8-5.2-2.8-10.6s1.3-10.1,2.8-10.6
				C1351.7,612.8,1353,617.3,1353,623.6z"/>
			<path class="st12" d="M1347.8,623.6c0,3.4-0.2,6.2-2.6,6c-2.2-0.2-3.7-2.8-3.7-6c0-3,1.5-5.8,3.7-6
				C1347.4,617.5,1347.8,620.1,1347.8,623.6z"/>
		</g>
		<path class="st12" d="M1347.8,798c0,0-6.9,55.8,1.7,103.6c0,0,27.8,5.2,36.8-3.4c0,0,10.6-52.1,13.6-76.5
			C1399.9,821.7,1367,789.6,1347.8,798z"/>
		<g>
			<path class="st12" d="M1441.7,623.6c0,8,1.5,14,3.2,13.4c1.5-0.6,2.8-6.5,2.8-13.4s-1.1-12.7-2.8-13.4
				C1443.2,609.5,1441.7,615.6,1441.7,623.6z"/>
			<polygon class="st12" points="1450.3,613 1444.9,610.2 1444.9,637.1 1450.3,634.1 			"/>
			<path class="st33" d="M1447.5,623.6c0,6.2,1.5,11,3.2,10.6c1.5-0.4,2.8-5.2,2.8-10.6s-1.3-10.1-2.8-10.6
				C1448.8,612.8,1447.5,617.3,1447.5,623.6z"/>
			<path class="st12" d="M1450.8,623.6c0,3.4,0.6,6.2,2.8,6s3.7-2.8,3.7-6c0-3-1.5-5.8-3.7-6
				C1451.4,617.5,1450.8,620.1,1450.8,623.6z"/>
		</g>
		<path class="st39" d="M1428.8,731h-49.3c-5,0-8.8-3.9-8.8-8.8v-15.3c0-5,3.9-8.8,8.8-8.8h49.3c5,0,8.8,3.9,8.8,8.8v15.3
			C1437.6,727,1433.5,731,1428.8,731z"/>
		<path class="st33" d="M1429.2,733.4h-51.1c-3,0-5.4-2.4-5.4-5.4v-19.6c0-3,2.4-5.4,5.4-5.4h51.1c3,0,5.4,2.4,5.4,5.4V728
			C1434.6,731,1432.2,733.4,1429.2,733.4z"/>
		<path class="st36" d="M1403.8,727.6h-21.5c-1.3,0-2.4-1.1-2.4-2.4V717c0-1.3,1.1-2.4,2.4-2.4h21.5c1.3,0,2.4,1.1,2.4,2.4v8.2
			C1405.9,726.5,1405.1,727.6,1403.8,727.6z"/>
		<path class="st34" d="M1428.1,718.1h-6.9c-1.1,0-1.9-0.9-1.9-1.9l0,0c0-1.1,0.9-1.9,1.9-1.9h6.9c1.1,0,1.9,0.9,1.9,1.9l0,0
			C1429.9,717.5,1429,718.1,1428.1,718.1z"/>
		<path class="st34" d="M1428.1,724.6h-6.9c-1.1,0-1.9-0.9-1.9-1.9l0,0c0-1.1,0.9-1.9,1.9-1.9h6.9c1.1,0,1.9,0.9,1.9,1.9l0,0
			C1429.9,723.7,1429,724.6,1428.1,724.6z"/>
		<circle class="st34" cx="1379.9" cy="707.6" r="1.1"/>
		<circle class="st34" cx="1385.1" cy="707.6" r="1.1"/>
		<circle class="st34" cx="1390" cy="707.6" r="1.1"/>
		<path class="st12" d="M1452,798c0,0,6.9,55.8-1.7,103.6c0,0-27.8,5.2-36.8-3.4c0,0-10.6-52.1-13.6-76.5
			C1400.1,821.7,1433.1,789.6,1452,798z"/>
		<path class="st34" d="M1400.1,821.7c1.3,0,34.7-23.9,51.9-23.9c0,0,6.5-9.3-1.7-9.3c0,0-39,6.5-53.4,28.9
			C1397.1,817.6,1393.9,821.3,1400.1,821.7z"/>
		<path class="st34" d="M1399.1,821.7c-1.3,0-34.7-23.9-51.9-23.9c0,0-6.5-9.3,1.7-9.3c0,0,39,6.5,53.4,28.9
			C1402.1,817.6,1405.3,821.3,1399.1,821.7z"/>
		<path class="st34" d="M1413.7,898.2c0,0,26.7,4.5,38.3-3c0,0,3.2,1.9-1.7,6.5c0,0-22.4,8.8-36.8,0.9v-4.3h0.2V898.2z"/>
		<path class="st34" d="M1413.7,902.5c0,0,13.8,3.4,36.8-0.9c0,0,5,2.2,0,6.7c0,0-22.4,6-36.8-1.9V902.5z"/>
		<path class="st12" d="M1463.9,1018.8c-13.6-5.2-14.4-8-14.4-8l-1.5-15.3c0.9-19.4,2.4-60.7,0.4-84.9h-34.9
			c0,46.3,1.1,29.3,3.4,51.1c2.2,20.7,4.3,31.5,4.5,48.9l0,0c-0.2,3.7-0.4,8.2,0,12.7c1.1,12.7,15.3,16.2,29.5,17.2
			c14.2,1.1,24.1-1.5,24.1-1.5S1477.5,1024,1463.9,1018.8z"/>
		<path class="st34" d="M1413.7,904.5c0,0,13.8,8,36.8,3.7c0,0,5,2.2,0,6.7c0,0-22.4,3.9-36.8-4.1V904.5z"/>
		<path class="st34" d="M1413.7,947.1c0,0,23,1.5,35.8,0c0,0,3.4,4.1-0.2,8c0,0-31,1.9-35.5-3.2
			C1413.7,951.8,1410.7,950.1,1413.7,947.1z"/>
		<path class="st34" d="M1451,1012.6c0,0,4.3-2.4,5.8,3c0,0-24.3,1.9-23.5,20c0,0-5.8,0.2-7.1-3.7
			C1426.2,1032.2,1427.3,1014.7,1451,1012.6z"/>
		<path class="st34" d="M1426,1033.5c0,0,1.5-13.8,25-20.7c0,0,1.3-1.1,0.6-3.9c-0.6-2.4-4.1-2.4-4.1-2.4s-24.8,4.7-24.6,21.5
			L1426,1033.5z"/>
		<g id="XMLID_5_">
			<g>
				<path class="st33" d="M1378.4,1023.4l0.2,14.6c0,0-16.8,16.6-54.1,9.3l0.2-5.6l40.5-15.7L1378.4,1023.4z"/>
			</g>
		</g>
		<path class="st12" d="M1382.9,961.8c2.4-22,3.4-5,3.4-51.1h-34.9c-1.9,24.3-0.4,65.5,0.4,84.9l-1.5,15.3c0,0-1.1,2.6-14.4,8
			c-13.6,5.2-11.2,22.8-11.2,22.8s10.1,1.1,24.1,0c14.2-1.1,28.2-5.6,29.5-18.3c0.4-4.7,0.2-9,0-12.7l0,0
			C1378.8,993.2,1380.7,982.4,1382.9,961.8z"/>
		<path class="st34" d="M1386.3,898.2c0,0-26.7,4.5-38.3-3c0,0-3.2,1.9,1.7,6.5c0,0,22.4,8.8,36.8,0.9v-4.3h-0.2V898.2z"/>
		<path class="st34" d="M1386.3,902.5c0,0-13.8,3.4-36.8-0.9c0,0-5,2.2,0,6.7c0,0,22.4,6,36.8-1.9V902.5z"/>
		<path class="st34" d="M1386.3,904.5c0,0-13.8,8-36.8,3.7c0,0-5,2.2,0,6.7c0,0,22.4,3.9,36.8-4.1V904.5z"/>
		<path class="st34" d="M1386.3,947.1c0,0-23,1.5-35.8,0c0,0-3.4,4.1,0.2,8c0,0,31,1.9,35.5-3.2
			C1386.3,951.8,1389.4,950.1,1386.3,947.1z"/>
		<path class="st34" d="M1349.1,1012.6c0,0-4.3-2.4-5.8,3c0,0,24.3,1.9,23.5,20c0,0,5.8,0.2,7.1-3.7
			C1373.9,1032.2,1372.8,1014.7,1349.1,1012.6z"/>
		<path class="st34" d="M1374.1,1033.5c0,0-1.5-13.8-25-20.7c0,0-1.3-1.1-0.6-3.9c0.6-2.4,4.1-2.4,4.1-2.4s24.8,4.7,24.6,21.5
			L1374.1,1033.5z"/>
		<path class="st12" d="M1298.2,724.6c18.1,3.9,24.1,19.4,24.1,19.4s9.3,26.9,19,40.9l-7.3,7.8l-12.1-1.5c0,0-26.7-48.3-31.2-61.6
			C1290.9,729.8,1293.9,723.5,1298.2,724.6z"/>
		<path class="st40" d="M1359.4,798.5c-7.5-5.6-12.3-14.2-12.3-14.2s-0.9-4.7,0.2-7.3c-5-0.4-8.8,3.9-8.8,3.9l-15.9,10.3
			c0,0,4.5,10.8,11.4,19.2s12.7,6.2,10.8,4.1c-1.9-2.2-5.8-9-5.8-9s7.3,8.8,11,10.3s5.2,0.9,3.7-3c-0.2-0.9-6.7-8.8-7.3-9.7
			c2.8,2.8,10.8,11.4,13.1,10.6c6.2-1.9-3.4-10.1-8.8-15.5c2.4,2.2,8.2,7.8,10.6,8.2C1364.8,807.1,1367,804.1,1359.4,798.5z"/>
		<path class="st34" d="M1323,743.5c0,0-6.9-11.8-32.1-13.8c0,0-5.6-5.4,5.4-5.8c0,0,14.2-2.2,28.4,14.6c0,0,1.1,0.9,0.6,2.4
			C1324.5,742.2,1323,743.5,1323,743.5z"/>
		<path class="st34" d="M1337.7,775.6c0,0-3,7.5-16.8,11.8c0,0-1.1,0.9-1.1,4.3c0,3.4,11.4-1.3,16.2-6
			C1340.5,780.8,1345,776.3,1337.7,775.6z"/>
		<path class="st35" d="M1559,686.6c-0.1,1.4-1.3,2.4-2.6,2.3l0,0c-1.3-0.1-2.3-1.3-2.2-2.7c0,0,17.5-182.9,18.8-182.8l0,0
			C1574.4,503.5,1559,686.6,1559,686.6z"/>
		<g>
			<path class="st40" d="M1547,671.6c-0.2,0,3.7-3.9,3.7-3.9s5.2-3.7,6.2-3.9c1.1-0.2,4.1-0.6,4.3-0.6c0.2,0,3.4,1.9,3.7,2.6
				c0.2,0.6-1.5,3.7-1.5,3.7s-6.7,1.3-9.3,2.4c-2.6,1.3-4.3,2.4-5.2,1.9C1547.7,673.5,1547,671.6,1547,671.6z"/>
			<path class="st40" d="M1550.5,676.5c0,0-1.3-1.5-0.2-2.8c1.1-1.3,3.9-2.6,7.3-3.4c3.2-0.9,5-1.5,6.5-0.6s2.4,3.7,1.5,4.7
				s-3,1.3-8,2.2C1552.9,677.2,1551.4,677.8,1550.5,676.5z"/>
			<path class="st40" d="M1552.9,678.7c0-1.3,0.2-1.1,3.4-1.9s7.1-2.8,8.6-1.7s2.2,3.9,0.9,4.5c-1.1,0.6-5.6,1.1-8,1.7
				c-2.6,0.6-4.1,0.9-4.7,0C1552.6,680.2,1553.1,679.6,1552.9,678.7z"/>
			<path class="st40" d="M1554.4,682.1c0.2-1.1,0.4-1.1,3.4-1.1s6.9-1.1,8,0.2s1.1,3.9-0.2,4.1c-1.1,0.2-5.2-0.2-7.5-0.2
				s-3.9-0.2-4.1-1.1C1553.9,683.4,1554.4,683,1554.4,682.1z"/>
		</g>
	</g>
	<text id="crTitle" transform="matrix(1 0 0 1 1201.8738 209.5963)" class="st12 st41 st42">Courses</text>
	<rect x="1214.1" y="263.4" class="st25" width="368.2" height="145.1"/>
	<text id="crDescription" transform="matrix(1 0 0 1 1214.1464 277.9974)"><tspan x="0" y="0" class="st12 st41 st43">Lorem ipsum dolor sit amet, consectetuer </tspan><tspan x="0" y="24" class="st12 st41 st43">adipiscing elit, sed diam nonummy nibh </tspan><tspan x="0" y="48" class="st12 st41 st43">euismod tincidunt ut laoreet dolore magna </tspan><tspan x="0" y="72" class="st12 st41 st43">aliquam erat volutpat. Ut wisi enim ad </tspan><tspan x="0" y="96" class="st12 st41 st43">minim veniam, quis nostrud exerci tation </tspan><tspan x="0" y="120" class="st12 st41 st43">ullamcorper suscipit lobortis nisl ut aliquip </tspan></text>
</g>
</svg>
