<?xml version="1.0" encoding="utf-8"?>
<!-- Generator: Adobe Illustrator 21.0.2, SVG Export Plug-In . SVG Version: 6.00 Build 0)  -->
<svg version="1.1" xmlns="http://www.w3.org/2000/svg" xmlns:xlink="http://www.w3.org/1999/xlink" x="0px" y="0px"
	 viewBox="0 0 1920 1080" style="enable-background:new 0 0 1920 1080;" xml:space="preserve">
<style type="text/css">
	.st0{fill:#2D2B2B;}
	.st1{fill:#F2F2F2;}
	.st2{fill:none;}
	.st3{fill:#1F1F1F;}
	.st4{font-family:'ComicSansMS';}
	.st5{font-size:24.0483px;}
	.st6{fill:#FDC56F;}
	.st7{fill:#F6931E;}
	.st8{fill:#807433;}
	.st9{fill:#CC6632;}
	.st10{fill:#F1F1F1;}
	.st11{opacity:0.7;fill:#F1F1F1;enable-background:new    ;}
	.st12{fill:#333333;}
	.st13{fill:#343432;}
	.st14{fill:#CBCBCB;}
	.st15{fill:#C54C31;}
	.st16{fill:#7D7175;}
	.st17{fill:#B2B2B2;}
	.st18{fill:#1A1A1A;}
	.st19{fill:#808080;}
	.st20{fill:#BBD6E1;}
	.st21{fill:none;stroke:#6E6351;stroke-width:0.7344;stroke-linecap:round;stroke-miterlimit:10;}
	.st22{fill:#E5E5E5;}
	.st23{fill:none;stroke:#6E6351;stroke-width:0.7344;stroke-miterlimit:10;}
	.st24{opacity:0.5;fill:none;stroke:#FFFFFF;stroke-miterlimit:10;enable-background:new    ;}
	.st25{fill:#FFFFFF;}
	.st26{font-family:'Lato-Light';}
	.st27{font-size:100px;}
	.st28{font-size:20px;}
</style>
<g id="Projects">
	<g id="prComment">
		<g>
			<path class="st1" d="M949.6,321.5H705.3c-6.9,0-12.6-5.7-12.6-12.6v-62.1c0-6.9,5.7-12.6,12.6-12.6h244.4
				c6.9,0,12.6,5.7,12.6,12.6v62.1C962.2,315.8,956.5,321.5,949.6,321.5z"/>
			<rect x="706.8" y="255.5" class="st2" width="246.9" height="88.3"/>
			<text transform="matrix(0.8385 0 0 1 706.8008 274.2178)" class="st3 st4 st5">Press on the shuttle to </text>
			<text transform="matrix(0.8385 0 0 1 706.8008 303.1177)" class="st3 st4 st5">learn more!</text>
			<polygon class="st1" points="958.8,299.7 974.1,335.5 940.4,319.9 			"/>
		</g>
	</g>
	<g id="prSaturnPlanet">
		<circle class="st6" cx="2063.2" cy="448.4" r="441.3"/>
		<path class="st6" d="M2247,47c99.2,76.3,163.1,195.9,163.1,330.7c0,230.5-186.9,417.1-417.1,417.1
			c-134.8,0-254.4-63.9-330.7-163.1c69.7,152.1,223,257.8,401.4,257.8c243.7,0,441.3-197.6,441.3-441.3
			C2504.7,270.2,2398.9,116.6,2247,47z"/>
		<path class="st6" d="M1878.9,47c-99.2,76.3-163.1,195.9-163.1,330.7c0,230.5,186.9,417.1,417.1,417.1
			c134.8,0,254.4-63.9,330.7-163.1c-69.7,152.1-223,257.8-401.4,257.8c-243.7,0-441.3-197.6-441.3-441.3
			C1621.1,270.2,1726.7,116.6,1878.9,47z"/>
		<path class="st7" d="M1638.3,329.3c-7.6,27.3-12.6,55.4-14.9,84.5c168-69.5,309.2-224.5,375.6-402c-29.1,4.3-57.3,11.4-84.1,21.1
			C1856.9,158.8,1756.9,268.1,1638.3,329.3z"/>
		<path class="st8" d="M1639.3,570.9c13.6,47.3,35.1,91.6,62.8,131C1981,627,2218,362.2,2289.8,69.5
			c-40.5-24.2-85.4-42.2-132.9-52.5C2091.5,273.3,1883.6,504.6,1639.3,570.9z"/>
		<path class="st9" d="M2254.6,50.5c0,0,39.3,20.7,53.9,30.8c65.9-31.8,116.2-39.5,139.3-16.5c56,56-69.9,272.8-281.1,484.3
			c-211.5,211.5-428.3,337.3-484.3,281.3c-22.5-22.5-15.7-71.3,14.7-135.4c0,0-21.3-34.5-31.6-55.2
			c-107.7,165.2-149.2,302.8-94.7,357.4c87.8,87.8,392.3-73.8,679.8-361.3S2700.1,44.1,2612-44C2557.4-98.6,2419.8-57.2,2254.6,50.5
			z"/>
	</g>
	<g id="prShuttle">
		<g>
			<g>
				<g>
					<path class="st10" d="M1235.3,1095.1c-0.5-0.1-1.8-0.9-2.3-0.9c-4.2,0-7.7,3.2-7.9,7.4c-2.7-1.1-5.6-1.7-8.8-1.7
						c-2.4,0-4.8,0.4-7.1,1.1c0.1-0.4,0.1-0.8,0.1-1.1c0-7.6-6-13.8-13.6-13.8c-1.8,0-3.5,0.4-5.1,1c0-0.3,0.1-0.6,0-1
						c0.1-13.2-10.5-23.8-23.6-23.9c-0.8,0-1.8,0.1-2.7,0.1c-3.7-11.4-14.4-19.7-27.1-19.7c-9.3-0.1-17.6,4.4-22.8,11.2l1.3-200.1
						l-32.1-0.2l-1.3,208.7c-0.4,0.4-0.8,0.9-1.1,1.4c-0.5-0.1-1.1-0.1-1.6-0.2c-0.2-10.3-8.6-18.6-18.9-18.7
						c-8.2,0-15.3,5.1-18,12.6c-4.8-7.6-13.3-12.7-23-12.7c-1.3,0-2.5,0.1-3.8,0.3c0-0.1,0-0.1,0-0.3c0-7.2-5.8-13.1-13-13.2
						s-13.1,5.8-13.2,13c0,5.2,3,9.7,7.4,11.9c-1.1,1.7-2.1,3.4-2.9,5.2c-2.5-3.8-5.9-6.8-10-8.7l1.3-199.8l-32.1-0.2l-1.2,184.4
						c-2.9-1.2-6.2-1.9-9.5-2c-8.3,0-15.6,3.8-20.4,9.9c-0.6-0.1-1.3-0.1-1.9-0.2c-6.6,0-12.1,5.3-12.1,12c0,3.1,1.2,6,3.1,8.1
						c-6.9,3.5-12.1,10-13.8,17.7c-2.5-0.7-4.9-1-7.6-1c-0.8,0-1.6,0.1-2.3,0.1c-1.7-4.7-6.2-8.2-11.5-8.2
						c-6.8,0-12.3,5.4-12.4,12.2c0,2.8,1,5.4,2.4,7.4c-2.7,3.5-4.6,7.7-5.7,12.2c-2.1,0.6-4,1.5-5.9,2.4c0.4-0.8,0.6-1.7,0.6-2.5
						c0-3.5-2.7-6.3-6.3-6.3c-3.5,0-6.3,2.7-6.3,6.3c0,3.5,2.7,6.3,6.3,6.3h0.1c-7.3,5.8-12.5,14.6-13.6,24.3l177.3,179.2
						L1235.3,1095.1L1235.3,1095.1z"/>

						<ellipse transform="matrix(5.733367e-03 -1 1 5.733367e-03 158.4016 2265.2375)" class="st10" cx="1218.3" cy="1053" rx="5.4" ry="5.4"/>

						<ellipse transform="matrix(5.733367e-03 -1 1 5.733367e-03 140.1887 2148.1338)" class="st10" cx="1150.3" cy="1003.6" rx="7.4" ry="7.4"/>

						<ellipse transform="matrix(5.733367e-03 -1 1 5.733367e-03 167.1626 2152.0181)" class="st10" cx="1165.8" cy="991.9" rx="4.3" ry="4.3"/>

						<ellipse transform="matrix(5.733367e-03 -1 1 5.733367e-03 -133.3731 1930.0621)" class="st10" cx="903.9" cy="1032.1" rx="3.1" ry="3.1"/>
				</g>
			</g>
			<path class="st11" d="M1308.3,1089.2c-0.3-0.1-1.1-0.7-1.5-0.7c-2.8-0.3-5.3,1.6-5.7,4.4c-1.7-0.9-3.7-1.5-5.7-1.7
				c-1.6-0.2-3.2,0-4.8,0.3c0.1-0.2,0.1-0.5,0.1-0.7c0.5-5.1-3.1-9.6-8.2-10.1c-1.2-0.1-2.4,0-3.5,0.3c0-0.2,0.1-0.4,0.1-0.7
				c0.9-8.8-5.4-16.6-14.2-17.5c-0.6-0.1-1.2-0.1-1.8-0.1c-1.7-7.9-8.3-14.1-16.8-14.9c-6.2-0.6-12.1,1.8-16,6l-12.8-3.3l-9.2,6.8
				c-0.3,0.3-0.6,0.6-0.9,0.9c-0.3-0.1-0.7-0.2-1.1-0.3c0.5-6.9-4.5-13-11.4-13.7c-5.5-0.6-10.6,2.4-12.8,7.2
				c-2.7-5.4-8-9.4-14.5-10c-0.8-0.1-1.7-0.1-2.6-0.1c0-0.1,0-0.1,0-0.2c0.5-4.8-3-9.1-7.8-9.6s-9.1,3-9.6,7.8
				c-0.4,3.5,1.4,6.7,4.2,8.4c-0.9,1.1-1.6,2.1-2.2,3.3c-1.4-2.7-3.5-4.9-6.1-6.4l-8.3-7.8l-12.1-4.7c-1.9-1-4-1.7-6.2-1.9
				c-5.6-0.6-10.7,1.5-14.3,5.3c-0.4-0.1-0.8-0.2-1.3-0.3c-4.4-0.5-8.4,2.8-8.8,7.2c-0.2,2.1,0.4,4.1,1.6,5.6
				c-4.9,1.9-8.7,5.9-10.4,10.9c-1.6-0.6-3.2-1-5-1.2c-0.6-0.1-1.1-0.1-1.6-0.1c-0.9-3.3-3.6-5.9-7.1-6.2c-4.5-0.5-8.6,2.8-9.1,7.4
				c-0.2,1.9,0.3,3.7,1.1,5.1c-2,2.2-3.6,4.8-4.6,7.8c-1.4,0.3-2.8,0.7-4.1,1.2c0.3-0.5,0.5-1.1,0.6-1.7c0.2-2.4-1.4-4.4-3.8-4.6
				s-4.4,1.4-4.6,3.8s1.4,4.4,3.8,4.6h0.1c-5.3,3.4-9.3,9-10.7,15.3l106.6,131.2L1308.3,1089.2L1308.3,1089.2z"/>
			<path class="st11" d="M1083.1,1119c-0.3-0.1-1.1-0.7-1.5-0.7c-2.8-0.3-5.3,1.6-5.7,4.4c-1.7-0.9-3.7-1.5-5.7-1.7
				c-1.6-0.2-3.2,0-4.8,0.3c0.1-0.2,0.1-0.5,0.1-0.7c0.5-5.1-3.1-9.6-8.2-10.1c-1.2-0.1-2.4,0-3.5,0.3c0-0.2,0.1-0.4,0.1-0.7
				c0.9-8.8-5.4-16.6-14.2-17.5c-0.6-0.1-1.2-0.1-1.8-0.1c-1.7-7.9-8.3-14.1-16.8-14.9c-6.2-0.6-12.1,1.8-16,6l-12.8-3.3l-9.2,6.8
				c-0.3,0.3-0.6,0.6-0.9,0.9c-0.3-0.1-0.7-0.2-1.1-0.3c0.5-6.9-4.5-13-11.4-13.7c-5.5-0.6-10.6,2.4-12.8,7.2
				c-2.7-5.4-8-9.4-14.5-10c-0.8-0.1-1.7-0.1-2.6-0.1c0-0.1,0-0.1,0-0.2c0.5-4.8-3-9.1-7.8-9.6s-9.1,3-9.6,7.8
				c-0.4,3.5,1.4,6.7,4.2,8.4c-0.9,1.1-1.6,2.1-2.2,3.3c-1.4-2.7-3.5-4.9-6.1-6.4l-8.3-7.8l-12.1-4.7c-1.9-1-4-1.7-6.2-1.9
				c-5.6-0.6-10.7,1.5-14.3,5.3c-0.4-0.1-0.8-0.2-1.3-0.3c-4.4-0.5-8.4,2.8-8.8,7.2c-0.2,2.1,0.4,4.1,1.6,5.6
				c-4.9,1.9-8.7,5.9-10.4,10.9c-1.6-0.6-3.2-1-5-1.2c-0.6-0.1-1.1-0.1-1.6-0.1c-0.9-3.3-3.6-5.9-7.1-6.2c-4.5-0.5-8.6,2.8-9.1,7.4
				c-0.2,1.9,0.3,3.7,1.1,5.1c-2,2.2-3.6,4.8-4.6,7.8c-1.4,0.3-2.8,0.7-4.1,1.2c0.3-0.5,0.5-1.1,0.6-1.7c0.2-2.4-1.4-4.4-3.8-4.6
				c-2.4-0.2-4.4,1.4-4.6,3.8c-0.2,2.4,1.4,4.4,3.8,4.6h0.1c-5.3,3.4-9.3,9-10.7,15.3l106.6,131.2L1083.1,1119L1083.1,1119z"/>
			<path class="st11" d="M1193.5,1136.5c-0.3-0.1-1.1-0.7-1.5-0.7c-2.8-0.3-5.3,1.6-5.7,4.4c-1.7-0.9-3.7-1.5-5.7-1.7
				c-1.6-0.2-3.2,0-4.8,0.3c0.1-0.2,0.1-0.5,0.1-0.7c0.5-5.1-3.1-9.6-8.2-10.1c-1.2-0.1-2.4,0-3.5,0.3c0-0.2,0.1-0.4,0.1-0.7
				c0.9-8.8-5.4-16.6-14.2-17.5c-0.6-0.1-1.2-0.1-1.8-0.1c-1.7-7.9-8.3-14.1-16.8-14.9c-6.2-0.6-12.1,1.8-16,6l-12.8-3.3l-9.2,6.8
				c-0.3,0.3-0.6,0.6-0.9,0.9c-0.3-0.1-0.7-0.2-1.1-0.3c0.5-6.9-4.5-13-11.4-13.7c-5.5-0.6-10.6,2.4-12.8,7.2
				c-2.7-5.4-8-9.4-14.5-10c-0.8-0.1-1.7-0.1-2.6-0.1c0-0.1,0-0.1,0-0.2c0.5-4.8-3-9.1-7.8-9.6s-9.1,3-9.6,7.8
				c-0.4,3.5,1.4,6.7,4.2,8.4c-0.9,1.1-1.6,2.1-2.2,3.3c-1.4-2.7-3.5-4.9-6.1-6.4l-8.3-7.8l-12.1-4.7c-1.9-1-4-1.7-6.2-1.9
				c-5.6-0.6-10.7,1.5-14.3,5.3c-0.4-0.1-0.8-0.2-1.3-0.3c-4.4-0.5-8.4,2.8-8.8,7.2c-0.2,2.1,0.4,4.1,1.6,5.6
				c-4.9,1.9-8.7,5.9-10.4,10.9c-1.6-0.6-3.2-1-5-1.2c-0.6-0.1-1.1-0.1-1.6-0.1c-0.9-3.3-3.6-5.9-7.1-6.2c-4.5-0.5-8.6,2.8-9.1,7.4
				c-0.2,1.9,0.3,3.7,1.1,5.1c-2,2.2-3.6,4.8-4.6,7.8c-1.4,0.3-2.8,0.7-4.1,1.2c0.3-0.5,0.5-1.1,0.6-1.7c0.2-2.4-1.4-4.4-3.8-4.6
				c-2.4-0.2-4.4,1.4-4.6,3.8c-0.2,2.4,1.4,4.4,3.8,4.6h0.1c-5.3,3.4-9.3,9-10.7,15.3l106.6,131.2L1193.5,1136.5L1193.5,1136.5z"/>
		</g>
		<g>
			<g>
				<g>
					<g>
						<g>
							<polygon class="st12" points="990.8,873.5 947.9,873.3 953.9,845.7 985,845.9 							"/>
							<g>
								<path class="st10" d="M989,829l2.1-359.1c0.1-10.7-8.5-50-19.2-50c-10.7-0.1-19.7,39.1-19.8,49.8l-2,359.1L989,829z"/>
							</g>
							<g>
								<path class="st13" d="M990.5,463.3c-0.4-3-1-6.6-1.9-10.3l-33.9-0.2c-0.8,3.7-1.5,7.3-2,10.2L990.5,463.3z"/>
							</g>
							<g>
								<path class="st13" d="M987.3,447.2c-3.5-13.5-9-27.2-15.4-27.2s-12.1,13.6-15.7,27.1L987.3,447.2z"/>
							</g>
							<g>

									<rect x="969.1" y="475.3" transform="matrix(5.733367e-03 -1 1 5.733367e-03 471.1181 1463.4213)" class="st13" width="4.7" height="38.9"/>
							</g>
							<g>

									<rect x="968.8" y="523.5" transform="matrix(5.733367e-03 -1 1 5.733367e-03 422.6378 1511.0635)" class="st13" width="4.7" height="38.9"/>
							</g>
							<g>

									<rect x="955" y="571.7" transform="matrix(5.733367e-03 -1 1 5.733367e-03 374.3542 1558.7081)" class="st13" width="32.1" height="38.9"/>
							</g>
							<g>

									<rect x="968.3" y="619.8" transform="matrix(5.733367e-03 -1 1 5.733367e-03 325.8747 1606.1505)" class="st13" width="4.7" height="38.9"/>
							</g>
							<g>

									<rect x="968.1" y="667.9" transform="matrix(5.733367e-03 -1 1 5.733367e-03 277.5685 1653.804)" class="st13" width="4.7" height="38.9"/>
							</g>
							<g>

									<rect x="967.7" y="807.5" transform="matrix(5.733367e-03 -1 1 5.733367e-03 136.9964 1791.7299)" class="st13" width="3.7" height="38.9"/>
							</g>
							<polygon class="st14" points="996.2,856.7 942.6,856.4 950.1,828.8 989,829 							"/>
						</g>
						<g>
							<polygon class="st12" points="1078.1,874.1 1120.9,874.4 1115.2,846.7 1084.1,846.5 							"/>
							<g>
								<path class="st10" d="M1080.3,829.6l2.1-359.1c0.1-10.7,9.1-49.9,19.8-49.8c10.7,0.1,19.2,39.4,19.2,50l-2.2,359.1
									L1080.3,829.6z"/>
							</g>
							<g>
								<path class="st13" d="M1083,463.9c0.4-3,1.1-6.6,2-10.2l33.9,0.2c0.8,3.8,1.4,7.3,1.9,10.3L1083,463.9z"/>
							</g>
							<g>
								<path class="st13" d="M1086.4,447.7c3.6-13.4,9.3-27.1,15.7-27.1c6.4,0,11.9,13.8,15.4,27.2L1086.4,447.7z"/>
							</g>
							<g>

									<rect x="1099.3" y="476.1" transform="matrix(5.733367e-03 -1 1 5.733367e-03 599.7581 1594.3607)" class="st13" width="4.7" height="38.9"/>
							</g>
							<g>

									<rect x="1099" y="524.2" transform="matrix(5.733367e-03 -1 1 5.733367e-03 551.4035 1641.891)" class="st13" width="4.7" height="38.9"/>
							</g>
							<g>

									<rect x="1085" y="572.3" transform="matrix(5.733367e-03 -1 1 5.733367e-03 503.0211 1689.4371)" class="st13" width="32.1" height="38.9"/>
							</g>
							<g>

									<rect x="1098.4" y="620.4" transform="matrix(5.733367e-03 -1 1 5.733367e-03 454.5881 1736.9998)" class="st13" width="4.7" height="38.9"/>
							</g>
							<g>

									<rect x="1098.3" y="668.7" transform="matrix(5.733367e-03 -1 1 5.733367e-03 406.2122 1784.8036)" class="st13" width="4.7" height="38.9"/>
							</g>
							<g>

									<rect x="1097.9" y="808.3" transform="matrix(5.733367e-03 -1 1 5.733367e-03 265.6913 1922.77)" class="st13" width="3.7" height="38.9"/>
							</g>
							<polygon class="st14" points="1072.8,857.1 1126.4,857.4 1119.2,829.8 1080.3,829.6 							"/>
						</g>
					</g>
				</g>
			</g>
			<g>
				<g>
					<g>
						<g>
							<path class="st15" d="M1097.8,760l-17-27.7v-3.7l2-343.6c0.1-10.7-20-61.8-45.2-61.9c-25.2-0.1-45.8,50.6-45.9,61.4l-2,343.6
								v3.7l-17.4,27.5l21.1,0.1l-8.5,16.9l100.3,0.6l-8.3-16.9L1097.8,760z"/>
						</g>
						<g>
							<path class="st13" d="M1082.7,390.9V385c0-0.3-0.1-0.6,0-1l-90.9-0.5c-0.1,0.4,0,0.7,0,1v5.9L1082.7,390.9z"/>
						</g>
						<g>
							<path class="st13" d="M1076.9,364.7c-7.7-18.4-22.4-41.6-39.4-41.7s-31.8,22.9-39.8,41.3L1076.9,364.7z"/>
						</g>
					</g>
				</g>
			</g>
			<g>
				<g>
					<g>
						<g>
							<g>
								<path class="st16" d="M999.5,613.6c0,0-12.9,66-19.2,71.8s-51.4,51.9-55.4,59.2c-4.1,7.3-4.1,39.6-4.1,39.6l77.2-87
									L999.5,613.6z"/>
							</g>
							<path class="st12" d="M1011.6,538.1c0,0-13.3,89.8-17.5,100.4c0,0-5.4,44.7-11.7,52s-51.7,50.4-55.8,57.4s-5.9,36.3-5.9,36.3
								l77.2-81.8l18.8-111.3L1011.6,538.1z"/>
							<path class="st14" d="M1011.9,591.1h-4.8l-8.8,46.2h2.4l-4.2,32.1l-9.7,24.2c0,0-50.5,47.2-57,57.4s-8.3,20.8-9,33.3l80,16.3
								l12.5-47.8L1011.9,591.1z"/>
							<path class="st12" d="M1007.7,774l2.1-8.1l-86.3-0.5c-0.7,2.6-1.2,5.3-1.6,8.1L1007.7,774z"/>
						</g>
						<g>
							<g>
								<path class="st16" d="M1072.4,614c0,0,12.1,66.2,18.3,72c6.3,5.9,50.8,52.5,54.7,59.8c4,7.3,3.7,39.7,3.7,39.7l-76.1-87.8
									L1072.4,614z"/>
							</g>
							<path class="st12" d="M1061.1,538.4c0,0,12.3,89.9,16.3,100.6c0,0,4.9,44.8,11.1,52.2s51.1,51,55.1,58s5.4,36.4,5.4,36.4
								l-76.2-82.7l-17.5-111.5L1061.1,538.4z"/>
							<path class="st14" d="M1060.2,591.5h4.8l8.2,46.3h-2.4l3.8,32.2l9.4,24.3c0,0,50.1,47.8,56.4,58c6.4,10.3,8,20.9,8.6,33.4
								l-80.1,15.4l-12-47.9L1060.2,591.5z"/>
							<path class="st12" d="M1062.3,774.4l-2-8.1l86.3,0.5c0.6,2.6,1.2,5.3,1.5,8.1L1062.3,774.4z"/>
						</g>
						<g>
							<path class="st13" d="M1036.9,475.8L1036.9,475.8c-26,21.2-25.2,63.5-25.2,63.5l24.8-9.6l0,0l24.6,10
								C1061,539.6,1062.2,497.3,1036.9,475.8z"/>
						</g>
						<g>
							<path class="st10" d="M1055.8,513.6l-19.2-0.1l-19.2-0.1c0,0-5.6,18.8-5.5,28.1c-0.1,9.3-1.5,257.2-1.5,257.2l24.7,1.1
								l24.7-0.8c0,0,1.4-247.9,1.5-257.2C1061,532.6,1055.8,513.6,1055.8,513.6z"/>
						</g>

							<rect x="991.4" y="805.5" transform="matrix(5.733367e-03 -1 1 5.733367e-03 186.1716 1803.3929)" class="st14" width="17.1" height="5.1"/>
						<path class="st17" d="M1001.6,815.1c0,0,5.6,26,32.3,7l0.1-23.2l-33.7-0.2L1001.6,815.1z"/>
						<g>
							<path class="st12" d="M1022.8,807.7c-1.2-0.5-4.8-1-6.1-0.9s-12,12.7-10.5,17.1c1.5,4.5,10.2,5.6,10.2,5.6s8.6,1.5,11.4-2.4
								C1030.5,823.3,1024,808.2,1022.8,807.7z"/>
							<ellipse transform="matrix(0.1506 -0.9886 0.9886 0.1506 47.3043 1707.0806)" cx="1017.1" cy="826" rx="1.9" ry="9.5"/>
						</g>
						<g>
							<path class="st18" d="M1015.2,807.8c-0.5-0.4-2.3-1-2.9-1.1c-0.6-0.1-7,5.1-6.8,7.4c0.3,2.3,4.5,3.7,4.5,3.7s4.1,1.6,5.8-0.1
								C1017.5,816.1,1015.7,808.1,1015.2,807.8z"/>
							<ellipse transform="matrix(0.3327 -0.943 0.943 0.3327 -95.2742 1497.4139)" cx="1010.5" cy="816" rx="0.9" ry="4.7"/>
						</g>
						<g>
							<path class="st18" d="M1034.9,798.8c-1.3,0-2.5,0.1-3,0.2c-1.3,0.3-10.5,14.7-8.3,19.2c2.1,4.3,10.6,4.3,11.3,4.3V798.8z"/>
							<path d="M1034.8,816.8c-5.4,0-9.8,0.8-9.7,1.9c0,1,4.3,1.9,9.7,2V816.8z"/>
						</g>
						<g>
							<path class="st19" d="M1006.8,798.8c0,0-0.7,14.4,27.2,12.5l0.1-12.3L1006.8,798.8z"/>
						</g>
						<polygon class="st20" points="1033.1,531.6 1026,535 1028.7,540.4 1033,540.4 						"/>
						<g>

								<ellipse transform="matrix(5.733367e-03 -1 1 5.733367e-03 530.3067 1525.1014)" class="st14" cx="1032.1" cy="495.9" rx="3" ry="1.8"/>
						</g>
						<g>

								<ellipse transform="matrix(5.733367e-03 -1 1 5.733367e-03 516.7418 1538.175)" class="st14" cx="1031.9" cy="509.2" rx="1.2" ry="1.2"/>
						</g>
						<polygon class="st20" points="1025.1,535.4 1027.9,540.6 1023.5,543.3 1018.3,539.7 						"/>
						<path class="st20" d="M1017.5,541.6l5.9,2.5v4.9c0,0-4.7,1.5-5.9,0C1016.4,547.4,1017.5,541.6,1017.5,541.6z"/>
						<g>
							<polyline class="st21" points="1034,555 1034,543.9 1026.8,543.9 1026.8,555.6 							"/>
						</g>
						<path class="st20" d="M1026.7,563.7c0,0.8,0.6,1.5,1.5,1.5h4.2c0.8,0,1.5-0.6,1.5-1.5v-4.2c0-0.8-0.6-1.5-1.5-1.5h-4.2
							c-0.8,0-1.5,0.6-1.5,1.5V563.7z"/>
						<g>
							<path class="st22" d="M1028.5,801.5l0.2-31.3c0.1-10.3-0.2-18.7-8.9-18.8s-22.2,8.3-22.2,18.6l-0.2,31.3L1028.5,801.5z"/>
						</g>
						<g>
							<path class="st23" d="M1001.1,801.3c0,0-1.5-14.9,0.2-17.4s11.9-7.1,12.8-4.5c0.9,2.6-0.1,21.9-0.1,21.9"/>
						</g>
						<path class="st14" d="M1036.7,475.8c-3.3,2.7-6.3,5.8-8.8,9l8.8,0.1l8.8,0.1C1042.9,481.7,1040,478.6,1036.7,475.8z"/>

							<rect x="1061.1" y="805.9" transform="matrix(5.662656e-03 -1 1 5.662656e-03 255.1296 1873.5685)" class="st14" width="17.1" height="5.1"/>
						<path class="st17" d="M1067.9,815.6c0,0-5.9,25.9-32.4,6.6l0.1-23.2l33.7,0.2L1067.9,815.6z"/>
						<g>
							<path class="st12" d="M1046.9,807.8c1.2-0.5,4.8-1,6.1-0.8c1.3,0.1,11.8,12.8,10.3,17.2s-10.3,5.5-10.3,5.5
								s-8.6,1.4-11.4-2.5C1038.9,823.4,1045.6,808.3,1046.9,807.8z"/>
							<ellipse transform="matrix(0.9903 -0.1392 0.1392 0.9903 -104.7468 154.537)" cx="1052.4" cy="826.1" rx="9.5" ry="1.9"/>
						</g>
						<g>
							<path class="st18" d="M1054.5,808c0.5-0.4,2.3-1,2.9-1c0.6-0.1,7,5.2,6.7,7.5c-0.4,2.3-4.5,3.7-4.5,3.7s-4.1,1.5-5.8-0.2
								C1052,816.3,1053.9,808.3,1054.5,808z"/>
							<ellipse transform="matrix(0.9467 -0.322 0.322 0.9467 -206.4575 384.4382)" cx="1058.8" cy="816.3" rx="4.7" ry="0.9"/>
						</g>
						<g>
							<path class="st18" d="M1034.9,798.8c1.3,0,2.5,0.1,3,0.2c1.3,0.4,10.3,14.8,8.1,19.3c-2.1,4.2-10.6,4.2-11.3,4.2
								L1034.9,798.8z"/>
							<path d="M1034.8,816.8c5.4,0,9.8,0.9,9.7,2c0,1-4.3,1.9-9.8,1.9L1034.8,816.8z"/>
						</g>
						<g>
							<path class="st19" d="M1062.9,799.1c0,0,0.6,14.4-27.4,12.1l0.1-12.3L1062.9,799.1z"/>
						</g>
						<polygon class="st20" points="1039.7,531.6 1046.8,535.1 1044.1,540.4 1039.7,540.4 						"/>
						<g>

								<ellipse transform="matrix(5.804075e-03 -1 1 5.804075e-03 534.816 1529.4858)" class="st14" cx="1036.6" cy="495.8" rx="3" ry="1.8"/>
						</g>
						<g>

								<ellipse transform="matrix(5.591977e-03 -1 1 5.591977e-03 539.3607 1534.139)" class="st14" cx="1041.1" cy="495.9" rx="3" ry="1.8"/>
						</g>
						<g>

								<ellipse transform="matrix(5.591977e-03 -1 1 5.591977e-03 525.8078 1547.7103)" class="st14" cx="1041.1" cy="509.5" rx="1.2" ry="1.2"/>
						</g>
						<g>

								<ellipse transform="matrix(5.733367e-03 -1 1 5.733367e-03 521.2541 1542.7795)" class="st14" cx="1036.5" cy="509.3" rx="1.2" ry="1.2"/>
						</g>
						<g>
							<polygon class="st10" points="1052.4,510.7 1049.2,497.7 1043.8,497.7 1043.8,499.9 1036.5,500 1029.3,499.9 1029.3,497.6
								1023.9,497.6 1020.6,510.5 1029.7,510.5 1029.7,506.4 1036.6,506.4 1043.3,506.4 1043.3,510.7 							"/>
						</g>
						<polygon class="st12" points="1036.4,529.7 1033.1,531.6 1033,540.4 1036.3,540.4 1039.7,540.4 1039.7,531.6 						"/>
						<polygon class="st20" points="1047.5,535.5 1044.8,540.7 1049,543.4 1054.3,540 						"/>
						<path class="st20" d="M1055.1,541.8l-5.9,2.4v4.9c0,0,4.7,1.6,5.9,0C1056.3,547.7,1055.1,541.8,1055.1,541.8z"/>
						<g>
							<polyline class="st21" points="1038.5,555.1 1038.5,544 1045.7,544 1045.8,555.7 							"/>
						</g>
						<path class="st20" d="M1045.6,563.8c0,0.8-0.6,1.5-1.5,1.5h-4.2c-0.8,0-1.5-0.6-1.5-1.5v-4.2c0-0.8,0.6-1.5,1.5-1.5h4.2
							c0.8,0,1.5,0.6,1.5,1.5V563.8z"/>
						<g>
							<path class="st22" d="M1041.1,801.6l0.2-31.3c0.1-10.3,0.5-18.7,9.1-18.7s22.1,8.5,22,18.9l-0.2,31.3L1041.1,801.6z"/>
						</g>
						<g>
							<path class="st22" d="M1035.2,751.8c-2.6,1.3-4.8,23.6-5,51s1.8,49.9,4.4,51.1c2.6-1.3,4.8-23.6,5-51
								C1039.6,775.5,1037.7,753,1035.2,751.8z"/>
						</g>
						<g>
							<path class="st19" d="M1035.1,759.5c-1.5,1.8-2.8,20.5-3,43.3c-0.1,22.9,0.9,41.6,2.5,43.4c1.5-1.8,2.8-20.5,3-43.3
								C1037.7,780.1,1036.6,761.3,1035.1,759.5z"/>
						</g>
						<g>
							<path class="st23" d="M1068.5,801.7c0,0,1.6-14.8,0-17.4c-1.7-2.6-11.8-7.3-12.7-4.6c-0.9,2.6-0.1,21.9-0.1,21.9"/>
						</g>
					</g>
				</g>
			</g>
		</g>
	</g>
	<circle id="prCircle" class="st24" cx="1920" cy="677" r="665.2"/>
	<text id="prTitle" transform="matrix(1 0 0 1 1157.5479 181.2573)" class="st25 st26 st27">Projects</text>
	<rect x="1165.5" y="215.6" class="st2" width="368.2" height="145.1"/>
	<text id="prDescription" transform="matrix(1 0 0 1 1165.5481 230.1731)"><tspan x="0" y="0" class="st25 st26 st28">Lorem ipsum dolor sit amet, consectetuer </tspan><tspan x="0" y="24" class="st25 st26 st28">adipiscing elit, sed diam nonummy nibh </tspan><tspan x="0" y="48" class="st25 st26 st28">euismod tincidunt ut laoreet dolore magna </tspan><tspan x="0" y="72" class="st25 st26 st28">aliquam erat volutpat. Ut wisi enim ad </tspan><tspan x="0" y="96" class="st25 st26 st28">minim veniam, quis nostrud exerci tation </tspan><tspan x="0" y="120" class="st25 st26 st28">ullamcorper suscipit lobortis nisl ut aliquip </tspan></text>
</g>
</svg>
